
<svg xmlns="http://www.w3.org/2000/svg" version="1.1" xmlns:xlink="http://www.w3.org/1999/xlink" x="0px" y="0px" viewBox="0 0 270 270">

<path fill="#FFBB1B" stroke="none" d="
M 263 133.95
Q 263 80.95 225.5 43.45 188 5.95 135 5.95 82 5.95 44.5 43.45 7 80.95 7 133.95 7 186.95 44.5 224.45 82 261.95 135 261.95 188 261.95 225.5 224.45 263 186.95 263 133.95 Z"/>

<path fill="#FEFEFE" fill-opacity="0.996078431372549" stroke="none" d="
M 111.85 158.9
L 111.6 158.9 111.6 158.75 111.5 158.75 111.5 158.65 111.1 158.65 111.1 158.5 110.85 158.5 110.85 158.4 110.6 158.4 110.6 158.25 110.35 158.25 110.35 158.15 110.1 158.15 110.1 158 109.85 158 109.85 157.9 109.45 157.9 109.45 157.75 108.95 157.75 108.95 157.65 108.6 157.65 108.6 157.5 108.1 157.5 108.1 157.4 107.7 157.4 107.7 157.25 106.95 157.25 106.95 157.15 105.95 157.15 105.95 157 102.3 157 102.3 157.15 101.3 157.15 101.3 157.25 100.95 157.25 100.95 157.4 100.2 157.4 100.2 157.5 99.7 157.5 99.7 157.65 99.2 157.65 99.2 157.75 98.8 157.75 98.8 157.9 98.55 157.9 98.55 158 98.2 158 98.2 158.15 97.8 158.15 97.8 158.25 97.4 158.25 97.4 158.4 97.15 158.4 97.15 158.5 96.9 158.5 96.9 158.65 96.65 158.65 96.65 158.75 96.4 158.75 96.4 158.9 96.15 158.9 96.15 159 95.9 159 95.9 159.15 95.8 159.15 95.8 159.25 95.55 159.25 95.55 159.4 95.4 159.4 95.4 159.5 95.15 159.5 95.15 159.65 95.05 159.65 95.05 159.75 94.8 159.75 94.8 159.9 94.65 159.9 94.65 160 94.4 160 94.4 160.15 94.3 160.15 94.3 160.25 94.15 160.25 94.15 160.4 94.05 160.4 94.05 160.5 93.8 160.5 93.8 160.65 93.65 160.65 93.65 160.75 93.55 160.75 93.55 160.9 93.4 160.9 93.4 161 93.3 161 93.3 161.15 93.15 161.15 93.15 161.25 93.05 161.25 93.05 161.4 92.9 161.4 92.9 161.5 92.8 161.5 92.8 161.65 92.65 161.65 92.65 161.8 92.55 161.8 92.55 161.9 92.4 161.9 92.4 162.05 92.3 162.05 92.3 162.15 92.15 162.15 92.15 162.3 92.05 162.3 92.05 162.4 91.9 162.4 91.9 162.55 91.8 162.55 91.8 162.65 91.65 162.65 91.65 162.8 91.55 162.8 91.55 162.9 91.4 162.9 91.4 163.05 91.25 163.05 91.25 163.3 91.15 163.3 91.15 163.4 91 163.4 91 163.55 90.9 163.55 90.9 163.8 90.75 163.8 90.75 163.9 90.65 163.9 90.65 164.15 90.5 164.15 90.5 164.3 90.4 164.3 90.4 164.55 90.25 164.55 90.25 164.65 90.15 164.65 90.15 164.9 90 164.9 90 165.15 89.9 165.15 89.9 165.3 89.75 165.3 89.75 165.55 89.65 165.55 89.65 165.8 89.5 165.8 89.5 166.05 89.4 166.05 89.4 166.3 89.25 166.3 89.25 166.65 89.15 166.65 89.15 166.9 89 166.9 89 167.3 88.9 167.3 88.9 167.55 88.75 167.55 88.75 168.05 88.65 168.05 88.65 168.3 88.5 168.3 88.5 168.8 88.4 168.8 88.4 169.45 88.25 169.45 88.25 170.05 88.15 170.05 88.15 170.95 88 170.95 88 171.2 87.9 171.2 87.9 175.1 88 175.1 88 175.7 88.15 175.7 88.15 176.6 88.25 176.6 88.25 177.1 88.4 177.1 88.4 177.6 88.5 177.6 88.5 178.1 88.65 178.1 88.65 178.45 88.75 178.45 88.75 178.7 88.9 178.7 88.9 178.95 89 178.95 89 179.35 89.15 179.35 89.15 179.6 89.25 179.6 89.25 180 89.4 180 89.4 180.25 89.5 180.25 89.5 180.35 89.65 180.35 89.65 180.6 89.75 180.6 89.75 180.85 89.9 180.85 89.9 181.1 90 181.1 90 181.35 90.15 181.35 90.15 181.5 90.25 181.5 90.25 181.75 90.4 181.75 90.4 181.85 90.5 181.85 90.5 182.1 90.65 182.1 90.65 182.25 90.75 182.25 90.75 182.5 90.9 182.5 90.9 182.6 91 182.6 91 182.75 91.15 182.75 91.15 182.85 91.25 182.85 91.25 183.1 91.4 183.1 91.4 183.25 91.55 183.25 91.55 183.35 91.65 183.35 91.65 183.5 91.8 183.5 91.8 183.6 91.9 183.6 91.9 183.85 92.05 183.85 92.05 184 92.15 184 92.15 184.1 92.3 184.1 92.3 184.25 92.4 184.25 92.4 184.35 92.55 184.35 92.55 184.5 92.65 184.5 92.65 184.6 92.8 184.6 92.8 184.75 92.9 184.75 92.9 184.85 93.05 184.85 93.05 185 93.15 185 93.15 185.1 93.4 185.1 93.4 185.25 93.55 185.25 93.55 185.35 93.65 185.35 93.65 185.5 93.8 185.5 93.8 185.6 93.9 185.6 93.9 185.75 94.05 185.75 94.05 185.85 94.3 185.85 94.3 186 94.4 186 94.4 186.15 94.55 186.15 94.55 186.25 94.8 186.25 94.8 186.4 94.9 186.4 94.9 186.5 95.15 186.5 95.15 186.65 95.3 186.65 95.3 186.75 95.55 186.75 95.55 186.9 95.8 186.9 95.8 187 95.9 187 95.9 187.15 96.15 187.15 96.15 187.25 96.4 187.25 96.4 187.4 96.55 187.4 96.55 187.5 96.8 187.5 96.8 187.65 97.15 187.65 97.15 187.75 97.4 187.75 97.4 187.9 97.7 187.9 97.7 188 98.05 188 98.05 188.15 98.45 188.15 98.45 188.25 98.8 188.25 98.8 188.4 99.3 188.4 99.3 188.5 99.7 188.5 99.7 188.65 99.95 188.65 99.95 188.75 100.55 188.75 100.55 188.9 101.3 188.9 101.3 189 102.3 189 102.3 189.15 105.7 189.15 105.7 189 106.6 189 106.6 188.9 107.85 188.9 107.85 188.75 108.35 188.75 108.35 188.65 108.85 188.65 108.85 188.5 108.95 188.5 108.95 188.4 109.45 188.4 109.45 188.25 109.75 188.25 109.75 188.15 110.1 188.15 110.1 188 110.5 188 110.5 187.9 110.75 187.9 110.75 187.75 111 187.75 111 187.65 111.25 187.65 111.25 187.5 111.5 187.5 111.5 187.4 111.75 187.4 111.75 187.25 112 187.25 112 187.15 112.1 187.15 112.1 187 112.35 187 112.35 186.9 112.5 186.9 112.5 186.75 112.75 186.75 112.75 186.65 112.85 186.65 112.85 186.5 113.1 186.5 113.1 186.4 113.25 186.4 113.25 186.25 113.5 186.25 113.5 186.15 113.6 186.15 113.6 186 113.75 186 113.75 185.85 114 185.85 114 185.75 114.1 185.75 114.1 185.6 114.25 185.6 114.25 185.5 114.35 185.5 114.35 185.35 114.5 185.35 114.5 185.25 114.75 185.25 114.75 185.1 114.85 185.1 114.85 185 115 185 115 184.85 115.1 184.85 115.1 184.75 115.25 184.75 115.25 184.6 115.35 184.6 115.35 184.5 115.5 184.5 115.5 184.35 115.65 184.35 115.65 184.25 115.75 184.25 115.75 184.1 115.9 184.1 115.9 184 116 184 116 183.85 116.15 183.85 116.15 183.75 116.25 183.75 116.25 183.5 116.4 183.5 116.4 183.35 116.5 183.35 116.5 183.25 116.65 183.25 116.65 183.1 116.75 183.1 116.75 183 116.9 183 116.9 182.75 117 182.75 117 182.6 117.15 182.6 117.15 182.35 117.25 182.35 117.25 182.25 117.4 182.25 117.4 182.1 117.5 182.1 117.5 182 117.65 182 117.65 181.75 117.75 181.75 117.75 181.5 117.9 181.5 117.9 181.25 118 181.25 118 181.1 118.15 181.1 118.15 180.85 118.25 180.85 118.25 180.75 118.4 180.75 118.4 180.35 118.5 180.35 118.5 180.1 118.65 180.1 118.65 179.85 118.75 179.85 118.75 179.6 118.9 179.6 118.9 179.2 119 179.2 119 179.1 119.15 179.1 119.15 178.7 119.25 178.7 119.25 178.35 119.4 178.35 119.4 177.95 119.5 177.95 119.5 177.45 119.65 177.45 119.65 177.2 119.75 177.2 119.75 176.6 119.9 176.6 119.9 175.85 120 175.85 120 174.95 120.15 174.95 120.15 171.3 120 171.3 120 170.55 119.9 170.55 119.9 169.8 119.75 169.8 119.75 169.45 119.65 169.45 119.65 168.8 119.5 168.8 119.5 168.45 119.4 168.45 119.4 167.95 119.25 167.95 119.25 167.55 119.15 167.55 119.15 167.3 119 167.3 119 166.9 118.9 166.9 118.9 166.65 118.75 166.65 118.75 166.3 118.65 166.3 118.65 166.05 118.5 166.05 118.5 165.8 118.4 165.8 118.4 165.55 118.25 165.55 118.25 165.4 118.15 165.4 118.15 165.15 118 165.15 118 164.9 117.9 164.9 117.9 164.65 117.75 164.65 117.75 164.55 117.65 164.55 117.65 164.3 117.5 164.3 117.5 164.15 117.4 164.15 117.4 163.9 117.25 163.9 117.25 163.8 117.15 163.8 117.15 163.55 117 163.55 117 163.4 116.9 163.4 116.9 163.3 116.75 163.3 116.75 163.15 116.65 163.15 116.65 162.9 116.5 162.9 116.5 162.8 116.4 162.8 116.4 162.65 116.25 162.65 116.25 162.55 116.15 162.55 116.15 162.4 116 162.4 116 162.3 115.9 162.3 115.9 162.15 115.75 162.15 115.75 162.05 115.65 162.05 115.65 161.8 115.5 161.8 115.5 161.65 115.35 161.65 115.35 161.5 115.1 161.5 115.1 161.4 115 161.4 115 161.25 114.85 161.25 114.85 161.15 114.75 161.15 114.75 161 114.6 161 114.6 160.9 114.5 160.9 114.5 160.75 114.35 160.75 114.35 160.65 114.25 160.65 114.25 160.5 114 160.5 114 160.4 113.85 160.4 113.85 160.25 113.75 160.25 113.75 160.15 113.6 160.15 113.6 160 113.35 160 113.35 159.9 113.25 159.9 113.25 159.75 113.1 159.75 113.1 159.65 112.85 159.65 112.85 159.5 112.75 159.5 112.75 159.4 112.5 159.4 112.5 159.25 112.25 159.25 112.25 159.15 112 159.15 112 159 111.85 159 111.85 158.9
M 162.05 176.1
L 162.05 175.6 161.95 175.6 161.95 174.85 161.8 174.85 161.8 174.2 161.7 174.2 161.7 173.45 161.55 173.45 161.55 173.2 161.45 173.2 161.45 172.7 161.3 172.7 161.3 171.8 161.2 171.8 161.2 171.45 161.05 171.45 161.05 170.95 160.95 170.95 160.95 170.45 160.8 170.45 160.8 170.05 160.7 170.05 160.7 169.55 160.55 169.55 160.55 169.05 160.45 169.05 160.45 168.55 160.3 168.55 160.3 168.2 160.2 168.2 160.2 167.65 160.05 167.65 160.05 167.4 159.95 167.4 159.95 166.9 159.8 166.9 159.8 166.55 159.7 166.55 159.7 166.15 159.55 166.15 159.55 165.8 159.45 165.8 159.45 165.4 159.3 165.4 159.3 165.05 159.2 165.05 159.2 164.65 159.05 164.65 159.05 164.3 158.95 164.3 158.95 163.9 158.8 163.9 158.8 163.55 158.7 163.55 158.7 163.3 158.55 163.3 158.55 163.05 158.45 163.05 158.45 162.65 158.3 162.65 158.3 162.3 158.2 162.3 158.2 161.9 158.05 161.9 158.05 161.65 157.9 161.65 157.9 161.25 157.8 161.25 157.8 161 157.65 161 157.65 160.75 157.55 160.75 157.55 160.4 157.4 160.4 157.4 160.15 157.3 160.15 157.3 159.75 157.15 159.75 157.15 159.5 157.05 159.5 157.05 159.25 156.9 159.25 156.9 159 156.8 159 156.8 158.65 156.65 158.65 156.65 158.4 156.55 158.4 156.55 158.15 156.4 158.15 156.4 157.75 156.3 157.75 156.3 157.65 156.15 157.65 156.15 157.4 156.05 157.4 156.05 157 155.9 157 155.9 156.75 155.8 156.75 155.8 156.5 155.65 156.5 155.65 156.25 155.55 156.25 155.55 156 155.4 156 155.4 155.75 155.3 155.75 155.3 155.5 155.15 155.5 155.15 155.25 155.05 155.25 155.05 155 154.9 155 154.9 154.75 154.8 154.75 154.8 154.5 154.65 154.5 154.65 154.25 154.55 154.25 154.55 154 154.4 154 154.4 153.75 154.3 153.75 154.3 153.6 154.15 153.6 154.15 153.35 154.05 153.35 154.05 153.1 153.9 153.1 153.9 152.85 153.8 152.85 153.8 152.6 153.65 152.6 153.65 152.35 153.55 152.35 153.55 152.25 153.4 152.25 153.4 152 153.3 152 153.3 151.75 153.15 151.75 153.15 151.6 153.05 151.6 153.05 151.35 152.9 151.35 152.9 151.1 152.8 151.1 152.8 150.85 152.65 150.85 152.65 150.75 152.55 150.75 152.55 150.5 152.4 150.5 152.4 150.25 152.3 150.25 152.3 150.1 152.15 150.1 152.15 149.85 152.05 149.85 152.05 149.6 151.9 149.6 151.9 149.45 151.75 149.45 151.75 149.2 151.65 149.2 151.65 149.1 151.5 149.1 151.5 148.85 151.4 148.85 151.4 148.6 151.25 148.6 151.25 148.45 151.15 148.45 151.15 148.2 151 148.2 151 148.1 150.9 148.1 150.9 147.95 150.75 147.95 150.75 147.7 150.65 147.7 150.65 147.45 150.5 147.45 150.5 147.35 150.4 147.35 150.4 147.1 150.25 147.1 150.25 146.95 150.15 146.95 150.15 146.85 150 146.85 150 146.6 149.9 146.6 149.9 146.45 149.75 146.45 149.75 146.2 149.65 146.2 149.65 146.1 149.5 146.1 149.5 145.85 149.4 145.85 149.4 145.7 149.25 145.7 149.25 145.6 149.15 145.6 149.15 145.35 149 145.35 149 145.2 148.9 145.2 148.9 144.95 148.75 144.95 148.75 144.85 148.65 144.85 148.65 144.7 148.5 144.7 148.5 144.45 148.4 144.45 148.4 144.35 148.25 144.35 148.25 144.2 148.15 144.2 148.15 143.95 148 143.95 148 143.85 147.9 143.85 147.9 143.7 147.75 143.7 147.75 143.55 147.65 143.55 147.65 143.3 147.5 143.3 147.5 143.2 147.4 143.2 147.4 143.05 147.25 143.05 147.25 142.8 147.15 142.8 147.15 142.7 147 142.7 147 142.55 146.9 142.55 146.9 142.45 146.75 142.45 146.75 142.2 146.65 142.2 146.65 142.05 146.5 142.05 146.5 141.95 146.4 141.95 146.4 141.8 146.25 141.8 146.25 141.7 146.15 141.7 146.15 141.45 146 141.45 146 141.3 145.9 141.3 145.9 141.2 145.75 141.2 145.75 141.05 145.6 141.05 145.6 140.95 145.5 140.95 145.5 140.7 145.35 140.7 145.35 140.55 145.25 140.55 145.25 140.45 145.1 140.45 145.1 140.3 145 140.3 145 140.2 144.85 140.2 144.85 140.05 144.75 140.05 144.75 139.95 144.6 139.95 144.6 139.7 144.5 139.7 144.5 139.55 144.35 139.55 144.35 139.45 144.25 139.45 144.25 139.3 144.1 139.3 144.1 139.2 144 139.2 144 139.05 143.85 139.05 143.85 138.95 143.75 138.95 143.75 138.7 143.6 138.7 143.6 138.55 143.5 138.55 143.5 138.45 143.35 138.45 143.35 138.3 143.25 138.3 143.25 138.2 143.1 138.2 143.1 138.05 143 138.05 143 137.95 142.85 137.95 142.85 137.8 142.75 137.8 142.75 137.7 142.6 137.7 142.6 137.55 142.5 137.55 142.5 137.4 142.35 137.4 142.35 137.3 142.25 137.3 142.25 137.15 142.1 137.15 142.1 137.05 142 137.05 142 136.9 141.85 136.9 141.85 136.8 141.75 136.8 141.75 136.65 141.6 136.65 141.6 136.55 141.5 136.55 141.5 136.4 141.35 136.4 141.35 136.3 141.25 136.3 141.25 136.15 141.1 136.15 141.1 136.05 141 136.05 141 135.9 140.85 135.9 140.85 135.8 140.75 135.8 140.75 135.65 140.6 135.65 140.6 135.55 140.5 135.55 140.5 135.4 140.35 135.4 140.35 135.3 140.25 135.3 140.25 135.15 140.1 135.15 140.1 135.05 140 135.05 140 134.9 139.85 134.9 139.85 134.8 139.7 134.8 139.7 134.65 139.6 134.65 139.6 134.55 139.45 134.55 139.45 134.4 139.35 134.4 139.35 134.3 139.2 134.3 139.2 134.15 139.1 134.15 139.1 134.05 138.95 134.05 138.95 133.9 138.85 133.9 138.85 133.8 138.7 133.8 138.7 133.65 138.45 133.65 138.45 133.55 138.35 133.55 138.35 133.4 138.2 133.4 138.2 133.3 138.1 133.3 138.1 133.15 137.95 133.15 137.95 133.05 137.85 133.05 137.85 132.9 137.7 132.9 137.7 132.8 137.6 132.8 137.6 132.65 137.45 132.65 137.45 132.55 137.35 132.55 137.35 132.4 137.1 132.4 137.1 132.3 136.95 132.3 136.95 132.15 136.85 132.15 136.85 132.05 136.7 132.05 136.7 131.9 136.6 131.9 136.6 131.8 136.45 131.8 136.45 131.65 136.2 131.65 136.2 131.55 136.1 131.55 136.1 131.4 135.95 131.4 135.95 131.25 135.85 131.25 135.85 131.15 135.7 131.15 135.7 131 135.45 131 135.45 130.9 135.35 130.9 135.35 130.75 135.2 130.75 135.2 130.65 135.1 130.65 135.1 130.5 134.95 130.5 134.95 130.4 134.7 130.4 134.7 130.25 134.6 130.25 134.6 130.15 134.45 130.15 134.45 130 134.2 130 134.2 129.9 134.1 129.9 134.1 129.75 133.95 129.75 133.95 129.65 133.85 129.65 133.85 129.5 133.55 129.5 133.55 129.4 133.45 129.4 133.45 129.25 133.3 129.25 133.3 129.15 133.05 129.15 133.05 129 132.95 129 132.95 128.9 132.8 128.9 132.8 128.75 132.55 128.75 132.55 128.65 132.45 128.65 132.45 128.5 132.3 128.5 132.3 128.4 132.05 128.4 132.05 128.25 131.95 128.25 131.95 128.15 131.8 128.15 131.8 128 131.55 128 131.55 127.9 131.45 127.9 131.45 127.75 131.2 127.75 131.2 127.65 131.05 127.65 131.05 127.5 130.8 127.5 130.8 127.4 130.7 127.4 130.7 127.25 130.55 127.25 130.55 127.15 130.3 127.15 130.3 127 130.2 127 130.2 126.9 129.95 126.9 129.95 126.75 129.8 126.75 129.8 126.65 129.7 126.65 129.7 126.5 129.45 126.5 129.45 126.4 129.2 126.4 129.2 126.25 129.05 126.25 129.05 126.15 128.8 126.15 128.8 126 128.7 126 128.7 125.9 128.45 125.9 128.45 125.75 128.3 125.75 128.3 125.65 128.05 125.65 128.05 125.5 127.8 125.5 127.8 125.35 127.65 125.35 127.65 125.25 127.4 125.25 127.4 125.1 127.3 125.1 127.3 125 127.05 125 127.05 124.85 126.8 124.85 126.8 124.75 126.65 124.75 126.65 124.6 126.4 124.6 126.4 124.5 126.15 124.5 126.15 124.35 126.05 124.35 126.05 124.25 125.8 124.25 125.8 124.1 125.55 124.1 125.55 124 125.3 124 125.3 123.85 125.15 123.85 125.15 123.75 124.9 123.75 124.9 123.6 124.65 123.6 124.65 123.5 124.55 123.5 124.55 123.35 124.3 123.35 124.3 123.25 124.05 123.25 124.05 123.1 123.8 123.1 123.8 123 123.55 123 123.55 122.85 123.3 122.85 123.3 122.75 123.15 122.75 123.15 122.6 122.8 122.6 122.8 122.5 122.55 122.5 122.55 122.35 122.4 122.35 122.4 122.25 122.15 122.25 122.15 122.1 121.9 122.1 121.9 122 121.65 122 121.65 121.85 121.4 121.85 121.4 121.75 121.15 121.75 121.15 121.6 120.9 121.6 120.9 121.5 120.65 121.5 120.65 121.35 120.4 121.35 120.4 121.25 120.15 121.25 120.15 121.1 119.75 121.1 119.75 121 119.5 121 119.5 120.85 119.25 120.85 119.25 120.75 119 120.75 119 120.6 118.75 120.6 118.75 120.5 118.5 120.5 118.5 120.35 118.15 120.35 118.15 120.25 117.9 120.25 117.9 120.1 117.65 120.1 117.65 120 117.25 120 117.25 119.85 117 119.85 117 119.75 116.75 119.75 116.75 119.6 116.4 119.6 116.4 119.5 116.15 119.5 116.15 119.35 115.75 119.35 115.75 119.2 115.5 119.2 115.5 119.1 115 119.1 115 118.95 114.75 118.95 114.75 118.85 114.5 118.85 114.5 118.7 114.1 118.7 114.1 118.6 113.85 118.6 113.85 118.45 113.5 118.45 113.5 118.35 113.1 118.35 113.1 118.2 112.75 118.2 112.75 118.1 112.5 118.1 112.5 117.95 112.1 117.95 112.1 117.85 111.75 117.85 111.75 117.7 111.35 117.7 111.35 117.6 110.85 117.6 110.85 117.45 110.35 117.45 110.35 117.35 110.25 117.35 110.25 117.2 109.85 117.2 109.85 117.1 109.35 117.1 109.35 116.95 108.95 116.95 108.95 116.85 108.45 116.85 108.45 116.7 108.2 116.7 108.2 116.6 107.7 116.6 107.7 116.45 107.1 116.45 107.1 116.35 106.7 116.35 106.7 116.2 106.2 116.2 106.2 116.1 105.7 116.1 105.7 115.95 105.35 115.95 105.35 115.85 104.85 115.85 104.85 115.7 104.2 115.7 104.2 115.6 103.6 115.6 103.6 115.45 102.95 115.45 102.95 115.35 102.2 115.35 102.2 115.2 101.8 115.2 101.8 115.1 101.05 115.1 101.05 114.95 100.3 114.95 100.3 114.85 99.55 114.85 99.55 114.7 98.45 114.7 98.45 114.6 97.7 114.6 97.7 114.45 97.05 114.45 97.05 114.35 95.8 114.35 95.8 114.2 94.4 114.2 94.4 114.1 92.4 114.1 92.4 114.2 91.9 114.2 91.9 114.35 91.65 114.35 91.65 114.45 91.15 114.45 91.15 114.6 90.9 114.6 90.9 114.7 90.65 114.7 90.65 114.85 90.4 114.85 90.4 114.95 90.25 114.95 90.25 115.1 90.15 115.1 90.15 115.2 90 115.2 90 115.35 89.9 115.35 89.9 115.45 89.65 115.45 89.65 115.6 89.5 115.6 89.5 115.7 89.4 115.7 89.4 115.85 89.25 115.85 89.25 115.95 89.15 115.95 89.15 116.1 89 116.1 89 116.35 88.9 116.35 88.9 116.45 88.75 116.45 88.75 116.6 88.65 116.6 88.65 116.85 88.5 116.85 88.5 117.1 88.4 117.1 88.4 117.35 88.25 117.35 88.25 117.7 88.15 117.7 88.15 118.2 88 118.2 88 118.7 87.9 118.7 87.9 131.9 88 131.9 88 132.3 88.15 132.3 88.15 132.65 88.25 132.65 88.25 133.05 88.4 133.05 88.4 133.3 88.5 133.3 88.5 133.55 88.65 133.55 88.65 133.65 88.75 133.65 88.75 133.8 88.9 133.8 88.9 134.05 89 134.05 89 134.15 89.15 134.15 89.15 134.3 89.25 134.3 89.25 134.4 89.4 134.4 89.4 134.55 89.5 134.55 89.5 134.65 89.65 134.65 89.65 134.8 89.75 134.8 89.75 134.9 89.9 134.9 89.9 135.05 90 135.05 90 135.15 90.25 135.15 90.25 135.3 90.5 135.3 90.5 135.4 90.65 135.4 90.65 135.55 90.75 135.55 90.75 135.65 91 135.65 91 135.8 91.55 135.8 91.55 135.9 91.9 135.9 91.9 136.05 93.55 136.05 93.55 136.15 93.9 136.15 93.9 136.3 94.65 136.3 94.65 136.4 95.65 136.4 95.65 136.55 96.55 136.55 96.55 136.65 97.3 136.65 97.3 136.8 98.45 136.8 98.45 136.9 99.2 136.9 99.2 137.05 99.8 137.05 99.8 137.15 100.3 137.15 100.3 137.3 100.7 137.3 100.7 137.4 101.2 137.4 101.2 137.55 101.7 137.55 101.7 137.7 102.2 137.7 102.2 137.8 102.3 137.8 102.3 137.95 102.7 137.95 102.7 138.05 103.2 138.05 103.2 138.2 103.85 138.2 103.85 138.3 104.35 138.3 104.35 138.45 104.7 138.45 104.7 138.55 105.1 138.55 105.1 138.7 105.45 138.7 105.45 138.8 105.85 138.8 105.85 138.95 106.1 138.95 106.1 139.05 106.45 139.05 106.45 139.2 106.85 139.2 106.85 139.3 107.1 139.3 107.1 139.45 107.45 139.45 107.45 139.55 107.85 139.55 107.85 139.7 108.1 139.7 108.1 139.8 108.35 139.8 108.35 139.95 108.7 139.95 108.7 140.05 108.95 140.05 108.95 140.2 109.35 140.2 109.35 140.3 109.6 140.3 109.6 140.45 109.85 140.45 109.85 140.55 110.1 140.55 110.1 140.7 110.35 140.7 110.35 140.8 110.6 140.8 110.6 140.95 111 140.95 111 141.05 111.25 141.05 111.25 141.2 111.5 141.2 111.5 141.3 111.75 141.3 111.75 141.45 111.85 141.45 111.85 141.55 112.25 141.55 112.25 141.7 112.5 141.7 112.5 141.8 112.75 141.8 112.75 141.95 112.85 141.95 112.85 142.05 113.1 142.05 113.1 142.2 113.35 142.2 113.35 142.3 113.6 142.3 113.6 142.45 113.85 142.45 113.85 142.55 114.1 142.55 114.1 142.7 114.25 142.7 114.25 142.8 114.5 142.8 114.5 142.95 114.6 142.95 114.6 143.05 114.85 143.05 114.85 143.2 115.1 143.2 115.1 143.3 115.35 143.3 115.35 143.45 115.5 143.45 115.5 143.55 115.75 143.55 115.75 143.7 115.9 143.7 115.9 143.85 116.15 143.85 116.15 143.95 116.4 143.95 116.4 144.1 116.5 144.1 116.5 144.2 116.75 144.2 116.75 144.35 116.9 144.35 116.9 144.45 117.15 144.45 117.15 144.6 117.25 144.6 117.25 144.7 117.5 144.7 117.5 144.85 117.65 144.85 117.65 144.95 117.9 144.95 117.9 145.1 118 145.1 118 145.2 118.15 145.2 118.15 145.35 118.4 145.35 118.4 145.45 118.5 145.45 118.5 145.6 118.75 145.6 118.75 145.7 118.9 145.7 118.9 145.85 119 145.85 119 145.95 119.25 145.95 119.25 146.1 119.4 146.1 119.4 146.2 119.65 146.2 119.65 146.35 119.75 146.35 119.75 146.45 119.9 146.45 119.9 146.6 120 146.6 120 146.7 120.25 146.7 120.25 146.85 120.4 146.85 120.4 146.95 120.5 146.95 120.5 147.1 120.75 147.1 120.75 147.2 120.9 147.2 120.9 147.35 121 147.35 121 147.45 121.15 147.45 121.15 147.6 121.4 147.6 121.4 147.7 121.5 147.7 121.5 147.85 121.65 147.85 121.65 147.95 121.8 147.95 121.8 148.1 121.9 148.1 121.9 148.2 122.15 148.2 122.15 148.35 122.3 148.35 122.3 148.45 122.4 148.45 122.4 148.6 122.55 148.6 122.55 148.7 122.65 148.7 122.65 148.85 122.8 148.85 122.8 148.95 123.05 148.95 123.05 149.1 123.15 149.1 123.15 149.2 123.3 149.2 123.3 149.35 123.4 149.35 123.4 149.45 123.55 149.45 123.55 149.6 123.65 149.6 123.65 149.75 123.8 149.75 123.8 149.85 123.9 149.85 123.9 150 124.05 150 124.05 150.1 124.3 150.1 124.3 150.25 124.4 150.25 124.4 150.35 124.55 150.35 124.55 150.5 124.65 150.5 124.65 150.6 124.8 150.6 124.8 150.75 124.9 150.75 124.9 150.85 125.05 150.85 125.05 151 125.15 151 125.15 151.1 125.3 151.1 125.3 151.25 125.4 151.25 125.4 151.35 125.55 151.35 125.55 151.5 125.65 151.5 125.65 151.6 125.8 151.6 125.8 151.75 125.9 151.75 125.9 151.85 126.05 151.85 126.05 152 126.15 152 126.15 152.1 126.3 152.1 126.3 152.25 126.4 152.25 126.4 152.35 126.55 152.35 126.55 152.5 126.65 152.5 126.65 152.6 126.8 152.6 126.8 152.75 126.9 152.75 126.9 153 127.05 153 127.05 153.1 127.15 153.1 127.15 153.25 127.3 153.25 127.3 153.35 127.4 153.35 127.4 153.5 127.55 153.5 127.55 153.6 127.65 153.6 127.65 153.75 127.8 153.75 127.8 153.85 127.95 153.85 127.95 154 128.05 154 128.05 154.25 128.2 154.25 128.2 154.35 128.3 154.35 128.3 154.5 128.45 154.5 128.45 154.6 128.55 154.6 128.55 154.75 128.7 154.75 128.7 154.85 128.8 154.85 128.8 155.1 128.95 155.1 128.95 155.25 129.05 155.25 129.05 155.35 129.2 155.35 129.2 155.5 129.3 155.5 129.3 155.6 129.45 155.6 129.45 155.75 129.55 155.75 129.55 156 129.7 156 129.7 156.15 129.8 156.15 129.8 156.25 129.95 156.25 129.95 156.4 130.05 156.4 130.05 156.65 130.2 156.65 130.2 156.75 130.3 156.75 130.3 156.9 130.45 156.9 130.45 157.15 130.55 157.15 130.55 157.25 130.7 157.25 130.7 157.4 130.8 157.4 130.8 157.5 130.95 157.5 130.95 157.75 131.05 157.75 131.05 157.9 131.2 157.9 131.2 158.15 131.3 158.15 131.3 158.25 131.45 158.25 131.45 158.4 131.55 158.4 131.55 158.65 131.7 158.65 131.7 158.75 131.8 158.75 131.8 159 131.95 159 131.95 159.15 132.05 159.15 132.05 159.25 132.2 159.25 132.2 159.5 132.3 159.5 132.3 159.65 132.45 159.65 132.45 159.9 132.55 159.9 132.55 160 132.7 160 132.7 160.25 132.8 160.25 132.8 160.4 132.95 160.4 132.95 160.65 133.05 160.65 133.05 160.75 133.2 160.75 133.2 161 133.3 161 133.3 161.25 133.45 161.25 133.45 161.4 133.55 161.4 133.55 161.65 133.7 161.65 133.7 161.8 133.85 161.8 133.85 162.05 133.95 162.05 133.95 162.3 134.1 162.3 134.1 162.55 134.2 162.55 134.2 162.65 134.35 162.65 134.35 162.9 134.45 162.9 134.45 163.05 134.6 163.05 134.6 163.3 134.7 163.3 134.7 163.55 134.85 163.55 134.85 163.8 134.95 163.8 134.95 164.05 135.1 164.05 135.1 164.3 135.2 164.3 135.2 164.4 135.35 164.4 135.35 164.65 135.45 164.65 135.45 164.9 135.6 164.9 135.6 165.3 135.7 165.3 135.7 165.55 135.85 165.55 135.85 165.65 135.95 165.65 135.95 165.9 136.1 165.9 136.1 166.15 136.2 166.15 136.2 166.55 136.35 166.55 136.35 166.8 136.45 166.8 136.45 166.9 136.6 166.9 136.6 167.3 136.7 167.3 136.7 167.55 136.85 167.55 136.85 167.95 136.95 167.95 136.95 168.2 137.1 168.2 137.1 168.55 137.2 168.55 137.2 168.8 137.35 168.8 137.35 169.05 137.45 169.05 137.45 169.45 137.6 169.45 137.6 169.7 137.7 169.7 137.7 170.2 137.85 170.2 137.85 170.55 137.95 170.55 137.95 170.8 138.1 170.8 138.1 170.95 138.2 170.95 138.2 171.45 138.35 171.45 138.35 171.8 138.45 171.8 138.45 172.2 138.6 172.2 138.6 172.7 138.7 172.7 138.7 173.05 138.85 173.05 138.85 173.3 138.95 173.3 138.95 173.7 139.1 173.7 139.1 174.2 139.2 174.2 139.2 174.7 139.35 174.7 139.35 175.2 139.45 175.2 139.45 175.7 139.6 175.7 139.6 175.85 139.7 175.85 139.7 176.6 139.85 176.6 139.85 177.1 140 177.1 140 177.85 140.1 177.85 140.1 178.35 140.25 178.35 140.25 179.1 140.35 179.1 140.35 179.85 140.5 179.85 140.5 180.35 140.6 180.35 140.6 181.25 140.75 181.25 140.75 182.1 140.85 182.1 140.85 183 141 183 141 184.25 141.1 184.25 141.1 185.25 141.25 185.25 141.25 185.5 141.35 185.5 141.35 185.85 141.5 185.85 141.5 186.15 141.6 186.15 141.6 186.4 141.75 186.4 141.75 186.65 141.85 186.65 141.85 186.75 142 186.75 142 187 142.1 187 142.1 187.15 142.25 187.15 142.25 187.25 142.35 187.25 142.35 187.4 142.5 187.4 142.5 187.5 142.6 187.5 142.6 187.65 142.75 187.65 142.75 187.75 142.85 187.75 142.85 187.9 143 187.9 143 188 143.1 188 143.1 188.15 143.25 188.15 143.25 188.25 143.5 188.25 143.5 188.4 143.6 188.4 143.6 188.5 143.85 188.5 143.85 188.65 144.1 188.65 144.1 188.75 144.5 188.75 144.5 188.9 144.85 188.9 144.85 189 145.35 189 145.35 189.15 159.05 189.15 159.05 189 159.45 189 159.45 188.9 159.8 188.9 159.8 188.75 160.05 188.75 160.05 188.65 160.3 188.65 160.3 188.5 160.45 188.5 160.45 188.4 160.7 188.4 160.7 188.25 160.8 188.25 160.8 188.15 161.05 188.15 161.05 188 161.2 188 161.2 187.9 161.3 187.9 161.3 187.75 161.45 187.75 161.45 187.65 161.55 187.65 161.55 187.5 161.7 187.5 161.7 187.4 161.8 187.4 161.8 187.25 161.95 187.25 161.95 187 162.05 187 162.05 186.9 162.2 186.9 162.2 186.75 162.3 186.75 162.3 186.5 162.45 186.5 162.45 186.25 162.55 186.25 162.55 186 162.7 186 162.7 185.75 162.8 185.75 162.8 185.35 162.95 185.35 162.95 185.25 163.05 185.25 163.05 181.85 162.95 181.85 162.95 180.6 162.8 180.6 162.8 179.7 162.7 179.7 162.7 178.85 162.55 178.85 162.55 178.1 162.45 178.1 162.45 177.2 162.3 177.2 162.3 176.6 162.2 176.6 162.2 176.1 162.05 176.1
M 162.95 98.15
L 162.7 98.15 162.7 98 162.55 98 162.55 97.9 162.45 97.9 162.45 97.75 162.3 97.75 162.3 97.65 162.05 97.65 162.05 97.5 161.95 97.5 161.95 97.4 161.8 97.4 161.8 97.25 161.7 97.25 161.7 97.15 161.45 97.15 161.45 97 161.3 97 161.3 96.9 161.2 96.9 161.2 96.75 161.05 96.75 161.05 96.65 160.95 96.65 160.95 96.5 160.7 96.5 160.7 96.4 160.55 96.4 160.55 96.25 160.45 96.25 160.45 96.15 160.2 96.15 160.2 96 160.05 96 160.05 95.9 159.95 95.9 159.95 95.75 159.8 95.75 159.8 95.65 159.55 95.65 159.55 95.5 159.45 95.5 159.45 95.4 159.3 95.4 159.3 95.25 159.05 95.25 159.05 95.1 158.95 95.1 158.95 95 158.8 95 158.8 94.85 158.55 94.85 158.55 94.75 158.45 94.75 158.45 94.6 158.3 94.6 158.3 94.5 158.05 94.5 158.05 94.35 157.9 94.35 157.9 94.25 157.8 94.25 157.8 94.1 157.55 94.1 157.55 94 157.4 94 157.4 93.85 157.3 93.85 157.3 93.75 157.05 93.75 157.05 93.6 156.9 93.6 156.9 93.5 156.8 93.5 156.8 93.35 156.55 93.35 156.55 93.25 156.4 93.25 156.4 93.1 156.15 93.1 156.15 93 156.05 93 156.05 92.85 155.9 92.85 155.9 92.75 155.65 92.75 155.65 92.6 155.55 92.6 155.55 92.5 155.3 92.5 155.3 92.35 155.15 92.35 155.15 92.25 154.9 92.25 154.9 92.1 154.8 92.1 154.8 92 154.65 92 154.65 91.85 154.4 91.85 154.4 91.75 154.3 91.75 154.3 91.6 154.05 91.6 154.05 91.5 153.9 91.5 153.9 91.35 153.65 91.35 153.65 91.25 153.55 91.25 153.55 91.1 153.3 91.1 153.3 91 153.15 91 153.15 90.85 152.9 90.85 152.9 90.75 152.8 90.75 152.8 90.6 152.65 90.6 152.65 90.5 152.4 90.5 152.4 90.35 152.15 90.35 152.15 90.25 152.05 90.25 152.05 90.1 151.75 90.1 151.75 90 151.65 90 151.65 89.85 151.4 89.85 151.4 89.75 151.25 89.75 151.25 89.6 151 89.6 151 89.5 150.75 89.5 150.75 89.35 150.65 89.35 150.65 89.25 150.4 89.25 150.4 89.1 150.25 89.1 150.25 88.95 150 88.95 150 88.85 149.75 88.85 149.75 88.7 149.65 88.7 149.65 88.6 149.4 88.6 149.4 88.45 149.15 88.45 149.15 88.35 149 88.35 149 88.2 148.9 88.2 148.9 88.1 148.65 88.1 148.65 87.95 148.4 87.95 148.4 87.85 148.15 87.85 148.15 87.7 148 87.7 148 87.6 147.75 87.6 147.75 87.45 147.65 87.45 147.65 87.35 147.4 87.35 147.4 87.2 147.15 87.2 147.15 87.1 146.9 87.1 146.9 86.95 146.65 86.95 146.65 86.85 146.5 86.85 146.5 86.7 146.25 86.7 146.25 86.6 146 86.6 146 86.45 145.75 86.45 145.75 86.35 145.6 86.35 145.6 86.2 145.35 86.2 145.35 86.1 145.1 86.1 145.1 85.95 145 85.95 145 85.85 144.6 85.85 144.6 85.7 144.5 85.7 144.5 85.6 144.25 85.6 144.25 85.45 144 85.45 144 85.35 143.75 85.35 143.75 85.2 143.6 85.2 143.6 85.1 143.25 85.1 143.25 84.95 143 84.95 143 84.85 142.85 84.85 142.85 84.7 142.6 84.7 142.6 84.6 142.35 84.6 142.35 84.45 142.1 84.45 142.1 84.35 141.85 84.35 141.85 84.2 141.6 84.2 141.6 84.1 141.35 84.1 141.35 83.95 141.1 83.95 141.1 83.85 140.75 83.85 140.75 83.7 140.5 83.7 140.5 83.6 140.35 83.6 140.35 83.45 140.1 83.45 140.1 83.35 139.85 83.35 139.85 83.2 139.6 83.2 139.6 83.05 139.2 83.05 139.2 82.8 138.85 82.8 138.85 82.7 138.6 82.7 138.6 82.55 138.35 82.55 138.35 82.45 138.1 82.45 138.1 82.3 137.85 82.3 137.85 82.2 137.6 82.2 137.6 82.05 137.35 82.05 137.35 81.95 136.95 81.95 136.95 81.8 136.7 81.8 136.7 81.7 136.45 81.7 136.45 81.55 136.1 81.55 136.1 81.45 135.95 81.45 135.95 81.3 135.6 81.3 135.6 81.2 135.35 81.2 135.35 81.05 135.1 81.05 135.1 80.95 134.7 80.95 134.7 80.8 134.45 80.8 134.45 80.7 134.2 80.7 134.2 80.55 133.95 80.55 133.95 80.45 133.55 80.45 133.55 80.3 133.3 80.3 133.3 80.2 132.95 80.2 132.95 80.05 132.7 80.05 132.7 79.95 132.45 79.95 132.45 79.8 132.05 79.8 132.05 79.7 131.8 79.7 131.8 79.55 131.45 79.55 131.45 79.45 131.2 79.45 131.2 79.3 130.8 79.3 130.8 79.2 130.45 79.2 130.45 79.05 130.2 79.05 130.2 78.95 129.95 78.95 129.95 78.8 129.55 78.8 129.55 78.7 129.2 78.7 129.2 78.55 128.8 78.55 128.8 78.45 128.7 78.45 128.7 78.3 128.3 78.3 128.3 78.2 127.95 78.2 127.95 78.05 127.55 78.05 127.55 77.95 127.15 77.95 127.15 77.8 126.8 77.8 126.8 77.7 126.4 77.7 126.4 77.55 126.15 77.55 126.15 77.45 125.8 77.45 125.8 77.3 125.4 77.3 125.4 77.2 125.05 77.2 125.05 77.05 124.55 77.05 124.55 76.9 124.05 76.9 124.05 76.65 123.65 76.65 123.65 76.55 123.15 76.55 123.15 76.4 122.65 76.4 122.65 76.3 122.3 76.3 122.3 76.15 122.05 76.15 122.05 76.05 121.65 76.05 121.65 75.9 121.15 75.9 121.15 75.8 120.65 75.8 120.65 75.65 120.15 75.65 120.15 75.55 119.75 75.55 119.75 75.4 119.25 75.4 119.25 75.3 119 75.3 119 75.15 118.5 75.15 118.5 75.05 118 75.05 118 74.9 117.5 74.9 117.5 74.8 117 74.8 117 74.65 116.25 74.65 116.25 74.55 116.15 74.55 116.15 74.4 115.65 74.4 115.65 74.3 114.85 74.3 114.85 74.15 114.5 74.15 114.5 74.05 113.85 74.05 113.85 73.9 113.1 73.9 113.1 73.8 112.85 73.8 112.85 73.65 112.25 73.65 112.25 73.55 111.5 73.55 111.5 73.4 111 73.4 111 73.3 110.35 73.3 110.35 73.15 109.45 73.15 109.45 73.05 109.2 73.05 109.2 72.9 108.35 72.9 108.35 72.8 107.7 72.8 107.7 72.65 106.95 72.65 106.95 72.55 106.1 72.55 106.1 72.4 104.95 72.4 104.95 72.3 104.6 72.3 104.6 72.15 103.6 72.15 103.6 72.05 102.55 72.05 102.55 71.9 101.2 71.9 101.2 71.8 100.45 71.8 100.45 71.65 98.45 71.65 98.45 71.55 97.95 71.55 97.95 71.4 96.15 71.4 96.15 71.3 92.3 71.3 92.3 71.4 91.8 71.4 91.8 71.55 91.4 71.55 91.4 71.65 91 71.65 91 71.8 90.75 71.8 90.75 71.9 90.5 71.9 90.5 72.05 90.4 72.05 90.4 72.15 90.15 72.15 90.15 72.3 90 72.3 90 72.4 89.9 72.4 89.9 72.55 89.75 72.55 89.75 72.65 89.65 72.65 89.65 72.8 89.5 72.8 89.5 72.9 89.4 72.9 89.4 73.05 89.25 73.05 89.25 73.15 89.15 73.15 89.15 73.3 89 73.3 89 73.4 88.9 73.4 88.9 73.55 88.75 73.55 88.75 73.8 88.65 73.8 88.65 73.9 88.5 73.9 88.5 74.15 88.4 74.15 88.4 74.4 88.25 74.4 88.25 74.8 88.15 74.8 88.15 75.3 88 75.3 88 75.8 87.9 75.8 87.9 89.75 88 89.75 88 90 88.15 90 88.15 90.35 88.25 90.35 88.25 90.75 88.4 90.75 88.4 91 88.5 91 88.5 91.25 88.65 91.25 88.65 91.35 88.75 91.35 88.75 91.6 88.9 91.6 88.9 91.75 89 91.75 89 91.85 89.15 91.85 89.15 92 89.25 92 89.25 92.25 89.5 92.25 89.5 92.35 89.65 92.35 89.65 92.5 89.75 92.5 89.75 92.6 89.9 92.6 89.9 92.75 90 92.75 90 92.85 90.15 92.85 90.15 93 90.4 93 90.4 93.1 90.5 93.1 90.5 93.25 90.75 93.25 90.75 93.35 91.15 93.35 91.15 93.5 91.55 93.5 91.55 93.6 91.9 93.6 91.9 93.75 92.3 93.75 92.3 93.85 93.55 93.85 93.55 94 96.3 94 96.3 94.1 97.15 94.1 97.15 94.25 98.7 94.25 98.7 94.35 99.3 94.35 99.3 94.5 100.05 94.5 100.05 94.6 100.8 94.6 100.8 94.75 102.3 94.75 102.3 94.85 102.95 94.85 102.95 95 103.3 95 103.3 95.1 103.95 95.1 103.95 95.25 104.7 95.25 104.7 95.4 105.7 95.4 105.7 95.5 106.45 95.5 106.45 95.65 106.6 95.65 106.6 95.75 107.1 95.75 107.1 95.9 107.7 95.9 107.7 96 108.35 96 108.35 96.15 109.2 96.15 109.2 96.25 109.85 96.25 109.85 96.4 110.5 96.4 110.5 96.5 111 96.5 111 96.65 111.5 96.65 111.5 96.75 111.6 96.75 111.6 96.9 112.25 96.9 112.25 97 112.75 97 112.75 97.15 113.35 97.15 113.35 97.25 113.75 97.25 113.75 97.4 114.25 97.4 114.25 97.5 114.5 97.5 114.5 97.65 114.85 97.65 114.85 97.75 115.25 97.75 115.25 97.9 115.65 97.9 115.65 98 116.15 98 116.15 98.15 116.5 98.15 116.5 98.25 116.9 98.25 116.9 98.4 117.25 98.4 117.25 98.5 117.65 98.5 117.65 98.65 118.15 98.65 118.15 98.75 118.5 98.75 118.5 98.9 118.9 98.9 118.9 99 119.15 99 119.15 99.15 119.4 99.15 119.4 99.25 119.75 99.25 119.75 99.4 120.15 99.4 120.15 99.5 120.5 99.5 120.5 99.65 120.9 99.65 120.9 99.75 121.15 99.75 121.15 99.9 121.4 99.9 121.4 100 121.8 100 121.8 100.15 122.15 100.15 122.15 100.25 122.4 100.25 122.4 100.4 122.8 100.4 122.8 100.5 123.05 100.5 123.05 100.65 123.4 100.65 123.4 100.75 123.65 100.75 123.65 100.9 124.05 100.9 124.05 101 124.3 101 124.3 101.15 124.65 101.15 124.65 101.3 124.9 101.3 124.9 101.4 125.15 101.4 125.15 101.55 125.4 101.55 125.4 101.65 125.8 101.65 125.8 101.8 126.05 101.8 126.05 101.9 126.4 101.9 126.4 102.05 126.65 102.05 126.65 102.15 126.8 102.15 126.8 102.3 127.15 102.3 127.15 102.4 127.4 102.4 127.4 102.55 127.65 102.55 127.65 102.65 127.95 102.65 127.95 102.8 128.2 102.8 128.2 102.9 128.45 102.9 128.45 103.05 128.7 103.05 128.7 103.15 129.05 103.15 129.05 103.3 129.3 103.3 129.3 103.4 129.55 103.4 129.55 103.55 129.8 103.55 129.8 103.65 130.05 103.65 130.05 103.8 130.3 103.8 130.3 103.9 130.55 103.9 130.55 104.05 130.8 104.05 130.8 104.15 131.05 104.15 131.05 104.3 131.3 104.3 131.3 104.4 131.55 104.4 131.55 104.55 131.8 104.55 131.8 104.65 131.95 104.65 131.95 104.8 132.2 104.8 132.2 104.9 132.55 104.9 132.55 105.05 132.7 105.05 132.7 105.15 132.95 105.15 132.95 105.3 133.2 105.3 133.2 105.4 133.45 105.4 133.45 105.55 133.7 105.55 133.7 105.65 133.95 105.65 133.95 105.8 134.2 105.8 134.2 105.9 134.35 105.9 134.35 106.05 134.6 106.05 134.6 106.15 134.85 106.15 134.85 106.3 134.95 106.3 134.95 106.4 135.2 106.4 135.2 106.55 135.45 106.55 135.45 106.65 135.7 106.65 135.7 106.8 135.85 106.8 135.85 106.9 136.1 106.9 136.1 107.05 136.35 107.05 136.35 107.15 136.6 107.15 136.6 107.3 136.85 107.3 136.85 107.45 136.95 107.45 136.95 107.55 137.2 107.55 137.2 107.7 137.35 107.7 137.35 107.8 137.6 107.8 137.6 107.95 137.85 107.95 137.85 108.05 137.95 108.05 137.95 108.2 138.2 108.2 138.2 108.3 138.35 108.3 138.35 108.45 138.6 108.45 138.6 108.55 138.85 108.55 138.85 108.7 138.95 108.7 138.95 108.8 139.2 108.8 139.2 108.95 139.45 108.95 139.45 109.05 139.6 109.05 139.6 109.2 139.85 109.2 139.85 109.3 140 109.3 140 109.45 140.25 109.45 140.25 109.55 140.35 109.55 140.35 109.7 140.6 109.7 140.6 109.8 140.75 109.8 140.75 109.95 141 109.95 141 110.05 141.1 110.05 141.1 110.2 141.35 110.2 141.35 110.3 141.5 110.3 141.5 110.45 141.75 110.45 141.75 110.55 141.85 110.55 141.85 110.7 142.1 110.7 142.1 110.8 142.25 110.8 142.25 110.95 142.5 110.95 142.5 111.05 142.6 111.05 142.6 111.2 142.85 111.2 142.85 111.3 143 111.3 143 111.45 143.1 111.45 143.1 111.55 143.35 111.55 143.35 111.7 143.5 111.7 143.5 111.8 143.75 111.8 143.75 111.95 143.85 111.95 143.85 112.05 144 112.05 144 112.2 144.25 112.2 144.25 112.3 144.35 112.3 144.35 112.45 144.6 112.45 144.6 112.55 144.75 112.55 144.75 112.7 144.85 112.7 144.85 112.8 145.1 112.8 145.1 112.95 145.25 112.95 145.25 113.05 145.35 113.05 145.35 113.2 145.6 113.2 145.6 113.3 145.75 113.3 145.75 113.45 145.9 113.45 145.9 113.6 146.15 113.6 146.15 113.7 146.25 113.7 146.25 113.85 146.4 113.85 146.4 113.95 146.65 113.95 146.65 114.1 146.75 114.1 146.75 114.2 146.9 114.2 146.9 114.35 147 114.35 147 114.45 147.25 114.45 147.25 114.6 147.4 114.6 147.4 114.7 147.5 114.7 147.5 114.85 147.65 114.85 147.65 114.95 147.9 114.95 147.9 115.1 148 115.1 148 115.2 148.15 115.2 148.15 115.35 148.25 115.35 148.25 115.45 148.5 115.45 148.5 115.6 148.65 115.6 148.65 115.7 148.75 115.7 148.75 115.85 148.9 115.85 148.9 115.95 149 115.95 149 116.1 149.25 116.1 149.25 116.2 149.4 116.2 149.4 116.35 149.5 116.35 149.5 116.45 149.75 116.45 149.75 116.6 149.9 116.6 149.9 116.7 150 116.7 150 116.85 150.15 116.85 150.15 116.95 150.25 116.95 150.25 117.1 150.4 117.1 150.4 117.2 150.5 117.2 150.5 117.35 150.65 117.35 150.65 117.45 150.9 117.45 150.9 117.6 151 117.6 151 117.7 151.15 117.7 151.15 117.85 151.25 117.85 151.25 117.95 151.4 117.95 151.4 118.1 151.5 118.1 151.5 118.2 151.65 118.2 151.65 118.35 151.9 118.35 151.9 118.45 152.05 118.45 152.05 118.6 152.15 118.6 152.15 118.7 152.3 118.7 152.3 118.85 152.4 118.85 152.4 118.95 152.55 118.95 152.55 119.1 152.65 119.1 152.65 119.2 152.8 119.2 152.8 119.35 152.9 119.35 152.9 119.5 153.05 119.5 153.05 119.6 153.3 119.6 153.3 119.75 153.4 119.75 153.4 119.85 153.55 119.85 153.55 120 153.65 120 153.65 120.1 153.8 120.1 153.8 120.25 153.9 120.25 153.9 120.35 154.05 120.35 154.05 120.5 154.15 120.5 154.15 120.6 154.3 120.6 154.3 120.75 154.4 120.75 154.4 120.85 154.55 120.85 154.55 121 154.65 121 154.65 121.1 154.8 121.1 154.8 121.25 154.9 121.25 154.9 121.35 155.05 121.35 155.05 121.5 155.15 121.5 155.15 121.6 155.3 121.6 155.3 121.75 155.4 121.75 155.4 121.85 155.55 121.85 155.55 122 155.65 122 155.65 122.1 155.8 122.1 155.8 122.25 155.9 122.25 155.9 122.35 156.05 122.35 156.05 122.5 156.15 122.5 156.15 122.6 156.3 122.6 156.3 122.75 156.4 122.75 156.4 122.85 156.55 122.85 156.55 123 156.65 123 156.65 123.1 156.8 123.1 156.8 123.25 156.9 123.25 156.9 123.35 157.05 123.35 157.05 123.5 157.15 123.5 157.15 123.6 157.3 123.6 157.3 123.75 157.4 123.75 157.4 124 157.55 124 157.55 124.1 157.65 124.1 157.65 124.25 157.8 124.25 157.8 124.35 157.9 124.35 157.9 124.5 158.05 124.5 158.05 124.6 158.2 124.6 158.2 124.75 158.3 124.75 158.3 124.85 158.45 124.85 158.45 125 158.55 125 158.55 125.1 158.7 125.1 158.7 125.25 158.8 125.25 158.8 125.35 158.95 125.35 158.95 125.65 159.05 125.65 159.05 125.75 159.2 125.75 159.2 125.9 159.3 125.9 159.3 126 159.45 126 159.45 126.15 159.55 126.15 159.55 126.25 159.7 126.25 159.7 126.4 159.8 126.4 159.8 126.65 159.95 126.65 159.95 126.75 160.05 126.75 160.05 126.9 160.2 126.9 160.2 127 160.3 127 160.3 127.15 160.45 127.15 160.45 127.25 160.55 127.25 160.55 127.5 160.7 127.5 160.7 127.65 160.8 127.65 160.8 127.75 160.95 127.75 160.95 127.9 161.05 127.9 161.05 128 161.2 128 161.2 128.25 161.3 128.25 161.3 128.4 161.45 128.4 161.45 128.5 161.55 128.5 161.55 128.65 161.7 128.65 161.7 128.75 161.8 128.75 161.8 129 161.95 129 161.95 129.15 162.05 129.15 162.05 129.25 162.2 129.25 162.2 129.4 162.3 129.4 162.3 129.65 162.45 129.65 162.45 129.75 162.55 129.75 162.55 129.9 162.7 129.9 162.7 130 162.8 130 162.8 130.25 162.95 130.25 162.95 130.4 163.05 130.4 163.05 130.5 163.2 130.5 163.2 130.65 163.3 130.65 163.3 130.9 163.45 130.9 163.45 131 163.55 131 163.55 131.15 163.7 131.15 163.7 131.4 163.8 131.4 163.8 131.55 163.95 131.55 163.95 131.65 164.1 131.65 164.1 131.9 164.2 131.9 164.2 132.05 164.35 132.05 164.35 132.15 164.45 132.15 164.45 132.4 164.6 132.4 164.6 132.55 164.7 132.55 164.7 132.65 164.85 132.65 164.85 132.9 164.95 132.9 164.95 133.05 165.1 133.05 165.1 133.3 165.2 133.3 165.2 133.4 165.35 133.4 165.35 133.65 165.45 133.65 165.45 133.8 165.6 133.8 165.6 133.9 165.7 133.9 165.7 134.15 165.85 134.15 165.85 134.3 165.95 134.3 165.95 134.55 166.1 134.55 166.1 134.65 166.2 134.65 166.2 134.8 166.35 134.8 166.35 135.05 166.45 135.05 166.45 135.15 166.6 135.15 166.6 135.4 166.7 135.4 166.7 135.55 166.85 135.55 166.85 135.8 166.95 135.8 166.95 135.9 167.1 135.9 167.1 136.15 167.2 136.15 167.2 136.3 167.35 136.3 167.35 136.55 167.45 136.55 167.45 136.65 167.6 136.65 167.6 136.9 167.7 136.9 167.7 137.05 167.85 137.05 167.85 137.3 167.95 137.3 167.95 137.4 168.1 137.4 168.1 137.7 168.2 137.7 168.2 137.95 168.35 137.95 168.35 138.05 168.45 138.05 168.45 138.3 168.6 138.3 168.6 138.45 168.7 138.45 168.7 138.7 168.85 138.7 168.85 138.95 168.95 138.95 168.95 139.05 169.1 139.05 169.1 139.3 169.2 139.3 169.2 139.55 169.35 139.55 169.35 139.7 169.45 139.7 169.45 139.95 169.6 139.95 169.6 140.05 169.7 140.05 169.7 140.3 169.85 140.3 169.85 140.55 169.95 140.55 169.95 140.8 170.1 140.8 170.1 140.95 170.25 140.95 170.25 141.2 170.35 141.2 170.35 141.45 170.5 141.45 170.5 141.7 170.6 141.7 170.6 141.95 170.75 141.95 170.75 142.05 170.85 142.05 170.85 142.3 171 142.3 171 142.45 171.1 142.45 171.1 142.7 171.25 142.7 171.25 142.95 171.35 142.95 171.35 143.2 171.5 143.2 171.5 143.45 171.6 143.45 171.6 143.55 171.75 143.55 171.75 143.85 171.85 143.85 171.85 144.1 172 144.1 172 144.35 172.1 144.35 172.1 144.6 172.25 144.6 172.25 144.85 172.35 144.85 172.35 145.1 172.5 145.1 172.5 145.35 172.6 145.35 172.6 145.6 172.75 145.6 172.75 145.85 172.85 145.85 172.85 146.1 173 146.1 173 146.35 173.1 146.35 173.1 146.45 173.25 146.45 173.25 146.7 173.35 146.7 173.35 146.95 173.5 146.95 173.5 147.35 173.6 147.35 173.6 147.6 173.75 147.6 173.75 147.85 173.85 147.85 173.85 148.1 174 148.1 174 148.35 174.1 148.35 174.1 148.6 174.25 148.6 174.25 148.85 174.35 148.85 174.35 149.2 174.5 149.2 174.5 149.45 174.6 149.45 174.6 149.6 174.75 149.6 174.75 149.85 174.85 149.85 174.85 150.25 175 150.25 175 150.5 175.1 150.5 175.1 150.85 175.25 150.85 175.25 151.1 175.35 151.1 175.35 151.25 175.5 151.25 175.5 151.6 175.6 151.6 175.6 151.85 175.75 151.85 175.75 152.1 175.85 152.1 175.85 152.6 176 152.6 176 152.85 176.15 152.85 176.15 153 176.25 153 176.25 153.35 176.4 153.35 176.4 153.6 176.5 153.6 176.5 154 176.65 154 176.65 154.35 176.75 154.35 176.75 154.5 176.9 154.5 176.9 154.85 177 154.85 177 155.25 177.15 155.25 177.15 155.6 177.25 155.6 177.25 155.9 177.4 155.9 177.4 156.25 177.5 156.25 177.5 156.5 177.65 156.5 177.65 156.9 177.75 156.9 177.75 157.25 177.9 157.25 177.9 157.65 178 157.65 178 158 178.15 158 178.15 158.4 178.25 158.4 178.25 158.65 178.4 158.65 178.4 159 178.5 159 178.5 159.4 178.65 159.4 178.65 159.75 178.75 159.75 178.75 160.25 178.9 160.25 178.9 160.65 179 160.65 179 160.75 179.15 160.75 179.15 161.25 179.25 161.25 179.25 161.8 179.4 161.8 179.4 162.15 179.5 162.15 179.5 162.65 179.65 162.65 179.65 163.15 179.75 163.15 179.75 163.65 179.9 163.65 179.9 163.9 180 163.9 180 164.4 180.15 164.4 180.15 164.9 180.25 164.9 180.25 165.15 180.4 165.15 180.4 165.9 180.5 165.9 180.5 166.4 180.65 166.4 180.65 166.65 180.75 166.65 180.75 167.3 180.9 167.3 180.9 167.95 181 167.95 181 168.55 181.15 168.55 181.15 169.05 181.25 169.05 181.25 169.7 181.4 169.7 181.4 170.45 181.5 170.45 181.5 170.8 181.65 170.8 181.65 171.45 181.75 171.45 181.75 172.2 181.9 172.2 181.9 172.8 182 172.8 182 173.7 182.15 173.7 182.15 173.8 182.3 173.8 182.3 174.6 182.4 174.6 182.4 175.35 182.55 175.35 182.55 176.95 182.65 176.95 182.65 177.95 182.8 177.95 182.8 179.1 182.9 179.1 182.9 180.5 183.05 180.5 183.05 181.6 183.15 181.6 183.15 182.25 183.3 182.25 183.3 184.85 183.4 184.85 183.4 185.5 183.55 185.5 183.55 185.85 183.65 185.85 183.65 186 183.8 186 183.8 186.25 183.9 186.25 183.9 186.5 184.05 186.5 184.05 186.75 184.15 186.75 184.15 186.9 184.3 186.9 184.3 187.15 184.4 187.15 184.4 187.25 184.55 187.25 184.55 187.4 184.65 187.4 184.65 187.5 184.8 187.5 184.8 187.65 184.9 187.65 184.9 187.75 185.05 187.75 185.05 187.9 185.15 187.9 185.15 188 185.4 188 185.4 188.15 185.55 188.15 185.55 188.25 185.65 188.25 185.65 188.4 185.9 188.4 185.9 188.5 186.15 188.5 186.15 188.65 186.4 188.65 186.4 188.75 186.65 188.75 186.65 188.9 187.15 188.9 187.15 189 187.65 189 187.65 189.15 202 189.15 202 189 202.35 189 202.35 188.9 202.75 188.9 202.75 188.75 203 188.75 203 188.65 203.25 188.65 203.25 188.5 203.35 188.5 203.35 188.4 203.6 188.4 203.6 188.25 203.75 188.25 203.75 188.15 204 188.15 204 188 204.1 188 204.1 187.9 204.25 187.9 204.25 187.75 204.35 187.75 204.35 187.65 204.5 187.65 204.5 187.5 204.6 187.5 204.6 187.4 204.75 187.4 204.75 187.25 204.85 187.25 204.85 187.15 205 187.15 205 186.9 205.1 186.9 205.1 186.75 205.25 186.75 205.25 186.65 205.35 186.65 205.35 186.4 205.5 186.4 205.5 186.25 205.6 186.25 205.6 186 205.75 186 205.75 185.6 205.85 185.6 205.85 185.25 206 185.25 206 180.75 205.85 180.75 205.85 179.35 205.75 179.35 205.75 177.95 205.6 177.95 205.6 176.7 205.5 176.7 205.5 176.35 205.35 176.35 205.35 175.35 205.25 175.35 205.25 174.2 205.1 174.2 205.1 172.7 205 172.7 205 171.8 204.85 171.8 204.85 171.05 204.75 171.05 204.75 170.8 204.6 170.8 204.6 169.7 204.5 169.7 204.5 169.2 204.35 169.2 204.35 168.45 204.25 168.45 204.25 167.65 204.1 167.65 204.1 167.3 204 167.3 204 166.8 203.85 166.8 203.85 166.05 203.75 166.05 203.75 165.4 203.6 165.4 203.6 164.65 203.5 164.65 203.5 164.05 203.35 164.05 203.35 163.65 203.25 163.65 203.25 163.15 203.1 163.15 203.1 162.55 203 162.55 203 161.9 202.85 161.9 202.85 161.4 202.75 161.4 202.75 160.65 202.6 160.65 202.6 160 202.5 160 202.5 159.5 202.35 159.5 202.35 159.15 202.25 159.15 202.25 158.9 202.1 158.9 202.1 158.5 202 158.5 202 157.9 201.85 157.9 201.85 157.75 201.75 157.75 201.75 157.4 201.6 157.4 201.6 156.9 201.5 156.9 201.5 156.4 201.35 156.4 201.35 155.9 201.25 155.9 201.25 155.1 201.1 155.1 201.1 154.75 201 154.75 201 154.25 200.85 154.25 200.85 153.85 200.75 153.85 200.75 153.5 200.6 153.5 200.6 153.1 200.5 153.1 200.5 152.75 200.35 152.75 200.35 152.35 200.2 152.35 200.2 152 200.1 152 200.1 151.5 199.95 151.5 199.95 151.25 199.85 151.25 199.85 151 199.7 151 199.7 150.6 199.6 150.6 199.6 150.25 199.45 150.25 199.45 149.85 199.35 149.85 199.35 149.45 199.2 149.45 199.2 149.2 199.1 149.2 199.1 149.1 198.95 149.1 198.95 148.7 198.85 148.7 198.85 148.45 198.7 148.45 198.7 148.1 198.6 148.1 198.6 147.7 198.45 147.7 198.45 147.35 198.35 147.35 198.35 147.1 198.2 147.1 198.2 146.7 198.1 146.7 198.1 146.45 197.95 146.45 197.95 146.2 197.85 146.2 197.85 145.85 197.7 145.85 197.7 145.45 197.6 145.45 197.6 145.2 197.45 145.2 197.45 144.85 197.35 144.85 197.35 144.6 197.2 144.6 197.2 144.35 197.1 144.35 197.1 143.95 196.95 143.95 196.95 143.7 196.85 143.7 196.85 143.3 196.7 143.3 196.7 143.05 196.6 143.05 196.6 142.8 196.45 142.8 196.45 142.55 196.35 142.55 196.35 142.2 196.2 142.2 196.2 141.95 196.1 141.95 196.1 141.7 195.95 141.7 195.95 141.3 195.85 141.3 195.85 141.2 195.7 141.2 195.7 140.95 195.6 140.95 195.6 140.55 195.45 140.55 195.45 140.3 195.35 140.3 195.35 139.95 195.2 139.95 195.2 139.7 195.1 139.7 195.1 139.55 194.95 139.55 194.95 139.3 194.85 139.3 194.85 138.95 194.7 138.95 194.7 138.7 194.6 138.7 194.6 138.45 194.45 138.45 194.45 138.2 194.35 138.2 194.35 137.95 194.2 137.95 194.2 137.7 194.05 137.7 194.05 137.4 193.95 137.4 193.95 137.15 193.8 137.15 193.8 136.9 193.7 136.9 193.7 136.65 193.55 136.65 193.55 136.4 193.45 136.4 193.45 136.15 193.3 136.15 193.3 135.9 193.2 135.9 193.2 135.65 193.05 135.65 193.05 135.4 192.95 135.4 192.95 135.15 192.8 135.15 192.8 134.9 192.7 134.9 192.7 134.65 192.55 134.65 192.55 134.4 192.45 134.4 192.45 134.15 192.3 134.15 192.3 133.9 192.2 133.9 192.2 133.65 192.05 133.65 192.05 133.55 191.95 133.55 191.95 133.3 191.8 133.3 191.8 133.05 191.7 133.05 191.7 132.8 191.55 132.8 191.55 132.55 191.45 132.55 191.45 132.3 191.3 132.3 191.3 132.15 191.2 132.15 191.2 131.9 191.05 131.9 191.05 131.65 190.95 131.65 190.95 131.4 190.8 131.4 190.8 131.25 190.7 131.25 190.7 131 190.55 131 190.55 130.75 190.45 130.75 190.45 130.65 190.3 130.65 190.3 130.4 190.2 130.4 190.2 130.15 190.05 130.15 190.05 129.9 189.95 129.9 189.95 129.75 189.8 129.75 189.8 129.5 189.7 129.5 189.7 129.25 189.55 129.25 189.55 129.15 189.45 129.15 189.45 128.9 189.3 128.9 189.3 128.65 189.2 128.65 189.2 128.4 189.05 128.4 189.05 128.25 188.95 128.25 188.95 128 188.8 128 188.8 127.9 188.7 127.9 188.7 127.65 188.55 127.65 188.55 127.4 188.45 127.4 188.45 127.25 188.3 127.25 188.3 127 188.15 127 188.15 126.9 188.05 126.9 188.05 126.65 187.9 126.65 187.9 126.4 187.8 126.4 187.8 126.25 187.65 126.25 187.65 126 187.55 126 187.55 125.9 187.4 125.9 187.4 125.65 187.3 125.65 187.3 125.5 187.15 125.5 187.15 125.25 187.05 125.25 187.05 125.1 186.9 125.1 186.9 124.85 186.8 124.85 186.8 124.6 186.65 124.6 186.65 124.5 186.55 124.5 186.55 124.35 186.4 124.35 186.4 124.1 186.3 124.1 186.3 123.85 186.15 123.85 186.15 123.75 186.05 123.75 186.05 123.6 185.9 123.6 185.9 123.35 185.8 123.35 185.8 123.25 185.65 123.25 185.65 123 185.55 123 185.55 122.85 185.4 122.85 185.4 122.6 185.3 122.6 185.3 122.5 185.15 122.5 185.15 122.25 185.05 122.25 185.05 122.1 184.9 122.1 184.9 122 184.8 122 184.8 121.75 184.65 121.75 184.65 121.6 184.55 121.6 184.55 121.35 184.4 121.35 184.4 121.25 184.3 121.25 184.3 121.1 184.15 121.1 184.15 120.85 184.05 120.85 184.05 120.75 183.9 120.75 183.9 120.5 183.8 120.5 183.8 120.35 183.65 120.35 183.65 120.25 183.55 120.25 183.55 120 183.4 120 183.4 119.85 183.3 119.85 183.3 119.6 183.15 119.6 183.15 119.5 183.05 119.5 183.05 119.35 182.9 119.35 182.9 119.1 182.8 119.1 182.8 118.95 182.65 118.95 182.65 118.85 182.55 118.85 182.55 118.6 182.4 118.6 182.4 118.45 182.3 118.45 182.3 118.35 182.15 118.35 182.15 118.2 182 118.2 182 117.95 181.9 117.95 181.9 117.85 181.75 117.85 181.75 117.7 181.65 117.7 181.65 117.45 181.5 117.45 181.5 117.35 181.4 117.35 181.4 117.2 181.25 117.2 181.25 117.1 181.15 117.1 181.15 116.85 181 116.85 181 116.7 180.9 116.7 180.9 116.6 180.75 116.6 180.75 116.35 180.65 116.35 180.65 116.2 180.5 116.2 180.5 116.1 180.4 116.1 180.4 115.95 180.25 115.95 180.25 115.7 180.15 115.7 180.15 115.6 180 115.6 180 115.45 179.9 115.45 179.9 115.35 179.75 115.35 179.75 115.2 179.65 115.2 179.65 114.95 179.5 114.95 179.5 114.85 179.4 114.85 179.4 114.7 179.25 114.7 179.25 114.6 179.15 114.6 179.15 114.35 179 114.35 179 114.2 178.9 114.2 178.9 114.1 178.75 114.1 178.75 113.95 178.65 113.95 178.65 113.85 178.5 113.85 178.5 113.6 178.4 113.6 178.4 113.45 178.25 113.45 178.25 113.3 178.15 113.3 178.15 113.2 178 113.2 178 113.05 177.9 113.05 177.9 112.95 177.75 112.95 177.75 112.7 177.65 112.7 177.65 112.55 177.5 112.55 177.5 112.45 177.4 112.45 177.4 112.3 177.25 112.3 177.25 112.2 177.15 112.2 177.15 112.05 177 112.05 177 111.8 176.9 111.8 176.9 111.7 176.75 111.7 176.75 111.55 176.65 111.55 176.65 111.45 176.5 111.45 176.5 111.3 176.4 111.3 176.4 111.2 176.25 111.2 176.25 111.05 176.15 111.05 176.15 110.95 176 110.95 176 110.8 175.85 110.8 175.85 110.7 175.75 110.7 175.75 110.45 175.6 110.45 175.6 110.3 175.5 110.3 175.5 110.2 175.35 110.2 175.35 110.05 175.25 110.05 175.25 109.95 175.1 109.95 175.1 109.8 175 109.8 175 109.7 174.85 109.7 174.85 109.55 174.75 109.55 174.75 109.45 174.6 109.45 174.6 109.3 174.5 109.3 174.5 109.2 174.35 109.2 174.35 109.05 174.25 109.05 174.25 108.95 174.1 108.95 174.1 108.7 174 108.7 174 108.55 173.85 108.55 173.85 108.45 173.75 108.45 173.75 108.3 173.6 108.3 173.6 108.2 173.5 108.2 173.5 108.05 173.35 108.05 173.35 107.95 173.25 107.95 173.25 107.8 173.1 107.8 173.1 107.7 173 107.7 173 107.55 172.85 107.55 172.85 107.45 172.75 107.45 172.75 107.3 172.6 107.3 172.6 107.15 172.5 107.15 172.5 107.05 172.35 107.05 172.35 106.9 172.25 106.9 172.25 106.8 172.1 106.8 172.1 106.65 172 106.65 172 106.55 171.85 106.55 171.85 106.4 171.75 106.4 171.75 106.3 171.6 106.3 171.6 106.15 171.5 106.15 171.5 106.05 171.35 106.05 171.35 105.9 171.25 105.9 171.25 105.8 171.1 105.8 171.1 105.65 171 105.65 171 105.55 170.85 105.55 170.85 105.4 170.75 105.4 170.75 105.3 170.6 105.3 170.6 105.15 170.5 105.15 170.5 105.05 170.35 105.05 170.35 104.9 170.25 104.9 170.25 104.8 170.1 104.8 170.1 104.65 169.95 104.65 169.95 104.55 169.85 104.55 169.85 104.4 169.7 104.4 169.7 104.3 169.6 104.3 169.6 104.15 169.45 104.15 169.45 104.05 169.35 104.05 169.35 103.9 169.2 103.9 169.2 103.8 169.1 103.8 169.1 103.65 168.95 103.65 168.95 103.55 168.85 103.55 168.85 103.4 168.7 103.4 168.7 103.3 168.6 103.3 168.6 103.15 168.45 103.15 168.45 103.05 168.2 103.05 168.2 102.9 168.1 102.9 168.1 102.8 167.95 102.8 167.95 102.65 167.85 102.65 167.85 102.55 167.7 102.55 167.7 102.4 167.6 102.4 167.6 102.3 167.45 102.3 167.45 102.15 167.35 102.15 167.35 102.05 167.2 102.05 167.2 101.9 167.1 101.9 167.1 101.8 166.95 101.8 166.95 101.65 166.85 101.65 166.85 101.55 166.6 101.55 166.6 101.4 166.45 101.4 166.45 101.3 166.35 101.3 166.35 101.15 166.2 101.15 166.2 101 166.1 101 166.1 100.9 165.95 100.9 165.95 100.75 165.85 100.75 165.85 100.65 165.7 100.65 165.7 100.5 165.6 100.5 165.6 100.4 165.35 100.4 165.35 100.25 165.2 100.25 165.2 100.15 165.1 100.15 165.1 100 164.95 100 164.95 99.9 164.85 99.9 164.85 99.75 164.7 99.75 164.7 99.65 164.6 99.65 164.6 99.5 164.35 99.5 164.35 99.4 164.2 99.4 164.2 99.25 164.1 99.25 164.1 99.15 163.95 99.15 163.95 99 163.8 99 163.8 98.9 163.7 98.9 163.7 98.75 163.45 98.75 163.45 98.65 163.3 98.65 163.3 98.5 163.2 98.5 163.2 98.4 163.05 98.4 163.05 98.25 162.95 98.25 162.95 98.15 Z"/>

</svg>
