<?xml version="1.0" encoding="utf-8"?>
<!-- Generator: Adobe Illustrator 22.0.0, SVG Export Plug-In . SVG Version: 6.00 Build 0)  -->
<svg version="1.1" id="Layer_1" xmlns="http://www.w3.org/2000/svg" xmlns:xlink="http://www.w3.org/1999/xlink" x="0px" y="0px"
	 viewBox="0 0 500 329" style="enable-background:new 0 0 500 329;" xml:space="preserve">
<style type="text/css">
	.st0{fill:none;}
	.st1{fill:#FFFFFF;}
	.st2{fill:#D1D4FC;}
	.st3{fill:#B2B8FA;}
	.st4{fill:#FAFAFF;}
	.st5{fill:url(#XMLID_4_);}
	.st6{fill:#E0E3FD;}
	.st7{opacity:0.4;fill:#B2B8FA;}
	.st8{fill:#F0F1FE;}
	.st9{fill:#536DFE;}
	.st10{fill:#FFDFCC;}
	.st11{fill:#FFFFFF;stroke:#B6EAFF;stroke-miterlimit:10;}
	.st12{fill:#FF5F00;}
	.st13{fill:#FFDFD6;}
	.st14{fill:#FFCEBD;}
	.st15{fill:#FE5E31;}
	.st16{fill:#4D5068;}
	.st17{fill:#5361F0;}
	.st18{display:none;opacity:0.58;fill:url(#SVGID_1_);}
	.st19{opacity:0.15;}
	.st20{fill:#19103A;}
	.st21{opacity:0.3;fill:#30334F;}
	.st22{fill:#FFBBA1;}
	.st23{fill:#191C3C;}
	.st24{fill:url(#SVGID_2_);}
	.st25{opacity:0.1;fill:#A7A9AC;}
	.st26{fill:#C1C6FB;}
</style>
<pattern  y="-94" width="72" height="72" patternUnits="userSpaceOnUse" id="USGS_22_Gravel_Beach" viewBox="0.6 -72 72 72" style="overflow:visible;">
	<g>
		<rect x="0.6" y="-72" class="st0" width="72" height="72"/>
		<g>
			<path class="st1" d="M72.8-14c-0.1,0-0.2,0-0.3-0.1c-0.1-0.1-0.1-0.2-0.1-0.3c0-0.1,0-0.2,0.1-0.3c0.1-0.1,0.4-0.1,0.5,0
				c0.1,0.1,0.1,0.2,0.1,0.3c0,0.1,0,0.2-0.1,0.3C73-14.1,72.9-14,72.8-14z"/>
		</g>
		<g>
			<path class="st1" d="M21.3-68.8c-0.1,0-0.2,0-0.3-0.1C21-68.9,21-69,21-69.1s0-0.2,0.1-0.3c0.1-0.1,0.4-0.1,0.5,0
				c0.1,0.1,0.1,0.2,0.1,0.3s0,0.2-0.1,0.3C21.5-68.8,21.4-68.8,21.3-68.8z"/>
			<path class="st1" d="M20.3-63.5c-0.1,0-0.2,0-0.3-0.1C20-63.7,20-63.8,20-63.9c0-0.1,0-0.2,0.1-0.3c0.1-0.1,0.3-0.1,0.5,0
				c0.1,0.1,0.1,0.2,0.1,0.3c0,0.1,0,0.2-0.1,0.3C20.5-63.6,20.5-63.5,20.3-63.5z"/>
			<path class="st1" d="M20.6-61.3c-0.1,0-0.2,0-0.3-0.1c-0.1-0.1-0.1-0.2-0.1-0.3c0-0.1,0-0.2,0.1-0.3c0.1-0.1,0.4-0.1,0.5,0
				c0.1,0.1,0.1,0.2,0.1,0.3c0,0.1,0,0.2-0.1,0.3C20.8-61.3,20.7-61.3,20.6-61.3z"/>
			<path class="st1" d="M15.6-61.3c-0.1,0-0.2,0-0.3-0.1c-0.1-0.1-0.1-0.2-0.1-0.3c0-0.1,0-0.2,0.1-0.3c0.1-0.1,0.4-0.1,0.5,0
				c0.1,0.1,0.1,0.2,0.1,0.3c0,0.1,0,0.2-0.1,0.3C15.8-61.3,15.7-61.3,15.6-61.3z"/>
			<path class="st1" d="M23.1-51.8c-0.1,0-0.2,0-0.3-0.1c-0.1-0.1-0.1-0.2-0.1-0.3c0-0.1,0-0.2,0.1-0.3c0.1-0.1,0.4-0.1,0.5,0
				c0.1,0.1,0.1,0.2,0.1,0.3c0,0.1,0,0.2-0.1,0.3C23.3-51.8,23.2-51.8,23.1-51.8z"/>
			<path class="st1" d="M15.6-48.8c-0.1,0-0.2,0-0.3-0.1c-0.1-0.1-0.1-0.2-0.1-0.3c0-0.1,0-0.2,0.1-0.3c0.1-0.1,0.3-0.1,0.5,0
				c0.1,0.1,0.1,0.2,0.1,0.3c0,0.1,0,0.2-0.1,0.3C15.8-48.8,15.7-48.8,15.6-48.8z"/>
			<path class="st1" d="M14.3-47.8c-0.1,0-0.2,0-0.3-0.1C14-47.9,14-48,14-48.1c0-0.1,0-0.2,0.1-0.3c0.1-0.1,0.4-0.1,0.5,0
				c0.1,0.1,0.1,0.2,0.1,0.3c0,0.1,0,0.2-0.1,0.3C14.5-47.8,14.5-47.8,14.3-47.8z"/>
			<path class="st1" d="M24.3-44.8c-0.1,0-0.2,0-0.3-0.1C24-44.9,24-45,24-45.1c0-0.1,0-0.2,0.1-0.3c0.1-0.1,0.4-0.1,0.5,0
				c0.1,0.1,0.1,0.2,0.1,0.3c0,0.1,0,0.2-0.1,0.2C24.5-44.8,24.4-44.8,24.3-44.8z"/>
			<path class="st1" d="M31.1-46c-0.1,0-0.2,0-0.3-0.1c-0.1-0.1-0.1-0.2-0.1-0.3c0-0.1,0-0.2,0.1-0.3c0.1-0.1,0.4-0.1,0.5,0
				c0.1,0.1,0.1,0.2,0.1,0.3c0,0.1,0,0.2-0.1,0.3C31.3-46.1,31.2-46,31.1-46z"/>
			<path class="st1" d="M31.6-48.5c-0.1,0-0.2,0-0.3-0.1c-0.1-0.1-0.1-0.2-0.1-0.3c0-0.1,0-0.2,0.1-0.3c0.1-0.1,0.3-0.1,0.5,0
				c0.1,0.1,0.1,0.2,0.1,0.3c0,0.1,0,0.2-0.1,0.3C31.8-48.6,31.7-48.5,31.6-48.5z"/>
			<path class="st1" d="M29.6-53.5c-0.1,0-0.2,0-0.3-0.1c-0.1-0.1-0.1-0.2-0.1-0.3c0-0.1,0-0.2,0.1-0.3c0.1-0.1,0.4-0.1,0.5,0
				c0.1,0.1,0.1,0.2,0.1,0.3c0,0.1,0,0.2-0.1,0.3C29.8-53.6,29.7-53.5,29.6-53.5z"/>
			<path class="st1" d="M34.3-52c-0.1,0-0.2,0-0.3-0.1C34-52.2,34-52.3,34-52.4c0-0.1,0-0.2,0.1-0.3c0.1-0.1,0.4-0.1,0.5,0
				c0.1,0.1,0.1,0.2,0.1,0.3c0,0.1,0,0.2-0.1,0.3C34.5-52.1,34.4-52,34.3-52z"/>
			<path class="st1" d="M31.8-57c-0.1,0-0.2,0-0.3-0.1c-0.1-0.1-0.1-0.2-0.1-0.3c0-0.1,0-0.2,0.1-0.3c0.1-0.1,0.4-0.1,0.5,0
				c0.1,0.1,0.1,0.2,0.1,0.3c0,0.1,0,0.2-0.1,0.3C32-57.1,31.9-57,31.8-57z"/>
			<path class="st1" d="M32.1-60c-0.1,0-0.2,0-0.3-0.1c-0.1-0.1-0.1-0.2-0.1-0.3c0-0.1,0-0.2,0.1-0.3c0.1-0.1,0.4-0.1,0.5,0
				c0.1,0.1,0.1,0.2,0.1,0.3c0,0.1,0,0.2-0.1,0.3C32.3-60.1,32.2-60,32.1-60z"/>
			<path class="st1" d="M32.6-64.8c-0.1,0-0.2,0-0.3-0.1c-0.1-0.1-0.1-0.2-0.1-0.3s0-0.2,0.1-0.3c0.1-0.1,0.4-0.1,0.5,0
				c0.1,0.1,0.1,0.2,0.1,0.3s0,0.2-0.1,0.3C32.8-64.8,32.7-64.8,32.6-64.8z"/>
			<path class="st1" d="M32.3-68.8c-0.1,0-0.2,0-0.3-0.1C32-68.9,32-69,32-69.1c0-0.1,0-0.2,0.1-0.3c0.1-0.1,0.3-0.1,0.5,0
				c0.1,0.1,0.1,0.2,0.1,0.3c0,0.1,0,0.2-0.1,0.3C32.5-68.8,32.4-68.8,32.3-68.8z"/>
			<path class="st1" d="M34.3-70.5c-0.1,0-0.2,0-0.3-0.1C34-70.7,34-70.8,34-70.9c0-0.1,0-0.2,0.1-0.3c0.1-0.1,0.4-0.1,0.5,0
				c0.1,0.1,0.1,0.2,0.1,0.3c0,0.1,0,0.2-0.1,0.3C34.5-70.6,34.4-70.5,34.3-70.5z"/>
			<path class="st1" d="M41.8-64.8c-0.1,0-0.2,0-0.3-0.1c-0.1-0.1-0.1-0.2-0.1-0.3s0-0.2,0.1-0.3c0.2-0.1,0.4-0.1,0.5,0
				c0.1,0.1,0.1,0.2,0.1,0.3s0,0.2-0.1,0.3C42-64.8,41.9-64.8,41.8-64.8z"/>
			<path class="st1" d="M45.8-65c-0.1,0-0.2,0-0.3-0.1c-0.1-0.1-0.1-0.2-0.1-0.3s0-0.2,0.1-0.3c0.1-0.1,0.4-0.1,0.5,0
				c0.1,0.1,0.1,0.2,0.1,0.3s0,0.2-0.1,0.3C46-65.1,45.9-65,45.8-65z"/>
			<path class="st1" d="M42.8-58.3c-0.1,0-0.2,0-0.3-0.1c-0.1-0.1-0.1-0.2-0.1-0.3c0-0.1,0-0.2,0.1-0.3c0.1-0.1,0.3-0.1,0.5,0
				c0.1,0.1,0.1,0.2,0.1,0.3c0,0.1,0,0.2-0.1,0.3C43-58.3,42.9-58.3,42.8-58.3z"/>
			<path class="st1" d="M47.3-57.5c-0.1,0-0.2,0-0.3-0.1C47-57.7,47-57.8,47-57.9c0-0.1,0-0.2,0.1-0.3c0.1-0.1,0.3-0.1,0.5,0
				c0.1,0.1,0.1,0.2,0.1,0.3c0,0.1,0,0.2-0.1,0.2C47.5-57.6,47.4-57.5,47.3-57.5z"/>
			<path class="st1" d="M47.3-55.5c-0.1,0-0.2,0-0.3-0.1C47-55.7,47-55.8,47-55.9c0-0.1,0-0.2,0.1-0.3c0.1-0.1,0.4-0.1,0.5,0
				c0.1,0.1,0.1,0.2,0.1,0.3c0,0.1,0,0.2-0.1,0.2C47.5-55.6,47.4-55.5,47.3-55.5z"/>
			<path class="st1" d="M39.3-51c-0.1,0-0.2,0-0.3-0.1C39-51.2,39-51.3,39-51.4c0-0.1,0-0.2,0.1-0.3c0.1-0.1,0.4-0.1,0.5,0
				c0.1,0.1,0.1,0.2,0.1,0.3c0,0.1,0,0.2-0.1,0.3C39.5-51.1,39.4-51,39.3-51z"/>
			<path class="st1" d="M50.6-58.3c-0.1,0-0.2,0-0.3-0.1c-0.1-0.1-0.1-0.2-0.1-0.3c0-0.1,0-0.2,0.1-0.3c0.1-0.1,0.4-0.1,0.5,0
				c0.1,0.1,0.1,0.2,0.1,0.3c0,0.1,0,0.2-0.1,0.3C50.8-58.3,50.7-58.3,50.6-58.3z"/>
			<path class="st1" d="M52.6-59.8c-0.1,0-0.2,0-0.3-0.1c-0.1-0.1-0.1-0.2-0.1-0.2c0-0.1,0-0.2,0.1-0.3c0.1-0.1,0.3-0.1,0.5,0
				c0.1,0.1,0.1,0.2,0.1,0.3c0,0.1,0,0.2-0.1,0.3C52.8-59.8,52.7-59.8,52.6-59.8z"/>
			<path class="st1" d="M55.1-60.8c-0.1,0-0.2,0-0.3-0.1c-0.1-0.1-0.1-0.2-0.1-0.2c0-0.1,0-0.2,0.1-0.3c0.1-0.1,0.3-0.1,0.5,0
				c0.1,0.1,0.1,0.2,0.1,0.3c0,0.1,0,0.2-0.1,0.3C55.3-60.8,55.2-60.8,55.1-60.8z"/>
			<path class="st1" d="M56.8-71c-0.1,0-0.2,0-0.3-0.1c-0.1-0.1-0.1-0.2-0.1-0.3s0-0.2,0.1-0.3c0.1-0.1,0.4-0.1,0.5,0
				c0.1,0.1,0.1,0.2,0.1,0.2s0,0.2-0.1,0.3C57-71.1,56.9-71,56.8-71z"/>
			<path class="st1" d="M68.3-68.8c-0.1,0-0.2,0-0.3-0.1C68-68.9,68-69,68-69.1c0-0.1,0-0.2,0.1-0.3c0.1-0.1,0.3-0.1,0.5,0
				c0.1,0.1,0.1,0.2,0.1,0.3c0,0.1,0,0.2-0.1,0.3C68.5-68.8,68.5-68.8,68.3-68.8z"/>
			<path class="st1" d="M68.3-61.5c-0.1,0-0.2,0-0.3-0.1C68-61.7,68-61.8,68-61.9c0-0.1,0-0.2,0.1-0.3c0.1-0.1,0.4-0.1,0.5,0
				c0.1,0.1,0.1,0.2,0.1,0.3c0,0.1,0,0.2-0.1,0.3C68.5-61.6,68.4-61.5,68.3-61.5z"/>
			<path class="st1" d="M64.6-59.5c-0.1,0-0.2,0-0.3-0.1c-0.1-0.1-0.1-0.2-0.1-0.3c0-0.1,0-0.2,0.1-0.3c0.1-0.1,0.4-0.1,0.5,0
				c0.1,0.1,0.1,0.2,0.1,0.3c0,0.1,0,0.2-0.1,0.3C64.8-59.6,64.7-59.5,64.6-59.5z"/>
			<path class="st1" d="M65.6-56c-0.1,0-0.2,0-0.3-0.1c-0.1-0.1-0.1-0.2-0.1-0.3c0-0.1,0-0.2,0.1-0.3c0.1-0.1,0.4-0.1,0.5,0
				c0.1,0.1,0.1,0.2,0.1,0.3c0,0.1,0,0.2-0.1,0.3C65.8-56.1,65.7-56,65.6-56z"/>
			<path class="st1" d="M64.3-52c-0.1,0-0.2,0-0.3-0.1C64-52.2,64-52.3,64-52.4c0-0.1,0-0.2,0.1-0.3c0.1-0.1,0.4-0.1,0.5,0
				c0.1,0.1,0.1,0.2,0.1,0.3c0,0.1,0,0.2-0.1,0.3C64.5-52.1,64.4-52,64.3-52z"/>
			<path class="st1" d="M66.6-52c-0.1,0-0.2,0-0.3-0.1c-0.1-0.1-0.1-0.2-0.1-0.3c0-0.1,0-0.2,0.1-0.3c0.1-0.1,0.3-0.1,0.5,0
				c0.1,0.1,0.1,0.2,0.1,0.3c0,0.1,0,0.2-0.1,0.3C66.8-52.1,66.7-52,66.6-52z"/>
			<path class="st1" d="M68.3-50.5c-0.1,0-0.2,0-0.3-0.1C68-50.7,68-50.8,68-50.9c0-0.1,0-0.2,0.1-0.3c0.1-0.1,0.4-0.1,0.5,0
				c0.1,0.1,0.1,0.2,0.1,0.3c0,0.1,0,0.2-0.1,0.3C68.5-50.6,68.4-50.5,68.3-50.5z"/>
			<path class="st1" d="M7.3-19.5c-0.1,0-0.2,0-0.3-0.1C7-19.7,7-19.8,7-19.9s0-0.2,0.1-0.3c0.1-0.1,0.4-0.1,0.5,0
				c0.1,0.1,0.1,0.2,0.1,0.3s0,0.2-0.1,0.3C7.5-19.6,7.4-19.5,7.3-19.5z"/>
			<path class="st1" d="M7.6-17.3c-0.1,0-0.2,0-0.3-0.1c-0.1-0.1-0.1-0.2-0.1-0.3s0-0.2,0.1-0.3c0.1-0.1,0.4-0.1,0.5,0
				C7.9-17.8,8-17.7,8-17.6s0,0.2-0.1,0.3C7.8-17.3,7.7-17.3,7.6-17.3z"/>
			<path class="st1" d="M2.6-17.3c-0.1,0-0.2,0-0.3-0.1c-0.1-0.1-0.1-0.2-0.1-0.3s0-0.2,0.1-0.3c0.1-0.1,0.4-0.1,0.5,0
				C2.9-17.8,3-17.7,3-17.6s0,0.2-0.1,0.3C2.8-17.3,2.7-17.3,2.6-17.3z"/>
			<path class="st1" d="M10.1-7.8c-0.1,0-0.2,0-0.2-0.1C9.8-7.9,9.8-8,9.8-8.1s0-0.2,0.1-0.3c0.1-0.1,0.4-0.1,0.5,0
				c0.1,0.1,0.1,0.2,0.1,0.3s0,0.2-0.1,0.3C10.3-7.8,10.2-7.8,10.1-7.8z"/>
			<path class="st1" d="M1.3-3.8c-0.1,0-0.2,0-0.3-0.1C1-3.9,1-4,1-4.1s0-0.2,0.1-0.3c0.1-0.1,0.4-0.1,0.5,0
				c0.1,0.1,0.1,0.2,0.1,0.3s0,0.2-0.1,0.3C1.5-3.8,1.4-3.8,1.3-3.8z"/>
			<path class="st1" d="M11.3-0.8c-0.1,0-0.2,0-0.3-0.1C11-0.9,11-1,11-1.1c0-0.1,0-0.2,0.1-0.3c0.1-0.1,0.4-0.1,0.5,0
				c0.1,0.1,0.1,0.2,0.1,0.3c0,0.1,0,0.2-0.1,0.2C11.5-0.8,11.4-0.8,11.3-0.8z"/>
			<path class="st1" d="M18.6-4.5c-0.1,0-0.2,0-0.3-0.1c-0.1-0.1-0.1-0.2-0.1-0.3s0-0.2,0.1-0.3c0.1-0.1,0.4-0.1,0.5,0
				C18.9-5.1,19-5,19-4.9s0,0.2-0.1,0.3C18.8-4.6,18.7-4.5,18.6-4.5z"/>
			<path class="st1" d="M16.6-9.5c-0.1,0-0.2,0-0.3-0.1c-0.1-0.1-0.1-0.2-0.1-0.3c0-0.1,0-0.2,0.1-0.3c0.1-0.1,0.4-0.1,0.5,0
				C16.9-10.1,17-10,17-9.9c0,0.1,0,0.2-0.1,0.3C16.8-9.6,16.7-9.5,16.6-9.5z"/>
			<path class="st1" d="M19.8-14c-0.1,0-0.2,0-0.3-0.1c-0.1-0.1-0.1-0.2-0.1-0.3c0-0.1,0-0.2,0.1-0.3c0.1-0.1,0.4-0.1,0.5,0
				c0.1,0.1,0.1,0.2,0.1,0.3c0,0.1,0,0.2-0.1,0.3C20-14.1,19.9-14,19.8-14z"/>
			<path class="st1" d="M19.1-16c-0.1,0-0.2,0-0.3-0.1c-0.1-0.1-0.1-0.2-0.1-0.3c0-0.1,0-0.2,0.1-0.3c0.1-0.1,0.3-0.1,0.5,0
				c0.1,0.1,0.1,0.2,0.1,0.3c0,0.1,0,0.2-0.1,0.3C19.3-16.1,19.2-16,19.1-16z"/>
			<path class="st1" d="M16.6-17c-0.1,0-0.2,0-0.3-0.1c-0.1-0.1-0.1-0.2-0.1-0.3c0-0.1,0-0.2,0.1-0.3c0.1-0.1,0.3-0.1,0.5,0
				c0.1,0.1,0.1,0.2,0.1,0.3c0,0.1,0,0.2-0.1,0.3C16.8-17.1,16.7-17,16.6-17z"/>
			<path class="st1" d="M19.6-20.8c-0.1,0-0.2,0-0.3-0.1c-0.1-0.1-0.1-0.2-0.1-0.3c0-0.1,0-0.2,0.1-0.3c0.1-0.1,0.4-0.1,0.5,0
				c0.1,0.1,0.1,0.2,0.1,0.3c0,0.1,0,0.2-0.1,0.3C19.8-20.8,19.7-20.8,19.6-20.8z"/>
			<path class="st1" d="M19.3-24.8c-0.1,0-0.2,0-0.3-0.1C19-24.9,19-25,19-25.1s0-0.2,0.1-0.3c0.1-0.1,0.4-0.1,0.5,0
				c0.1,0.1,0.1,0.2,0.1,0.3s0,0.2-0.1,0.3C19.5-24.8,19.4-24.8,19.3-24.8z"/>
			<path class="st1" d="M16.6-24.5c-0.1,0-0.2,0-0.3-0.1c-0.1-0.1-0.1-0.2-0.1-0.3s0-0.2,0.1-0.3c0.1-0.1,0.4-0.1,0.5,0
				c0.1,0.1,0.1,0.2,0.1,0.3s0,0.2-0.1,0.3C16.8-24.6,16.7-24.5,16.6-24.5z"/>
			<path class="st1" d="M32.8-21c-0.1,0-0.2,0-0.3-0.1c-0.1-0.1-0.1-0.2-0.1-0.3c0-0.1,0-0.2,0.1-0.3c0.1-0.1,0.3-0.1,0.5,0
				c0.1,0.1,0.1,0.2,0.1,0.3c0,0.1,0,0.2-0.1,0.3C33-21.1,32.9-21,32.8-21z"/>
			<path class="st1" d="M27.6-17.5c-0.1,0-0.2,0-0.3-0.1c-0.1-0.1-0.1-0.2-0.1-0.3s0-0.2,0.1-0.3c0.1-0.1,0.4-0.1,0.5,0
				c0.1,0.1,0.1,0.2,0.1,0.3s0,0.2-0.1,0.3C27.8-17.6,27.7-17.5,27.6-17.5z"/>
			<path class="st1" d="M32.3-16c-0.1,0-0.2,0-0.3-0.1C32-16.2,32-16.3,32-16.4s0-0.2,0.1-0.3c0.1-0.1,0.4-0.1,0.5,0
				c0.1,0.1,0.1,0.2,0.1,0.3s0,0.2-0.1,0.3C32.5-16.1,32.4-16,32.3-16z"/>
			<path class="st1" d="M32.3-14.3c-0.1,0-0.2,0-0.2-0.1C32-14.4,32-14.5,32-14.6c0-0.1,0-0.2,0.1-0.3c0.1-0.1,0.4-0.1,0.5,0
				c0.1,0.1,0.1,0.2,0.1,0.3c0,0.1,0,0.2-0.1,0.3C32.5-14.3,32.4-14.3,32.3-14.3z"/>
			<path class="st1" d="M34.3-13.5c-0.1,0-0.2,0-0.3-0.1C34-13.7,34-13.8,34-13.9c0-0.1,0-0.2,0.1-0.3c0.1-0.1,0.4-0.1,0.5,0
				c0.1,0.1,0.1,0.2,0.1,0.3c0,0.1,0,0.2-0.1,0.3C34.5-13.6,34.4-13.5,34.3-13.5z"/>
			<path class="st1" d="M26.3-7c-0.1,0-0.2,0-0.3-0.1C26-7.2,26-7.3,26-7.4s0-0.2,0.1-0.3c0.1-0.1,0.4-0.1,0.5,0
				c0.1,0.1,0.1,0.2,0.1,0.3s0,0.2-0.1,0.3C26.5-7.1,26.4-7,26.3-7z"/>
			<path class="st1" d="M36.3-15.5c-0.1,0-0.2,0-0.3-0.1C36-15.7,36-15.8,36-15.9c0-0.1,0-0.2,0.1-0.3c0.2-0.1,0.4-0.1,0.5,0
				c0.1,0.1,0.1,0.2,0.1,0.3c0,0.1,0,0.2-0.1,0.3C36.5-15.6,36.4-15.5,36.3-15.5z"/>
			<path class="st1" d="M39.6-15.8c-0.1,0-0.2,0-0.2-0.1c-0.1-0.1-0.1-0.2-0.1-0.3s0-0.2,0.1-0.3c0.1-0.1,0.4-0.1,0.5,0
				c0.1,0.1,0.1,0.2,0.1,0.3s0,0.2-0.1,0.3C39.8-15.8,39.7-15.8,39.6-15.8z"/>
			<path class="st1" d="M42.1-21c-0.1,0-0.2,0-0.3-0.1c-0.1-0.1-0.1-0.2-0.1-0.3s0-0.2,0.1-0.3c0.1-0.1,0.4-0.1,0.5,0
				c0.1,0.1,0.1,0.2,0.1,0.3s0,0.2-0.1,0.3C42.3-21.1,42.2-21,42.1-21z"/>
			<path class="st1" d="M43.8-27c-0.1,0-0.2,0-0.3-0.1c-0.1-0.1-0.1-0.2-0.1-0.2s0-0.2,0.1-0.3c0.1-0.1,0.4-0.1,0.5,0
				c0.1,0.1,0.1,0.2,0.1,0.3s0,0.2-0.1,0.3C44-27.1,43.9-27,43.8-27z"/>
			<path class="st1" d="M51.3-21.3c-0.1,0-0.2,0-0.3-0.1C51-21.5,51-21.5,51-21.6s0-0.2,0.1-0.3c0.1-0.1,0.4-0.1,0.5,0
				c0.1,0.1,0.1,0.2,0.1,0.3s0,0.2-0.1,0.3C51.5-21.3,51.4-21.3,51.3-21.3z"/>
			<path class="st1" d="M52.3-25.3c-0.1,0-0.2,0-0.3-0.1C52-25.4,52-25.5,52-25.6c0-0.1,0-0.2,0.1-0.3c0.1-0.1,0.3-0.1,0.5,0
				c0.1,0.1,0.1,0.2,0.1,0.3c0,0.1,0,0.2-0.1,0.3C52.5-25.3,52.4-25.3,52.3-25.3z"/>
			<path class="st1" d="M55.3-24.8c-0.1,0-0.2,0-0.3-0.1C55-24.9,55-25,55-25.1s0-0.2,0.1-0.3c0.1-0.1,0.4-0.1,0.5,0
				c0.1,0.1,0.1,0.2,0.1,0.3c0,0.1,0,0.2-0.1,0.3C55.5-24.8,55.4-24.8,55.3-24.8z"/>
			<path class="st1" d="M55.3-17.5c-0.1,0-0.2,0-0.3-0.1C55-17.7,55-17.8,55-17.9c0-0.1,0-0.2,0.1-0.3c0.1-0.1,0.3-0.1,0.5,0
				c0.1,0.1,0.1,0.2,0.1,0.3c0,0.1,0,0.2-0.1,0.3C55.5-17.6,55.4-17.5,55.3-17.5z"/>
			<path class="st1" d="M51.6-15.5c-0.1,0-0.2,0-0.3-0.1c-0.1-0.1-0.1-0.2-0.1-0.3c0-0.1,0-0.2,0.1-0.3c0.1-0.1,0.4-0.1,0.5,0
				c0.1,0.1,0.1,0.2,0.1,0.3c0,0.1,0,0.2-0.1,0.3C51.8-15.6,51.7-15.5,51.6-15.5z"/>
			<path class="st1" d="M51.3-8c-0.1,0-0.2,0-0.3-0.1C51-8.2,51-8.3,51-8.4s0-0.2,0.1-0.2c0.2-0.2,0.4-0.1,0.5,0
				c0.1,0.1,0.1,0.2,0.1,0.3s0,0.2-0.1,0.3C51.5-8.1,51.5-8,51.3-8z"/>
			<path class="st1" d="M53.6-8c-0.1,0-0.2,0-0.3-0.1c-0.1-0.1-0.1-0.2-0.1-0.3c0-0.1,0-0.2,0.1-0.3c0.1-0.1,0.4-0.1,0.5,0
				C53.9-8.6,54-8.5,54-8.4c0,0.1,0,0.2-0.1,0.3C53.8-8.1,53.7-8,53.6-8z"/>
			<path class="st1" d="M56.3-8.8c-0.1,0-0.2,0-0.3-0.1C56-8.9,56-9,56-9.1s0-0.2,0.1-0.3c0.1-0.1,0.4-0.1,0.5,0
				c0.1,0.1,0.1,0.2,0.1,0.3s0,0.2-0.1,0.3C56.5-8.8,56.4-8.8,56.3-8.8z"/>
			<path class="st1" d="M58.6-10.3c-0.1,0-0.2,0-0.3-0.1c-0.1-0.1-0.1-0.2-0.1-0.2c0-0.1,0-0.2,0.1-0.3c0.1-0.1,0.4-0.1,0.5,0
				c0.1,0.1,0.1,0.2,0.1,0.3c0,0.1,0,0.2-0.1,0.3C58.8-10.3,58.7-10.3,58.6-10.3z"/>
			<path class="st1" d="M21.3-44.8c-0.1,0-0.2,0-0.3-0.1C21-44.9,21-45,21-45.1c0-0.1,0-0.2,0.1-0.3c0.1-0.1,0.4-0.1,0.5,0
				c0.1,0.1,0.1,0.2,0.1,0.3c0,0.1,0,0.2-0.1,0.3C21.5-44.8,21.4-44.8,21.3-44.8z"/>
			<path class="st1" d="M23.1-47.8c-0.1,0-0.2,0-0.3-0.1c-0.1-0.1-0.1-0.2-0.1-0.3c0-0.1,0-0.2,0.1-0.3c0.1-0.1,0.4-0.1,0.5,0
				c0.1,0.1,0.1,0.2,0.1,0.3c0,0.1,0,0.2-0.1,0.3C23.3-47.8,23.2-47.8,23.1-47.8z"/>
			<path class="st1" d="M39.3-47c-0.1,0-0.2,0-0.3-0.1C39-47.2,39-47.3,39-47.4c0-0.1,0-0.2,0.1-0.3c0.1-0.1,0.4-0.1,0.5,0
				c0.1,0.1,0.1,0.2,0.1,0.3c0,0.1,0,0.2-0.1,0.3C39.5-47.1,39.4-47,39.3-47z"/>
			<path class="st1" d="M46.6-42.8c-0.1,0-0.2,0-0.3-0.1c-0.1-0.1-0.1-0.2-0.1-0.3c0-0.1,0-0.2,0.1-0.2c0.2-0.2,0.4-0.1,0.5,0
				c0.1,0.1,0.1,0.2,0.1,0.3c0,0.1,0,0.2-0.1,0.3C46.8-42.8,46.7-42.8,46.6-42.8z"/>
			<path class="st1" d="M55.6-43.8c-0.1,0-0.2,0-0.3-0.1c-0.1-0.1-0.1-0.2-0.1-0.3c0-0.1,0-0.2,0.1-0.3c0.1-0.1,0.4-0.1,0.5,0
				c0.1,0.1,0.1,0.2,0.1,0.3c0,0.1,0,0.2-0.1,0.3C55.8-43.8,55.7-43.8,55.6-43.8z"/>
			<path class="st1" d="M51.6-46.5c-0.1,0-0.2,0-0.3-0.1c-0.1-0.1-0.1-0.2-0.1-0.3c0-0.1,0-0.2,0.1-0.3c0.1-0.1,0.4-0.1,0.5,0
				c0.1,0.1,0.1,0.2,0.1,0.3c0,0.1,0,0.2-0.1,0.3C51.8-46.6,51.7-46.5,51.6-46.5z"/>
			<path class="st1" d="M52.3-42.3c-0.1,0-0.2,0-0.3-0.1C52-42.4,52-42.5,52-42.6c0-0.1,0-0.2,0.1-0.3c0.1-0.1,0.4-0.1,0.5,0
				c0.1,0.1,0.1,0.2,0.1,0.3c0,0.1,0,0.2-0.1,0.3C52.5-42.3,52.4-42.3,52.3-42.3z"/>
			<path class="st1" d="M62.8-36.3c-0.1,0-0.2,0-0.3-0.1c-0.1-0.1-0.1-0.2-0.1-0.3c0-0.1,0-0.2,0.1-0.3c0.1-0.1,0.4-0.1,0.5,0
				c0.1,0.1,0.1,0.1,0.1,0.2c0,0.1,0,0.2-0.1,0.3C63-36.3,62.9-36.3,62.8-36.3z"/>
			<path class="st1" d="M57.1-32.8c-0.1,0-0.2,0-0.3-0.1c-0.1-0.1-0.1-0.2-0.1-0.3c0-0.1,0-0.2,0.1-0.3c0.1-0.1,0.4-0.1,0.5,0
				c0.1,0.1,0.1,0.2,0.1,0.3c0,0.1,0,0.2-0.1,0.3C57.3-32.8,57.2-32.8,57.1-32.8z"/>
			<path class="st1" d="M48.6-34.5c-0.1,0-0.2,0-0.2-0.1c-0.1-0.1-0.1-0.2-0.1-0.3c0-0.1,0-0.2,0.1-0.3c0.1-0.1,0.4-0.1,0.5,0
				c0.1,0.1,0.1,0.1,0.1,0.2c0,0.1,0,0.2-0.1,0.3C48.8-34.6,48.7-34.5,48.6-34.5z"/>
			<path class="st1" d="M48.3-30.5c-0.1,0-0.2,0-0.3-0.1C48-30.7,48-30.8,48-30.9s0-0.2,0.1-0.3c0.1-0.1,0.4-0.1,0.5,0
				c0.1,0.1,0.1,0.2,0.1,0.3s0,0.2-0.1,0.3C48.5-30.6,48.4-30.5,48.3-30.5z"/>
			<path class="st1" d="M53.8-26.8c-0.1,0-0.2,0-0.3-0.1c-0.1-0.1-0.1-0.1-0.1-0.2s0-0.2,0.1-0.3c0.1-0.1,0.3-0.1,0.5,0
				c0.1,0.1,0.1,0.2,0.1,0.3s0,0.2-0.1,0.3C54-26.8,53.9-26.8,53.8-26.8z"/>
			<path class="st1" d="M62.6-23.8c-0.1,0-0.2,0-0.3-0.1c-0.1-0.1-0.1-0.2-0.1-0.3c0-0.1,0-0.2,0.1-0.3c0.1-0.1,0.4-0.1,0.5,0
				c0.1,0.1,0.1,0.1,0.1,0.2c0,0.1,0,0.2-0.1,0.3C62.8-23.8,62.7-23.8,62.6-23.8z"/>
			<path class="st1" d="M65.3-20c-0.1,0-0.2,0-0.3-0.1C65-20.2,65-20.3,65-20.4c0-0.1,0-0.2,0.1-0.3c0.1-0.1,0.3-0.1,0.5,0
				c0.1,0.1,0.1,0.2,0.1,0.3c0,0.1,0,0.2-0.1,0.3C65.5-20.1,65.4-20,65.3-20z"/>
			<path class="st1" d="M69.8-26.8c-0.1,0-0.2,0-0.3-0.1c-0.1-0.1-0.1-0.2-0.1-0.3s0-0.2,0.1-0.3c0.1-0.1,0.4-0.1,0.5,0
				c0.1,0.1,0.1,0.2,0.1,0.3s0,0.2-0.1,0.3C70-26.8,69.9-26.8,69.8-26.8z"/>
			<path class="st1" d="M60.3-32.8c-0.1,0-0.2,0-0.3-0.1C60-32.9,60-33,60-33.1c0-0.1,0-0.2,0.1-0.3c0.1-0.1,0.3-0.1,0.5,0
				c0.1,0.1,0.1,0.2,0.1,0.3c0,0.1,0,0.2-0.1,0.3C60.5-32.8,60.5-32.8,60.3-32.8z"/>
			<path class="st1" d="M32.8-24.8c-0.1,0-0.2,0-0.3-0.1c-0.1-0.1-0.1-0.2-0.1-0.3s0-0.2,0.1-0.3c0.1-0.1,0.4-0.1,0.5,0
				c0.1,0.1,0.1,0.2,0.1,0.3s0,0.2-0.1,0.3C33-24.8,32.9-24.8,32.8-24.8z"/>
			<path class="st1" d="M26.6-34c-0.1,0-0.2,0-0.3-0.1c-0.1-0.1-0.1-0.2-0.1-0.3c0-0.1,0-0.2,0.1-0.3c0.1-0.1,0.4-0.1,0.5,0
				c0.1,0.1,0.1,0.2,0.1,0.3c0,0.1,0,0.2-0.1,0.3C26.8-34.1,26.7-34,26.6-34z"/>
			<path class="st1" d="M30.1-36.3c-0.1,0-0.2,0-0.2-0.1c-0.1-0.1-0.1-0.2-0.1-0.3c0-0.1,0-0.2,0.1-0.3c0.1-0.1,0.4-0.1,0.5,0
				c0.1,0.1,0.1,0.2,0.1,0.3c0,0.1,0,0.2-0.1,0.3C30.3-36.3,30.2-36.3,30.1-36.3z"/>
			<path class="st1" d="M10.8-42.3c-0.1,0-0.2,0-0.3-0.1c-0.1-0.1-0.1-0.2-0.1-0.3c0-0.1,0-0.2,0.1-0.3c0.1-0.1,0.4-0.1,0.5,0
				c0.1,0.1,0.1,0.2,0.1,0.3c0,0.1,0,0.2-0.1,0.3C11-42.3,10.9-42.3,10.8-42.3z"/>
			<path class="st1" d="M6.3-40.3c-0.1,0-0.2,0-0.3-0.1C6-40.4,6-40.5,6-40.6c0-0.1,0-0.2,0.1-0.3c0.1-0.1,0.4-0.1,0.5,0
				c0.1,0.1,0.1,0.2,0.1,0.3c0,0.1,0,0.2-0.1,0.3C6.5-40.3,6.4-40.3,6.3-40.3z"/>
			<path class="st1" d="M2.8-36.5c-0.1,0-0.2,0-0.3-0.1c-0.1-0.1-0.1-0.2-0.1-0.3c0-0.1,0-0.2,0.1-0.3c0.1-0.1,0.4-0.1,0.5,0
				c0.1,0.1,0.1,0.2,0.1,0.3c0,0.1,0,0.2-0.1,0.2C3-36.6,2.9-36.5,2.8-36.5z"/>
			<path class="st1" d="M17.3-29.8c-0.1,0-0.2,0-0.3-0.1C17-29.9,17-30,17-30.1c0-0.1,0-0.2,0.1-0.3c0.1-0.1,0.4-0.1,0.5,0
				c0.1,0.1,0.1,0.2,0.1,0.3c0,0.1,0,0.2-0.1,0.3C17.5-29.8,17.5-29.8,17.3-29.8z"/>
			<path class="st1" d="M13.1-35.8c-0.1,0-0.2,0-0.3-0.1c-0.1-0.1-0.1-0.2-0.1-0.3c0-0.1,0-0.2,0.1-0.3c0.1-0.1,0.3-0.1,0.5,0
				c0.1,0.1,0.1,0.2,0.1,0.3c0,0.1,0,0.2-0.1,0.3C13.3-35.8,13.2-35.8,13.1-35.8z"/>
			<path class="st1" d="M26.8-41.5c-0.1,0-0.2,0-0.3-0.1c-0.1-0.1-0.1-0.2-0.1-0.3c0-0.1,0-0.2,0.1-0.3c0.1-0.1,0.4-0.1,0.5,0
				c0.1,0.1,0.1,0.2,0.1,0.3c0,0.1,0,0.2-0.1,0.3C27-41.6,26.9-41.5,26.8-41.5z"/>
			<path class="st1" d="M39.6-41c-0.1,0-0.2,0-0.3-0.1c-0.1-0.1-0.1-0.2-0.1-0.3c0-0.1,0-0.2,0.1-0.3c0.1-0.1,0.4-0.1,0.5,0
				c0.1,0.1,0.1,0.2,0.1,0.3c0,0.1,0,0.2-0.1,0.3C39.8-41.1,39.7-41,39.6-41z"/>
			<path class="st1" d="M38.6-39c-0.1,0-0.2,0-0.3-0.1c-0.1-0.1-0.1-0.2-0.1-0.3c0-0.1,0-0.2,0.1-0.3c0.1-0.1,0.4-0.1,0.5,0
				c0.1,0.1,0.1,0.2,0.1,0.3c0,0.1,0,0.2-0.1,0.3C38.8-39.1,38.7-39,38.6-39z"/>
			<path class="st1" d="M28.3-29.8c-0.1,0-0.2,0-0.3-0.1C28-29.9,28-30,28-30.1s0-0.2,0.1-0.3c0.1-0.1,0.4-0.1,0.5,0
				c0.1,0.1,0.1,0.2,0.1,0.3s0,0.2-0.1,0.3C28.5-29.8,28.4-29.8,28.3-29.8z"/>
			<path class="st1" d="M6.8-51.3c-0.1,0-0.2,0-0.3-0.1c-0.1-0.1-0.1-0.2-0.1-0.3c0-0.1,0-0.2,0.1-0.3C6.7-52,7-52,7.1-51.9
				c0.1,0.1,0.1,0.2,0.1,0.3c0,0.1,0,0.2-0.1,0.3C7-51.3,6.9-51.3,6.8-51.3z"/>
			<path class="st1" d="M10.1-53c-0.1,0-0.2,0-0.2-0.1c-0.1-0.1-0.1-0.2-0.1-0.3c0-0.1,0-0.2,0.1-0.3c0.1-0.1,0.4-0.1,0.5,0
				c0.1,0.1,0.1,0.2,0.1,0.3c0,0.1,0,0.2-0.1,0.3C10.3-53.1,10.2-53,10.1-53z"/>
			<path class="st1" d="M12.1-48.3c-0.1,0-0.2,0-0.3-0.1c-0.1-0.1-0.1-0.2-0.1-0.3c0-0.1,0-0.2,0.1-0.3c0.1-0.1,0.3-0.1,0.5,0
				c0.1,0.1,0.1,0.2,0.1,0.3c0,0.1,0,0.2-0.1,0.3C12.3-48.3,12.2-48.3,12.1-48.3z"/>
			<path class="st1" d="M3.3-46c-0.1,0-0.2,0-0.3-0.1C3-46.2,3-46.3,3-46.4c0-0.1,0-0.2,0.1-0.3c0.1-0.1,0.4-0.1,0.5,0
				c0.1,0.1,0.1,0.2,0.1,0.3c0,0.1,0,0.2-0.1,0.3C3.5-46.1,3.4-46,3.3-46z"/>
			<path class="st1" d="M64.6-42.3c-0.1,0-0.2,0-0.2-0.1c-0.1-0.1-0.1-0.2-0.1-0.3c0-0.1,0-0.2,0.1-0.3c0.1-0.1,0.4-0.1,0.5,0
				c0.1,0.1,0.1,0.2,0.1,0.3c0,0.1,0,0.2-0.1,0.3C64.8-42.3,64.7-42.3,64.6-42.3z"/>
			<path class="st1" d="M69.8-42c-0.1,0-0.2,0-0.3-0.1c-0.1-0.1-0.1-0.2-0.1-0.3c0-0.1,0-0.2,0.1-0.3c0.1-0.1,0.3-0.1,0.5,0
				c0.1,0.1,0.1,0.2,0.1,0.3c0,0.1,0,0.2-0.1,0.3C70-42.1,70-42,69.8-42z"/>
			<path class="st1" d="M1.8-62.8c-0.1,0-0.2,0-0.3-0.1c-0.1-0.1-0.1-0.2-0.1-0.3c0-0.1,0-0.2,0.1-0.3c0.1-0.1,0.4-0.1,0.5,0
				c0.1,0.1,0.1,0.2,0.1,0.3c0,0.1,0,0.2-0.1,0.3C2-62.8,1.9-62.8,1.8-62.8z"/>
			<path class="st1" d="M16.8-65.8c-0.1,0-0.2,0-0.3-0.1c-0.1-0.1-0.1-0.2-0.1-0.3c0-0.1,0-0.2,0.1-0.3c0.1-0.1,0.4-0.1,0.5,0
				c0.1,0.1,0.1,0.2,0.1,0.3s0,0.2-0.1,0.3C17-65.8,16.9-65.8,16.8-65.8z"/>
			<path class="st1" d="M4.1-65.8c-0.1,0-0.2,0-0.2-0.1c-0.1-0.1-0.1-0.2-0.1-0.3s0-0.2,0.1-0.3c0.1-0.1,0.4-0.1,0.5,0
				c0.1,0.1,0.1,0.2,0.1,0.3s0,0.2-0.1,0.3C4.3-65.8,4.2-65.8,4.1-65.8z"/>
			<path class="st1" d="M13.1-57.5c-0.1,0-0.2,0-0.3-0.1c-0.1-0.1-0.1-0.2-0.1-0.3c0-0.1,0-0.2,0.1-0.3c0.1-0.1,0.4-0.1,0.5,0
				c0.1,0.1,0.1,0.2,0.1,0.3c0,0.1,0,0.2-0.1,0.3C13.3-57.6,13.2-57.5,13.1-57.5z"/>
			<path class="st1" d="M18.8-52.5c-0.1,0-0.2,0-0.3-0.1c-0.1-0.1-0.1-0.2-0.1-0.3c0-0.1,0-0.2,0.1-0.3c0.1-0.1,0.4-0.1,0.5,0
				c0.1,0.1,0.1,0.2,0.1,0.3c0,0.1,0,0.2-0.1,0.3C19-52.6,18.9-52.5,18.8-52.5z"/>
			<path class="st1" d="M21.6-34.8c-0.1,0-0.2,0-0.3-0.1c-0.1-0.1-0.1-0.2-0.1-0.3c0-0.1,0-0.2,0.1-0.3c0.1-0.1,0.4-0.1,0.5,0
				c0.1,0.1,0.1,0.2,0.1,0.3c0,0.1,0,0.2-0.1,0.3C21.8-34.8,21.7-34.8,21.6-34.8z"/>
			<path class="st1" d="M1.1-27.5c-0.1,0-0.2,0-0.3-0.1c-0.1-0.1-0.1-0.2-0.1-0.3c0-0.1,0-0.2,0.1-0.3c0.1-0.1,0.3-0.1,0.5,0
				c0.1,0.1,0.1,0.2,0.1,0.3c0,0.1,0,0.2-0.1,0.3C1.3-27.6,1.2-27.5,1.1-27.5z"/>
			<path class="st1" d="M68.3-5.8c-0.1,0-0.2,0-0.3-0.1C68-5.9,68-6,68-6.1c0-0.1,0-0.2,0.1-0.3c0.1-0.1,0.3-0.1,0.5,0
				c0.1,0.1,0.1,0.2,0.1,0.3c0,0.1,0,0.2-0.1,0.3C68.5-5.8,68.4-5.8,68.3-5.8z"/>
			<path class="st1" d="M60.1-2c-0.1,0-0.2,0-0.3-0.1c-0.1-0.1-0.1-0.2-0.1-0.3s0-0.2,0.1-0.3c0.1-0.1,0.4-0.1,0.5,0
				c0.1,0.1,0.1,0.2,0.1,0.3c0,0.1,0,0.2-0.1,0.3C60.3-2.1,60.2-2,60.1-2z"/>
			<path class="st1" d="M40.8-3.8c-0.1,0-0.2,0-0.3-0.1c-0.1-0.1-0.1-0.2-0.1-0.3s0-0.2,0.1-0.3c0.1-0.1,0.4-0.1,0.5,0
				c0.1,0.1,0.1,0.2,0.1,0.3s0,0.2-0.1,0.3C41-3.8,41-3.8,40.8-3.8z"/>
			<path class="st1" d="M4.8-11.8c-0.1,0-0.2,0-0.3-0.1c-0.1-0.1-0.1-0.2-0.1-0.3c0-0.1,0-0.2,0.1-0.3c0.1-0.1,0.4-0.1,0.5,0
				c0.1,0.1,0.1,0.2,0.1,0.3c0,0.1,0,0.2-0.1,0.3C5-11.8,4.9-11.8,4.8-11.8z"/>
			<path class="st1" d="M26.8-12.3c-0.1,0-0.2,0-0.3-0.1c-0.1-0.1-0.1-0.2-0.1-0.3c0-0.1,0-0.2,0.1-0.3c0.1-0.1,0.4-0.1,0.5,0
				c0.1,0.1,0.1,0.2,0.1,0.3c0,0.1,0,0.2-0.1,0.3C27-12.3,26.9-12.3,26.8-12.3z"/>
			<path class="st1" d="M37.6-23.3c-0.1,0-0.2,0-0.3-0.1c-0.1-0.1-0.1-0.2-0.1-0.3c0-0.1,0-0.2,0.1-0.3c0.1-0.1,0.4-0.1,0.5,0
				c0.1,0.1,0.1,0.2,0.1,0.3s0,0.2-0.1,0.3C37.8-23.3,37.7-23.3,37.6-23.3z"/>
			<path class="st1" d="M9.1-31.5c-0.1,0-0.2,0-0.3-0.1c-0.1-0.1-0.1-0.2-0.1-0.3s0-0.2,0.1-0.2c0.1-0.1,0.4-0.1,0.5,0
				c0.1,0.1,0.1,0.2,0.1,0.2s0,0.2-0.1,0.3C9.3-31.6,9.2-31.5,9.1-31.5z"/>
			<path class="st1" d="M52.6-33.8c-0.1,0-0.2,0-0.3-0.1c-0.1-0.1-0.1-0.2-0.1-0.2c0-0.1,0-0.2,0.1-0.3c0.1-0.1,0.3-0.1,0.5,0
				c0.1,0.1,0.1,0.2,0.1,0.3c0,0.1,0,0.2-0.1,0.3C52.8-33.8,52.7-33.8,52.6-33.8z"/>
			<path class="st1" d="M61.1-25.8c-0.1,0-0.2,0-0.3-0.1c-0.1-0.1-0.1-0.2-0.1-0.3c0-0.1,0-0.2,0.1-0.3c0.1-0.1,0.3-0.1,0.5,0
				c0.1,0.1,0.1,0.2,0.1,0.3c0,0.1,0,0.2-0.1,0.3C61.3-25.8,61.2-25.8,61.1-25.8z"/>
			<path class="st1" d="M51.6-5.5c-0.1,0-0.2,0-0.3-0.1c-0.1-0.1-0.1-0.2-0.1-0.3s0-0.2,0.1-0.3c0.1-0.1,0.4-0.1,0.5,0
				C51.9-6.1,52-6,52-5.9s0,0.2-0.1,0.3C51.8-5.6,51.7-5.5,51.6-5.5z"/>
			<path class="st1" d="M40.3-34c-0.1,0-0.2,0-0.3-0.1C40-34.2,40-34.3,40-34.4c0-0.1,0-0.2,0.1-0.3c0.2-0.1,0.4-0.1,0.5,0
				c0.1,0.1,0.1,0.2,0.1,0.3c0,0.1,0,0.2-0.1,0.3C40.5-34.1,40.4-34,40.3-34z"/>
			<path class="st1" d="M27.8-58.3c-0.1,0-0.2,0-0.3-0.1c-0.1-0.1-0.1-0.2-0.1-0.3c0-0.1,0-0.2,0.1-0.3c0.1-0.1,0.4-0.1,0.5,0
				c0.1,0.1,0.1,0.2,0.1,0.3c0,0.1,0,0.2-0.1,0.3C28-58.3,27.9-58.3,27.8-58.3z"/>
			<path class="st1" d="M20.1-45.3c-0.1,0-0.2,0-0.3-0.1c-0.1-0.1-0.1-0.2-0.1-0.3c0-0.1,0-0.2,0.1-0.3c0.1-0.1,0.4-0.1,0.5,0
				c0.1,0.1,0.1,0.2,0.1,0.3c0,0.1,0,0.2-0.1,0.3C20.3-45.3,20.2-45.3,20.1-45.3z"/>
			<path class="st1" d="M12.1-70c-0.1,0-0.2,0-0.3-0.1c-0.1-0.1-0.1-0.2-0.1-0.3s0-0.2,0.1-0.3c0.1-0.1,0.4-0.1,0.5,0
				c0.1,0.1,0.1,0.2,0.1,0.3s0,0.2-0.1,0.3C12.3-70.1,12.2-70,12.1-70z"/>
			<path class="st1" d="M55.6-68c-0.1,0-0.2,0-0.3-0.1c-0.1-0.1-0.1-0.2-0.1-0.3c0-0.1,0-0.2,0.1-0.3c0.1-0.1,0.3-0.1,0.5,0
				c0.1,0.1,0.1,0.2,0.1,0.3c0,0.1,0,0.2-0.1,0.3C55.8-68.1,55.7-68,55.6-68z"/>
			<path class="st1" d="M47.6-2c-0.1,0-0.2,0-0.3-0.1c-0.1-0.1-0.1-0.2-0.1-0.3c0-0.1,0-0.2,0.1-0.3c0.1-0.1,0.4-0.1,0.5,0
				C47.9-2.6,48-2.5,48-2.4s0,0.2-0.1,0.3C47.8-2.1,47.7-2,47.6-2z"/>
			<path class="st1" d="M5.1-31.5c-0.1,0-0.2,0-0.3-0.1c-0.1-0.1-0.1-0.2-0.1-0.3c0-0.1,0-0.2,0.1-0.2c0.1-0.1,0.3-0.1,0.5,0
				c0.1,0.1,0.1,0.2,0.1,0.2c0,0.1,0,0.2-0.1,0.3C5.3-31.6,5.2-31.5,5.1-31.5z"/>
			<path class="st1" d="M69.1-58.5c-0.1,0-0.2,0-0.3-0.1c-0.1-0.1-0.1-0.2-0.1-0.3c0-0.1,0-0.2,0.1-0.3c0.1-0.1,0.4-0.1,0.5,0
				c0.1,0.1,0.1,0.2,0.1,0.3c0,0.1,0,0.2-0.1,0.3C69.3-58.6,69.2-58.5,69.1-58.5z"/>
			<path class="st1" d="M23.6-57.8c-0.1,0-0.2,0-0.3-0.1c-0.1-0.1-0.1-0.2-0.1-0.3c0-0.1,0-0.2,0.1-0.3c0.1-0.1,0.4-0.1,0.5,0
				c0.1,0.1,0.1,0.2,0.1,0.3c0,0.1,0,0.2-0.1,0.3C23.8-57.8,23.7-57.8,23.6-57.8z"/>
			<path class="st1" d="M20.8-54.5c-0.1,0-0.2,0-0.3-0.1c-0.1-0.1-0.1-0.2-0.1-0.3c0-0.1,0-0.2,0.1-0.3c0.1-0.1,0.4-0.1,0.5,0
				c0.1,0.1,0.1,0.2,0.1,0.3c0,0.1,0,0.2-0.1,0.3C21-54.6,20.9-54.5,20.8-54.5z"/>
			<path class="st1" d="M15.1-54.5c-0.1,0-0.2,0-0.3-0.1c-0.1-0.1-0.1-0.2-0.1-0.3c0-0.1,0-0.2,0.1-0.3c0.1-0.1,0.3-0.1,0.5,0
				c0.1,0.1,0.1,0.2,0.1,0.3c0,0.1,0,0.2-0.1,0.3C15.3-54.6,15.2-54.5,15.1-54.5z"/>
			<path class="st1" d="M6.3-60c-0.1,0-0.2,0-0.3-0.1C6-60.2,6-60.3,6-60.4c0-0.1,0-0.2,0.1-0.3c0.1-0.1,0.4-0.1,0.5,0
				c0.1,0.1,0.1,0.2,0.1,0.3c0,0.1,0,0.2-0.1,0.3C6.5-60.1,6.4-60,6.3-60z"/>
			<path class="st1" d="M7.3-69c-0.1,0-0.2,0-0.2-0.1C7-69.2,7-69.3,7-69.4s0-0.2,0.1-0.3c0.1-0.1,0.4-0.1,0.5,0
				c0.1,0.1,0.1,0.2,0.1,0.3s0,0.2-0.1,0.3C7.5-69.1,7.4-69,7.3-69z"/>
			<path class="st1" d="M10.3-63.5c-0.1,0-0.2,0-0.3-0.1C10-63.7,10-63.8,10-63.9c0-0.1,0-0.2,0.1-0.3c0.1-0.1,0.4-0.1,0.5,0
				c0.1,0.1,0.1,0.2,0.1,0.3c0,0.1,0,0.2-0.1,0.3C10.5-63.6,10.4-63.5,10.3-63.5z"/>
			<path class="st1" d="M14.6-63.5c-0.1,0-0.2,0-0.3-0.1c-0.1-0.1-0.1-0.2-0.1-0.3c0-0.1,0-0.2,0.1-0.3c0.1-0.1,0.3-0.1,0.5,0
				c0.1,0.1,0.1,0.2,0.1,0.3c0,0.1,0,0.2-0.1,0.3C14.8-63.6,14.7-63.5,14.6-63.5z"/>
			<path class="st1" d="M26.1-64.8c-0.1,0-0.2,0-0.3-0.1c-0.1-0.1-0.1-0.2-0.1-0.3s0-0.2,0.1-0.3c0.1-0.1,0.4-0.1,0.5,0
				c0.1,0.1,0.1,0.2,0.1,0.3s0,0.2-0.1,0.3C26.3-64.8,26.2-64.8,26.1-64.8z"/>
			<path class="st1" d="M37.3-64.3c-0.1,0-0.2,0-0.3-0.1C37-64.4,37-64.5,37-64.6s0-0.2,0.1-0.3c0.1-0.1,0.4-0.1,0.5,0
				c0.1,0.1,0.1,0.2,0.1,0.3s0,0.2-0.1,0.3C37.5-64.3,37.4-64.3,37.3-64.3z"/>
			<path class="st1" d="M37.8-67.5c-0.1,0-0.2,0-0.3-0.1c-0.1-0.1-0.1-0.2-0.1-0.3c0-0.1,0-0.2,0.1-0.3c0.1-0.1,0.4-0.1,0.5,0
				c0.1,0.1,0.1,0.2,0.1,0.3c0,0.1,0,0.2-0.1,0.3C38-67.6,37.9-67.5,37.8-67.5z"/>
			<path class="st1" d="M43.6-69.5c-0.1,0-0.2,0-0.3-0.1c-0.1-0.1-0.1-0.2-0.1-0.3s0-0.2,0.1-0.3c0.1-0.1,0.4-0.1,0.5,0
				c0.1,0.1,0.1,0.2,0.1,0.3s0,0.2-0.1,0.3C43.8-69.6,43.7-69.5,43.6-69.5z"/>
			<path class="st1" d="M49.8-63.5c-0.1,0-0.2,0-0.3-0.1c-0.1-0.1-0.1-0.2-0.1-0.3c0-0.1,0-0.2,0.1-0.3c0.1-0.1,0.4-0.1,0.5,0
				c0.1,0.1,0.1,0.2,0.1,0.3c0,0.1,0,0.2-0.1,0.3C50-63.6,49.9-63.5,49.8-63.5z"/>
			<path class="st1" d="M46.3-62.5c-0.1,0-0.2,0-0.3-0.1C46-62.7,46-62.8,46-62.9c0-0.1,0-0.2,0.1-0.3c0.1-0.1,0.4-0.1,0.5,0
				c0.1,0.1,0.1,0.2,0.1,0.3c0,0.1,0,0.2-0.1,0.3C46.5-62.6,46.5-62.5,46.3-62.5z"/>
			<path class="st1" d="M36.1-60.8c-0.1,0-0.2,0-0.3-0.1c-0.1-0.1-0.1-0.2-0.1-0.3c0-0.1,0-0.2,0.1-0.3c0.1-0.1,0.4-0.1,0.5,0
				c0.1,0.1,0.1,0.2,0.1,0.3c0,0.1,0,0.2-0.1,0.3C36.3-60.8,36.2-60.8,36.1-60.8z"/>
			<path class="st1" d="M39.6-56.8c-0.1,0-0.2,0-0.3-0.1c-0.1-0.1-0.1-0.2-0.1-0.3c0-0.1,0-0.2,0.1-0.3c0.1-0.1,0.4-0.1,0.5,0
				c0.1,0.1,0.1,0.2,0.1,0.3c0,0.1,0,0.2-0.1,0.3C39.8-56.8,39.7-56.8,39.6-56.8z"/>
			<path class="st1" d="M25.1-53.8c-0.1,0-0.2,0-0.3-0.1c-0.1-0.1-0.1-0.2-0.1-0.3c0-0.1,0-0.2,0.1-0.3c0.1-0.1,0.4-0.1,0.5,0
				c0.1,0.1,0.1,0.2,0.1,0.3c0,0.1,0,0.2-0.1,0.3C25.3-53.8,25.2-53.8,25.1-53.8z"/>
			<path class="st1" d="M8.6-44.5c-0.1,0-0.2,0-0.3-0.1c-0.1-0.1-0.1-0.2-0.1-0.3c0-0.1,0-0.2,0.1-0.3c0.1-0.1,0.4-0.1,0.5,0
				C8.9-45.1,9-45,9-44.9c0,0.1,0,0.2-0.1,0.3C8.8-44.6,8.7-44.5,8.6-44.5z"/>
			<path class="st1" d="M16.3-40c-0.1,0-0.2,0-0.3-0.1C16-40.2,16-40.3,16-40.4c0-0.1,0-0.2,0.1-0.3c0.1-0.1,0.4-0.1,0.5,0
				c0.1,0.1,0.1,0.2,0.1,0.3c0,0.1,0,0.2-0.1,0.3C16.5-40.1,16.4-40,16.3-40z"/>
			<path class="st1" d="M10.8-38.3c-0.1,0-0.2,0-0.3-0.1c-0.1-0.1-0.1-0.2-0.1-0.3c0-0.1,0-0.2,0.1-0.3c0.1-0.1,0.3-0.1,0.5,0
				c0.1,0.1,0.1,0.2,0.1,0.3c0,0.1,0,0.2-0.1,0.3C11-38.3,10.9-38.3,10.8-38.3z"/>
			<path class="st1" d="M5.6-34.8c-0.1,0-0.2,0-0.3-0.1c-0.1-0.1-0.1-0.2-0.1-0.3c0-0.1,0-0.2,0.1-0.3c0.1-0.1,0.4-0.1,0.5,0
				C5.9-35.3,6-35.2,6-35.1c0,0.1,0,0.2-0.1,0.3C5.8-34.8,5.7-34.8,5.6-34.8z"/>
			<path class="st1" d="M3.6-51.3c-0.1,0-0.2,0-0.3-0.1c-0.1-0.1-0.1-0.2-0.1-0.3c0-0.1,0-0.2,0.1-0.3c0.1-0.1,0.4-0.1,0.5,0
				C3.9-51.8,4-51.7,4-51.6c0,0.1,0,0.2-0.1,0.3C3.8-51.3,3.7-51.3,3.6-51.3z"/>
			<path class="st1" d="M20.8-41c-0.1,0-0.2,0-0.3-0.1c-0.1-0.1-0.1-0.2-0.1-0.3c0-0.1,0-0.2,0.1-0.3c0.1-0.1,0.3-0.1,0.5,0
				c0.1,0.1,0.1,0.2,0.1,0.3c0,0.1,0,0.2-0.1,0.3C21-41.1,20.9-41,20.8-41z"/>
			<path class="st1" d="M17.8-36.3c-0.1,0-0.2,0-0.3-0.1c-0.1-0.1-0.1-0.2-0.1-0.3c0-0.1,0-0.2,0.1-0.3c0.1-0.1,0.4-0.1,0.5,0
				c0.1,0.1,0.1,0.2,0.1,0.3c0,0.1,0,0.2-0.1,0.3C18-36.3,17.9-36.3,17.8-36.3z"/>
			<path class="st1" d="M16.3-32.8c-0.1,0-0.2,0-0.3-0.1C16-32.9,16-33,16-33.1c0-0.1,0-0.2,0.1-0.3c0.1-0.1,0.3-0.1,0.5,0
				c0.1,0.1,0.1,0.2,0.1,0.3c0,0.1,0,0.2-0.1,0.3C16.5-32.8,16.5-32.8,16.3-32.8z"/>
			<path class="st1" d="M13.1-30.5c-0.1,0-0.2,0-0.3-0.1c-0.1-0.1-0.1-0.2-0.1-0.3c0-0.1,0-0.2,0.1-0.3c0.1-0.1,0.3-0.1,0.5,0
				c0.1,0.1,0.1,0.2,0.1,0.3c0,0.1,0,0.2-0.1,0.3C13.3-30.6,13.2-30.5,13.1-30.5z"/>
			<path class="st1" d="M13.1-25.3c-0.1,0-0.2,0-0.3-0.1c-0.1-0.1-0.1-0.2-0.1-0.3c0-0.1,0-0.2,0.1-0.3c0.1-0.1,0.3-0.1,0.5,0
				c0.1,0.1,0.1,0.2,0.1,0.3c0,0.1,0,0.2-0.1,0.3C13.3-25.3,13.2-25.3,13.1-25.3z"/>
			<path class="st1" d="M6.1-23.3c-0.1,0-0.2,0-0.3-0.1c-0.1-0.1-0.1-0.2-0.1-0.3s0-0.2,0.1-0.3C6-24,6.2-24,6.3-23.9
				c0.1,0.1,0.1,0.2,0.1,0.3s0,0.2-0.1,0.3C6.3-23.3,6.2-23.3,6.1-23.3z"/>
			<path class="st1" d="M11.3-17.3c-0.1,0-0.2,0-0.3-0.1C11-17.4,11-17.5,11-17.6s0-0.2,0.1-0.3c0.1-0.1,0.4-0.1,0.5,0
				c0.1,0.1,0.1,0.2,0.1,0.3s0,0.2-0.1,0.3C11.5-17.3,11.4-17.3,11.3-17.3z"/>
			<path class="st1" d="M15.8-13.3c-0.1,0-0.2,0-0.3-0.1c-0.1-0.1-0.1-0.2-0.1-0.3c0-0.1,0-0.2,0.1-0.3c0.1-0.1,0.4-0.1,0.5,0
				c0.1,0.1,0.1,0.2,0.1,0.3c0,0.1,0,0.2-0.1,0.3C16-13.3,15.9-13.3,15.8-13.3z"/>
			<path class="st1" d="M6.3-8.3c-0.1,0-0.2,0-0.3-0.1C6-8.4,6-8.5,6-8.6s0-0.2,0.1-0.3C6.2-9,6.5-9,6.6-8.9
				c0.1,0.1,0.1,0.2,0.1,0.3c0,0.1,0,0.2-0.1,0.3C6.5-8.3,6.4-8.3,6.3-8.3z"/>
			<path class="st1" d="M2.6-9.8c-0.1,0-0.2,0-0.3-0.1C2.3-9.9,2.3-10,2.3-10.1c0-0.1,0-0.2,0.1-0.3c0.1-0.1,0.4-0.1,0.5,0
				C2.9-10.3,3-10.2,3-10.1c0,0.1,0,0.2-0.1,0.3C2.8-9.8,2.7-9.8,2.6-9.8z"/>
			<path class="st1" d="M9.3-3.8c-0.1,0-0.2,0-0.3-0.1C9-3.9,9-4,9-4.1s0-0.2,0.1-0.3c0.1-0.1,0.4-0.1,0.5,0
				c0.1,0.1,0.1,0.2,0.1,0.3s0,0.2-0.1,0.3C9.5-3.8,9.5-3.8,9.3-3.8z"/>
			<path class="st1" d="M13.8-2.3c-0.1,0-0.2,0-0.3-0.1c-0.1-0.1-0.1-0.2-0.1-0.3s0-0.2,0.1-0.3C13.7-3,14-3,14.1-2.9
				c0.1,0.1,0.1,0.2,0.1,0.3s0,0.2-0.1,0.3C14-2.3,13.9-2.3,13.8-2.3z"/>
			<path class="st1" d="M21.8-3.3c-0.1,0-0.2,0-0.3-0.1c-0.1-0.1-0.1-0.2-0.1-0.3c0-0.1,0-0.2,0.1-0.3C21.7-4,22-4,22.1-3.9
				c0.1,0.1,0.1,0.2,0.1,0.3c0,0.1,0,0.2-0.1,0.3C22-3.3,21.9-3.3,21.8-3.3z"/>
			<path class="st1" d="M23.3-6c-0.1,0-0.2,0-0.3-0.1C23-6.2,23-6.3,23-6.4s0-0.2,0.1-0.3c0.1-0.1,0.4-0.1,0.5,0
				c0.1,0.1,0.1,0.2,0.1,0.3s0,0.2-0.1,0.3C23.5-6.1,23.5-6,23.3-6z"/>
			<path class="st1" d="M22.6-11.8c-0.1,0-0.2,0-0.3-0.1c-0.1-0.1-0.1-0.2-0.1-0.3c0-0.1,0-0.2,0.1-0.3c0.1-0.1,0.4-0.1,0.5,0
				c0.1,0.1,0.1,0.2,0.1,0.3c0,0.1,0,0.2-0.1,0.3C22.8-11.8,22.7-11.8,22.6-11.8z"/>
			<path class="st1" d="M24.6-14.3c-0.1,0-0.2,0-0.3-0.1c-0.1-0.1-0.1-0.2-0.1-0.3c0-0.1,0-0.2,0.1-0.3c0.1-0.1,0.4-0.1,0.5,0
				c0.1,0.1,0.1,0.2,0.1,0.3c0,0.1,0,0.2-0.1,0.3C24.8-14.3,24.7-14.3,24.6-14.3z"/>
			<path class="st1" d="M26.6-24c-0.1,0-0.2,0-0.3-0.1c-0.1-0.1-0.1-0.2-0.1-0.3s0-0.2,0.1-0.3c0.1-0.1,0.4-0.1,0.5,0
				c0.1,0.1,0.1,0.2,0.1,0.3s0,0.2-0.1,0.3C26.8-24.1,26.7-24,26.6-24z"/>
			<path class="st1" d="M26.1-28.3c-0.1,0-0.2,0-0.3-0.1c-0.1-0.1-0.1-0.2-0.1-0.3s0-0.2,0.1-0.3c0.1-0.1,0.4-0.1,0.5,0
				c0.1,0.1,0.1,0.2,0.1,0.3s0,0.2-0.1,0.3C26.3-28.3,26.2-28.3,26.1-28.3z"/>
			<path class="st1" d="M32.6-40.8c-0.1,0-0.2,0-0.3-0.1c-0.1-0.1-0.1-0.2-0.1-0.3c0-0.1,0-0.2,0.1-0.3c0.1-0.1,0.3-0.1,0.5,0
				c0.1,0.1,0.1,0.2,0.1,0.3c0,0.1,0,0.2-0.1,0.3C32.8-40.8,32.7-40.8,32.6-40.8z"/>
			<path class="st1" d="M34.6-44c-0.1,0-0.2,0-0.3-0.1c-0.1-0.1-0.1-0.2-0.1-0.3c0-0.1,0-0.2,0.1-0.3c0.1-0.1,0.4-0.1,0.5,0
				c0.1,0.1,0.1,0.2,0.1,0.3c0,0.1,0,0.2-0.1,0.3C34.8-44.1,34.7-44,34.6-44z"/>
			<path class="st1" d="M42.1-46c-0.1,0-0.2,0-0.3-0.1c-0.1-0.1-0.1-0.2-0.1-0.3c0-0.1,0-0.2,0.1-0.3c0.1-0.1,0.4-0.1,0.5,0
				c0.1,0.1,0.1,0.2,0.1,0.3c0,0.1,0,0.2-0.1,0.3C42.3-46.1,42.2-46,42.1-46z"/>
			<path class="st1" d="M43.3-51c-0.1,0-0.2,0-0.3-0.1C43-51.2,43-51.3,43-51.4c0-0.1,0-0.2,0.1-0.3c0.1-0.1,0.4-0.1,0.5,0
				c0.1,0.1,0.1,0.2,0.1,0.3c0,0.1,0,0.2-0.1,0.3C43.5-51.1,43.4-51,43.3-51z"/>
			<path class="st1" d="M36.8-52.5c-0.1,0-0.2,0-0.3-0.1c-0.1-0.1-0.1-0.2-0.1-0.3c0-0.1,0-0.2,0.1-0.2c0.2-0.2,0.4-0.1,0.5,0
				c0.1,0.1,0.1,0.2,0.1,0.3c0,0.1,0,0.2-0.1,0.3C37-52.6,36.9-52.5,36.8-52.5z"/>
			<path class="st1" d="M28.1-49.5c-0.1,0-0.2,0-0.3-0.1c-0.1-0.1-0.1-0.2-0.1-0.3c0-0.1,0-0.2,0.1-0.3c0.1-0.1,0.4-0.1,0.5,0
				c0.1,0.1,0.1,0.2,0.1,0.3c0,0.1,0,0.2-0.1,0.3C28.3-49.6,28.2-49.5,28.1-49.5z"/>
			<path class="st1" d="M52.3-49.8c-0.1,0-0.2,0-0.3-0.1C52-49.9,52-50,52-50.1c0-0.1,0-0.2,0.1-0.3c0.1-0.1,0.4-0.1,0.5,0
				c0.1,0.1,0.1,0.2,0.1,0.3c0,0.1,0,0.2-0.1,0.3C52.5-49.8,52.5-49.8,52.3-49.8z"/>
			<path class="st1" d="M43.6-54c-0.1,0-0.2,0-0.3-0.1c-0.1-0.1-0.1-0.2-0.1-0.3c0-0.1,0-0.2,0.1-0.3c0.1-0.1,0.4-0.1,0.5,0
				c0.1,0.1,0.1,0.2,0.1,0.3c0,0.1,0,0.2-0.1,0.3C43.8-54.1,43.7-54,43.6-54z"/>
			<path class="st1" d="M50.8-53.8c-0.1,0-0.2,0-0.3-0.1c-0.1-0.1-0.1-0.2-0.1-0.3c0-0.1,0-0.2,0.1-0.3c0.1-0.1,0.4-0.1,0.5,0
				c0.1,0.1,0.1,0.2,0.1,0.3c0,0.1,0,0.2-0.1,0.3C51-53.8,50.9-53.8,50.8-53.8z"/>
			<path class="st1" d="M59.8-54.5c-0.1,0-0.2,0-0.3-0.1c-0.1-0.1-0.1-0.2-0.1-0.3c0-0.1,0-0.2,0.1-0.3c0.1-0.1,0.3-0.1,0.5,0
				c0.1,0.1,0.1,0.2,0.1,0.3c0,0.1,0,0.2-0.1,0.3C60-54.6,59.9-54.5,59.8-54.5z"/>
			<path class="st1" d="M58.6-57.8c-0.1,0-0.2,0-0.3-0.1c-0.1-0.1-0.1-0.2-0.1-0.3c0-0.1,0-0.2,0.1-0.3c0.1-0.1,0.4-0.1,0.5,0
				c0.1,0.1,0.1,0.2,0.1,0.3c0,0.1,0,0.2-0.1,0.3C58.8-57.8,58.7-57.8,58.6-57.8z"/>
			<path class="st1" d="M61.8-60.8c-0.1,0-0.2,0-0.3-0.1c-0.1-0.1-0.1-0.2-0.1-0.3c0-0.1,0-0.2,0.1-0.3c0.1-0.1,0.4-0.1,0.5,0
				c0.1,0.1,0.1,0.1,0.1,0.2c0,0.1,0,0.2-0.1,0.3C62-60.8,61.9-60.8,61.8-60.8z"/>
			<path class="st1" d="M59.1-64.3c-0.1,0-0.2,0-0.3-0.1c-0.1-0.1-0.1-0.2-0.1-0.3s0-0.2,0.1-0.2c0.2-0.2,0.4-0.1,0.5,0
				c0.1,0.1,0.1,0.2,0.1,0.3c0,0.1,0,0.2-0.1,0.3C59.3-64.3,59.2-64.3,59.1-64.3z"/>
			<path class="st1" d="M60.3-67c-0.1,0-0.2,0-0.3-0.1C60-67.2,60-67.3,60-67.4c0-0.1,0-0.2,0.1-0.3c0.1-0.1,0.3-0.1,0.5,0
				c0.1,0.1,0.1,0.2,0.1,0.3c0,0.1,0,0.2-0.1,0.3C60.5-67.1,60.4-67,60.3-67z"/>
			<path class="st1" d="M67.8-65.8c-0.1,0-0.2,0-0.3-0.1c-0.1-0.1-0.1-0.2-0.1-0.3s0-0.2,0.1-0.3c0.1-0.1,0.4-0.1,0.5,0
				c0.1,0.1,0.1,0.2,0.1,0.3s0,0.2-0.1,0.3C68-65.8,67.9-65.8,67.8-65.8z"/>
			<path class="st1" d="M71.1-63.3c-0.1,0-0.2,0-0.3-0.1c-0.1-0.1-0.1-0.2-0.1-0.3c0-0.1,0-0.2,0.1-0.3c0.1-0.1,0.4-0.1,0.5,0
				c0.1,0.1,0.1,0.2,0.1,0.3c0,0.1,0,0.2-0.1,0.3C71.3-63.3,71.2-63.3,71.1-63.3z"/>
			<path class="st1" d="M66.1-62c-0.1,0-0.2,0-0.3-0.1c-0.1-0.1-0.1-0.2-0.1-0.3c0-0.1,0-0.2,0.1-0.3c0.1-0.1,0.4-0.1,0.5,0
				c0.1,0.1,0.1,0.2,0.1,0.3c0,0.1,0,0.2-0.1,0.3C66.3-62.1,66.2-62,66.1-62z"/>
			<path class="st1" d="M60.6-48c-0.1,0-0.2,0-0.3-0.1c-0.1-0.1-0.1-0.2-0.1-0.3c0-0.1,0-0.2,0.1-0.3c0.1-0.1,0.4-0.1,0.5,0
				c0.1,0.1,0.1,0.2,0.1,0.3c0,0.1,0,0.2-0.1,0.3C60.8-48.1,60.7-48,60.6-48z"/>
			<path class="st1" d="M55.8-48c-0.1,0-0.2,0-0.3-0.1c-0.1-0.1-0.1-0.2-0.1-0.3c0-0.1,0-0.2,0.1-0.3c0.1-0.1,0.4-0.1,0.5,0
				c0.1,0.1,0.1,0.2,0.1,0.3c0,0.1,0,0.2-0.1,0.3C56-48.1,55.9-48,55.8-48z"/>
			<path class="st1" d="M55.8-53c-0.1,0-0.2,0-0.3-0.1c-0.1-0.1-0.1-0.2-0.1-0.2c0-0.1,0-0.2,0.1-0.3c0.1-0.1,0.3-0.1,0.5,0
				c0.1,0.1,0.1,0.2,0.1,0.3c0,0.1,0,0.2-0.1,0.3C56-53.1,55.9-53,55.8-53z"/>
			<path class="st1" d="M65.3-46c-0.1,0-0.2,0-0.3-0.1C65-46.2,65-46.3,65-46.4c0-0.1,0-0.2,0.1-0.3c0.1-0.1,0.3-0.1,0.5,0
				c0.1,0.1,0.1,0.2,0.1,0.3c0,0.1,0,0.2-0.1,0.3C65.5-46.1,65.4-46,65.3-46z"/>
			<path class="st1" d="M58.1-41c-0.1,0-0.2,0-0.3-0.1c-0.1-0.1-0.1-0.2-0.1-0.2c0-0.1,0-0.2,0.1-0.3c0.1-0.1,0.3-0.1,0.5,0
				c0.1,0.1,0.1,0.2,0.1,0.3c0,0.1,0,0.2-0.1,0.3C58.3-41.1,58.2-41,58.1-41z"/>
			<path class="st1" d="M53.1-39c-0.1,0-0.2,0-0.3-0.1c-0.1-0.1-0.1-0.2-0.1-0.2c0-0.1,0-0.2,0.1-0.3c0.1-0.1,0.3-0.1,0.5,0
				c0.1,0.1,0.1,0.2,0.1,0.3c0,0.1,0,0.2-0.1,0.3C53.3-39.1,53.2-39,53.1-39z"/>
			<path class="st1" d="M47.8-38c-0.1,0-0.2,0-0.3-0.1c-0.1-0.1-0.1-0.2-0.1-0.2c0-0.1,0-0.2,0.1-0.3c0.1-0.1,0.3-0.1,0.5,0
				c0.1,0.1,0.1,0.2,0.1,0.3c0,0.1,0,0.2-0.1,0.3C48-38.1,47.9-38,47.8-38z"/>
			<path class="st1" d="M44.6-32.5c-0.1,0-0.2,0-0.3-0.1c-0.1-0.1-0.1-0.2-0.1-0.2c0-0.1,0-0.2,0.1-0.3c0.1-0.1,0.4-0.1,0.5,0
				c0.1,0.1,0.1,0.2,0.1,0.3c0,0.1,0,0.2-0.1,0.3C44.8-32.6,44.7-32.5,44.6-32.5z"/>
			<path class="st1" d="M34.3-30.3c-0.1,0-0.2,0-0.3-0.1C34-30.4,34-30.5,34-30.6s0-0.2,0.1-0.3c0.1-0.1,0.4-0.1,0.5,0
				c0.1,0.1,0.1,0.2,0.1,0.3s0,0.2-0.1,0.3C34.5-30.3,34.4-30.3,34.3-30.3z"/>
			<path class="st1" d="M41.1-23.8c-0.1,0-0.2,0-0.3-0.1c-0.1-0.1-0.1-0.2-0.1-0.3s0-0.2,0.1-0.3c0.1-0.1,0.4-0.1,0.5,0
				c0.1,0.1,0.1,0.2,0.1,0.3s0,0.2-0.1,0.3C41.3-23.8,41.2-23.8,41.1-23.8z"/>
			<path class="st1" d="M46.1-19.5c-0.1,0-0.2,0-0.3-0.1c-0.1-0.1-0.1-0.2-0.1-0.3c0-0.1,0-0.2,0.1-0.3c0.1-0.1,0.4-0.1,0.5,0
				c0.1,0.1,0.1,0.2,0.1,0.3c0,0.1,0,0.2-0.1,0.3C46.3-19.6,46.2-19.5,46.1-19.5z"/>
			<path class="st1" d="M46.8-15c-0.1,0-0.2,0-0.3-0.1c-0.1-0.1-0.1-0.2-0.1-0.3c0-0.1,0-0.2,0.1-0.3c0.2-0.1,0.4-0.1,0.5,0
				c0.1,0.1,0.1,0.2,0.1,0.3c0,0.1,0,0.2-0.1,0.3C47-15.1,46.9-15,46.8-15z"/>
			<path class="st1" d="M42.3-12.3c-0.1,0-0.2,0-0.2-0.1C42-12.4,42-12.5,42-12.6c0-0.1,0-0.2,0.1-0.3c0.1-0.1,0.4-0.1,0.5,0
				c0.1,0.1,0.1,0.2,0.1,0.3c0,0.1,0,0.2-0.1,0.3C42.5-12.3,42.4-12.3,42.3-12.3z"/>
			<path class="st1" d="M40.3-9c-0.1,0-0.2,0-0.3-0.1C40-9.2,40-9.3,40-9.4s0-0.2,0.1-0.3c0.1-0.1,0.4-0.1,0.5,0
				c0.1,0.1,0.1,0.2,0.1,0.3s0,0.2-0.1,0.3C40.5-9.1,40.5-9,40.3-9z"/>
			<path class="st1" d="M36.3-9c-0.1,0-0.2,0-0.3-0.1C36-9.2,36-9.3,36-9.4c0-0.1,0-0.2,0.1-0.3c0.1-0.1,0.3-0.1,0.5,0
				c0.1,0.1,0.1,0.2,0.1,0.3c0,0.1,0,0.2-0.1,0.3C36.5-9.1,36.4-9,36.3-9z"/>
			<path class="st1" d="M36.8-19c-0.1,0-0.2,0-0.3-0.1c-0.1-0.1-0.1-0.2-0.1-0.3s0-0.2,0.1-0.3c0.1-0.1,0.4-0.1,0.5,0
				c0.1,0.1,0.1,0.1,0.1,0.2c0,0.1,0,0.2-0.1,0.3C37-19.1,36.9-19,36.8-19z"/>
			<path class="st1" d="M30.3-8.3c-0.1,0-0.2,0-0.2-0.1C30-8.4,30-8.5,30-8.6c0-0.1,0-0.2,0.1-0.3c0.1-0.1,0.4-0.1,0.5,0
				c0.1,0.1,0.1,0.2,0.1,0.3c0,0.1,0,0.2-0.1,0.3C30.5-8.3,30.4-8.3,30.3-8.3z"/>
			<path class="st1" d="M31.8-3.3c-0.1,0-0.2,0-0.3-0.1c-0.1-0.1-0.1-0.2-0.1-0.3s0-0.2,0.1-0.3C31.7-4,32-4,32.1-3.9
				c0.1,0.1,0.1,0.2,0.1,0.3s0,0.2-0.1,0.3C32-3.3,31.9-3.3,31.8-3.3z"/>
			<path class="st1" d="M37.3-0.8c-0.1,0-0.2,0-0.3-0.1C37-0.9,37-1,37-1.1c0-0.1,0-0.2,0.1-0.3c0.1-0.1,0.4-0.1,0.5,0
				c0.1,0.1,0.1,0.2,0.1,0.3c0,0.1,0,0.2-0.1,0.2C37.5-0.8,37.4-0.8,37.3-0.8z"/>
			<path class="st1" d="M63.3-14.8c-0.1,0-0.2,0-0.3-0.1C63-14.9,63-15,63-15.1c0-0.1,0-0.2,0.1-0.3c0.1-0.1,0.3-0.1,0.5,0
				c0.1,0.1,0.1,0.2,0.1,0.3c0,0.1,0,0.2-0.1,0.3C63.5-14.8,63.4-14.8,63.3-14.8z"/>
			<path class="st1" d="M60.3-21c-0.1,0-0.2,0-0.3-0.1C60-21.2,60-21.3,60-21.4s0-0.2,0.1-0.3c0.1-0.1,0.3-0.1,0.5,0
				c0.1,0.1,0.1,0.2,0.1,0.3s0,0.2-0.1,0.3C60.5-21.1,60.5-21,60.3-21z"/>
			<path class="st1" d="M54.8-21.3c-0.1,0-0.2,0-0.3-0.1c-0.1-0.1-0.1-0.2-0.1-0.3s0-0.2,0.1-0.3c0.1-0.1,0.4-0.1,0.5,0
				c0.1,0.1,0.1,0.2,0.1,0.3s0,0.2-0.1,0.2C55-21.3,55-21.3,54.8-21.3z"/>
			<path class="st1" d="M55.1-30c-0.1,0-0.2,0-0.3-0.1c-0.1-0.1-0.1-0.2-0.1-0.2s0-0.2,0.1-0.3c0.1-0.1,0.4-0.1,0.5,0
				c0.1,0.1,0.1,0.2,0.1,0.3s0,0.2-0.1,0.3C55.3-30.1,55.2-30,55.1-30z"/>
			<path class="st1" d="M62.8-29.5c-0.1,0-0.2,0-0.3-0.1c-0.1-0.1-0.1-0.2-0.1-0.3s0-0.2,0.1-0.3c0.1-0.1,0.4-0.1,0.5,0
				c0.1,0.1,0.1,0.2,0.1,0.3s0,0.2-0.1,0.3C63-29.6,62.9-29.5,62.8-29.5z"/>
			<path class="st1" d="M67.3-24.3c-0.1,0-0.2,0-0.2-0.1C67-24.4,67-24.5,67-24.6s0-0.2,0.1-0.3c0.1-0.1,0.4-0.1,0.5,0
				c0.1,0.1,0.1,0.2,0.1,0.3s0,0.2-0.1,0.3C67.5-24.3,67.4-24.3,67.3-24.3z"/>
			<path class="st1" d="M69.8-17.5c-0.1,0-0.2,0-0.2-0.1c-0.1-0.1-0.1-0.2-0.1-0.3s0-0.2,0.1-0.3c0.1-0.1,0.4-0.1,0.5,0
				c0.1,0.1,0.1,0.2,0.1,0.3s0,0.2-0.1,0.3C70-17.6,69.9-17.5,69.8-17.5z"/>
			<path class="st1" d="M63.8-10c-0.1,0-0.2,0-0.2-0.1c-0.1-0.1-0.1-0.2-0.1-0.3c0-0.1,0-0.2,0.1-0.3c0.1-0.1,0.4-0.1,0.5,0
				c0.1,0.1,0.1,0.2,0.1,0.3c0,0.1,0,0.2-0.1,0.3C64-10.1,63.9-10,63.8-10z"/>
			<path class="st1" d="M70.6-10.8c-0.1,0-0.2,0-0.3-0.1c-0.1-0.1-0.1-0.2-0.1-0.3c0-0.1,0-0.2,0.1-0.3c0.1-0.1,0.3-0.1,0.5,0
				c0.1,0.1,0.1,0.2,0.1,0.3c0,0.1,0,0.2-0.1,0.3C70.8-10.8,70.7-10.8,70.6-10.8z"/>
			<path class="st1" d="M65.1-6.3c-0.1,0-0.2,0-0.3-0.1c-0.1-0.1-0.1-0.2-0.1-0.3s0-0.2,0.1-0.3C65-7,65.2-7,65.3-6.9
				c0.1,0.1,0.1,0.2,0.1,0.2s0,0.2-0.1,0.3C65.3-6.3,65.2-6.3,65.1-6.3z"/>
			<path class="st1" d="M66.1-3.5c-0.1,0-0.2,0-0.3-0.1c-0.1-0.1-0.1-0.2-0.1-0.3s0-0.2,0.1-0.3c0.1-0.1,0.4-0.1,0.5,0
				c0.1,0.1,0.1,0.2,0.1,0.3s0,0.2-0.1,0.3C66.3-3.6,66.2-3.5,66.1-3.5z"/>
			<path class="st1" d="M62.8-1.5c-0.1,0-0.2,0-0.3-0.1c-0.1-0.1-0.1-0.2-0.1-0.3c0-0.1,0-0.2,0.1-0.3c0.1-0.1,0.4-0.1,0.5,0
				c0.1,0.1,0.1,0.1,0.1,0.2c0,0.1,0,0.2-0.1,0.3C63-1.6,62.9-1.5,62.8-1.5z"/>
			<path class="st1" d="M53.1-2c-0.1,0-0.2,0-0.3-0.1c-0.1-0.1-0.1-0.2-0.1-0.3s0-0.2,0.1-0.3c0.1-0.1,0.4-0.1,0.5,0
				c0.1,0.1,0.1,0.2,0.1,0.3s0,0.2-0.1,0.3C53.3-2.1,53.2-2,53.1-2z"/>
			<path class="st1" d="M45.1-5.3c-0.1,0-0.2,0-0.3-0.1c-0.1-0.1-0.1-0.2-0.1-0.2c0-0.1,0-0.2,0.1-0.3C45-6,45.2-6,45.3-5.9
				c0.1,0.1,0.1,0.2,0.1,0.3c0,0.1,0,0.2-0.1,0.3C45.3-5.3,45.2-5.3,45.1-5.3z"/>
			<path class="st1" d="M28.8-0.5c-0.1,0-0.2,0-0.3-0.1c-0.1-0.1-0.1-0.2-0.1-0.3c0-0.1,0-0.2,0.1-0.2c0.1-0.1,0.3-0.1,0.5,0
				c0.1,0.1,0.1,0.2,0.1,0.2c0,0.1,0,0.2-0.1,0.3C29-0.6,28.9-0.5,28.8-0.5z"/>
			<path class="st1" d="M3.3-42.3c-0.1,0-0.2,0-0.3-0.1C3-42.4,3-42.5,3-42.6c0-0.1,0-0.2,0.1-0.3c0.1-0.1,0.4-0.1,0.5,0
				c0.1,0.1,0.1,0.2,0.1,0.3c0,0.1,0,0.2-0.1,0.3C3.5-42.3,3.4-42.3,3.3-42.3z"/>
			<path class="st1" d="M13.6-66.8c-0.1,0-0.2,0-0.3-0.1c-0.1-0.1-0.1-0.1-0.1-0.2c0-0.1,0-0.2,0.1-0.3c0.1-0.1,0.4-0.1,0.5,0
				c0.1,0.1,0.1,0.2,0.1,0.3c0,0.1,0,0.2-0.1,0.3C13.8-66.8,13.7-66.8,13.6-66.8z"/>
			<path class="st1" d="M70.6-37.3c-0.1,0-0.2,0-0.3-0.1c-0.1-0.1-0.1-0.2-0.1-0.3c0-0.1,0-0.2,0.1-0.3c0.1-0.1,0.3-0.1,0.5,0
				c0.1,0.1,0.1,0.2,0.1,0.3c0,0.1,0,0.2-0.1,0.3C70.8-37.3,70.7-37.3,70.6-37.3z"/>
			<path class="st1" d="M71.6-30.5c-0.1,0-0.2,0-0.3-0.1c-0.1-0.1-0.1-0.2-0.1-0.3s0-0.2,0.1-0.3c0.1-0.1,0.4-0.1,0.5,0
				c0.1,0.1,0.1,0.2,0.1,0.3s0,0.2-0.1,0.3C71.8-30.6,71.7-30.5,71.6-30.5z"/>
			<path class="st1" d="M1.3-20c-0.1,0-0.2,0-0.3-0.1C1-20.2,1-20.3,1-20.4c0-0.1,0-0.2,0.1-0.3c0.1-0.1,0.3-0.1,0.5,0
				c0.1,0.1,0.1,0.2,0.1,0.3c0,0.1,0,0.2-0.1,0.3C1.5-20.1,1.4-20,1.3-20z"/>
			<path class="st1" d="M72.3-48.3c-0.1,0-0.2,0-0.3-0.1C72-48.4,72-48.5,72-48.6c0-0.1,0-0.2,0.1-0.3c0.1-0.1,0.4-0.1,0.5,0
				c0.1,0.1,0.1,0.2,0.1,0.3c0,0.1,0,0.2-0.1,0.3C72.5-48.3,72.4-48.3,72.3-48.3z"/>
			<path class="st1" d="M69.3-45.3c-0.1,0-0.2,0-0.3-0.1C69-45.4,69-45.5,69-45.6c0-0.1,0-0.2,0.1-0.3c0.1-0.1,0.4-0.1,0.5,0
				c0.1,0.1,0.1,0.2,0.1,0.3c0,0.1,0,0.2-0.1,0.3C69.5-45.3,69.4-45.3,69.3-45.3z"/>
			<path class="st1" d="M68.8-11.5c-0.1,0-0.2,0-0.3-0.1c-0.1-0.1-0.1-0.2-0.1-0.3c0-0.1,0-0.2,0.1-0.3c0.1-0.1,0.4-0.1,0.5,0
				c0.1,0.1,0.1,0.2,0.1,0.3c0,0.1,0,0.2-0.1,0.3C69-11.6,68.9-11.5,68.8-11.5z"/>
			<path class="st1" d="M71.8-3.5c-0.1,0-0.2,0-0.3-0.1c-0.1-0.1-0.1-0.2-0.1-0.3s0-0.2,0.1-0.3c0.1-0.1,0.4-0.1,0.5,0
				c0.1,0.1,0.1,0.2,0.1,0.3s0,0.2-0.1,0.3C72-3.6,71.9-3.5,71.8-3.5z"/>
			<path class="st1" d="M0.8-14c-0.1,0-0.2,0-0.3-0.1c-0.1-0.1-0.1-0.2-0.1-0.3c0-0.1,0-0.2,0.1-0.3c0.1-0.1,0.4-0.1,0.5,0
				c0.1,0.1,0.1,0.2,0.1,0.3c0,0.1,0,0.2-0.1,0.3C1-14.1,0.9-14,0.8-14z"/>
			<path class="st1" d="M3.1-0.5c-0.1,0-0.2,0-0.3-0.1C2.8-0.7,2.8-0.8,2.8-0.9c0-0.1,0-0.2,0.1-0.2c0.1-0.1,0.4-0.1,0.5,0
				C3.4-1.1,3.5-1,3.5-0.9c0,0.1,0,0.2-0.1,0.3C3.3-0.6,3.2-0.5,3.1-0.5z"/>
			<path class="st1" d="M70.6-47.8c-0.1,0-0.2,0-0.3-0.1c-0.1-0.1-0.1-0.2-0.1-0.3c0-0.1,0-0.2,0.1-0.3c0.1-0.1,0.3-0.1,0.5,0
				c0.1,0.1,0.1,0.2,0.1,0.3c0,0.1,0,0.2-0.1,0.3C70.8-47.8,70.7-47.8,70.6-47.8z"/>
			<path class="st1" d="M1.6-55c-0.1,0-0.2,0-0.3-0.1c-0.1-0.1-0.1-0.2-0.1-0.3c0-0.1,0-0.2,0.1-0.3c0.1-0.1,0.4-0.1,0.5,0
				C1.9-55.6,2-55.5,2-55.4c0,0.1,0,0.2-0.1,0.3C1.8-55.1,1.7-55,1.6-55z"/>
			<path class="st1" d="M18.3-58.7c-0.2,0-0.3-0.1-0.5-0.2c-0.1-0.1-0.2-0.3-0.2-0.5c0-0.2,0.1-0.3,0.2-0.5c0.2-0.2,0.7-0.2,0.9,0
				c0.1,0.1,0.2,0.3,0.2,0.5c0,0.2-0.1,0.3-0.2,0.5C18.7-58.8,18.5-58.7,18.3-58.7z"/>
			<path class="st1" d="M29.6-60.7c-0.2,0-0.3-0.1-0.5-0.2C29-61,29-61.2,29-61.4c0-0.2,0.1-0.3,0.2-0.5c0.3-0.3,0.7-0.2,0.9,0
				c0.1,0.1,0.2,0.3,0.2,0.5c0,0.2-0.1,0.3-0.2,0.5C29.9-60.8,29.8-60.7,29.6-60.7z"/>
			<path class="st1" d="M29.6-68.2c-0.2,0-0.3-0.1-0.5-0.2C29-68.5,29-68.7,29-68.9c0-0.2,0.1-0.3,0.2-0.5c0.2-0.2,0.7-0.2,0.9,0
				c0.1,0.1,0.2,0.3,0.2,0.5s-0.1,0.3-0.2,0.5C29.9-68.3,29.8-68.2,29.6-68.2z"/>
			<path class="st1" d="M40.6-61.2c-0.2,0-0.3-0.1-0.5-0.2C40-61.5,40-61.7,40-61.9c0-0.2,0.1-0.3,0.2-0.5c0.2-0.2,0.7-0.2,0.9,0
				c0.1,0.1,0.2,0.3,0.2,0.5c0,0.2-0.1,0.3-0.2,0.5C40.9-61.3,40.8-61.2,40.6-61.2z"/>
			<path class="st1" d="M45.3-59.7c-0.2,0-0.3-0.1-0.5-0.2c-0.1-0.1-0.2-0.3-0.2-0.4c0-0.2,0.1-0.3,0.2-0.5c0.2-0.2,0.7-0.2,0.9,0
				c0.1,0.1,0.2,0.3,0.2,0.5c0,0.2-0.1,0.3-0.2,0.5C45.7-59.8,45.5-59.7,45.3-59.7z"/>
			<path class="st1" d="M47.6-48.7c-0.2,0-0.3-0.1-0.5-0.2C47-49,47-49.2,47-49.4c0-0.2,0.1-0.3,0.2-0.5c0.2-0.2,0.7-0.2,0.9,0
				c0.1,0.1,0.2,0.3,0.2,0.5c0,0.2-0.1,0.3-0.2,0.5C47.9-48.8,47.8-48.7,47.6-48.7z"/>
			<path class="st1" d="M55.1-64.7c-0.2,0-0.3-0.1-0.5-0.2c-0.1-0.1-0.2-0.3-0.2-0.5s0.1-0.3,0.2-0.5c0.2-0.2,0.7-0.2,0.9,0
				c0.1,0.1,0.2,0.3,0.2,0.5c0,0.2-0.1,0.3-0.2,0.5C55.4-64.8,55.3-64.7,55.1-64.7z"/>
			<path class="st1" d="M64.3-65c-0.2,0-0.3-0.1-0.5-0.2c-0.1-0.1-0.2-0.3-0.2-0.5s0.1-0.3,0.2-0.5c0.2-0.2,0.7-0.2,0.9,0
				c0.1,0.1,0.2,0.3,0.2,0.5s-0.1,0.3-0.2,0.5C64.7-65,64.5-65,64.3-65z"/>
			<path class="st1" d="M65.3-69c-0.2,0-0.3-0.1-0.5-0.2c-0.1-0.1-0.2-0.3-0.2-0.5s0.1-0.3,0.2-0.5c0.3-0.2,0.7-0.2,0.9,0
				c0.1,0.1,0.2,0.3,0.2,0.5s-0.1,0.3-0.2,0.4C65.7-69,65.5-69,65.3-69z"/>
			<path class="st1" d="M69.8-53.5c-0.2,0-0.3-0.1-0.5-0.2c-0.1-0.1-0.2-0.3-0.2-0.5c0-0.2,0.1-0.3,0.2-0.5c0.2-0.2,0.7-0.3,0.9,0
				c0.1,0.1,0.2,0.3,0.2,0.5c0,0.2-0.1,0.3-0.2,0.5C70.2-53.5,70-53.5,69.8-53.5z"/>
			<path class="st1" d="M8.3-24.5c-0.2,0-0.3-0.1-0.5-0.2c-0.1-0.1-0.2-0.3-0.2-0.5c0-0.2,0.1-0.3,0.2-0.5c0.2-0.2,0.7-0.2,0.9,0
				C8.9-25.5,9-25.3,9-25.1c0,0.2-0.1,0.3-0.2,0.5C8.7-24.5,8.5-24.5,8.3-24.5z"/>
			<path class="st1" d="M5.3-14.7c-0.2,0-0.3-0.1-0.5-0.2c-0.1-0.1-0.2-0.3-0.2-0.5c0-0.2,0.1-0.3,0.2-0.5c0.3-0.3,0.7-0.2,0.9,0
				C5.9-15.7,6-15.5,6-15.4c0,0.2-0.1,0.3-0.2,0.5C5.7-14.8,5.5-14.7,5.3-14.7z"/>
			<path class="st1" d="M2.6-4.5c-0.2,0-0.3-0.1-0.5-0.2C2-4.8,2-5,2-5.1S2-5.5,2.1-5.6c0.2-0.2,0.7-0.2,0.9,0
				c0.1,0.1,0.2,0.3,0.2,0.5S3.2-4.8,3.1-4.7C2.9-4.5,2.8-4.5,2.6-4.5z"/>
			<path class="st1" d="M18.1-1.7c-0.2,0-0.3-0.1-0.5-0.2c-0.1-0.1-0.2-0.3-0.2-0.5s0.1-0.3,0.2-0.5c0.2-0.2,0.7-0.2,0.9,0
				c0.1,0.1,0.2,0.3,0.2,0.5S18.7-2,18.6-1.9C18.4-1.8,18.3-1.7,18.1-1.7z"/>
			<path class="st1" d="M19.6-9.2c-0.2,0-0.3-0.1-0.5-0.2C19-9.5,19-9.7,19-9.9c0-0.2,0.1-0.3,0.2-0.5c0.2-0.2,0.7-0.3,0.9,0
				c0.1,0.1,0.2,0.3,0.2,0.5c0,0.2-0.1,0.3-0.2,0.5C19.9-9.3,19.8-9.2,19.6-9.2z"/>
			<path class="st1" d="M21.3-26.2c-0.2,0-0.3-0.1-0.5-0.2c-0.1-0.1-0.2-0.3-0.2-0.5c0-0.2,0.1-0.3,0.2-0.5c0.2-0.2,0.7-0.3,0.9,0
				c0.1,0.1,0.2,0.3,0.2,0.5c0,0.2-0.1,0.3-0.2,0.5C21.7-26.3,21.5-26.2,21.3-26.2z"/>
			<path class="st1" d="M28.8-20.5c-0.2,0-0.3-0.1-0.5-0.2c-0.1-0.1-0.2-0.3-0.2-0.5c0-0.2,0.1-0.3,0.2-0.5c0.2-0.2,0.7-0.3,0.9,0
				c0.1,0.1,0.2,0.3,0.2,0.5c0,0.2-0.1,0.3-0.2,0.5C29.2-20.5,29-20.5,28.8-20.5z"/>
			<path class="st1" d="M34.3-11.2c-0.2,0-0.3-0.1-0.5-0.2c-0.1-0.1-0.2-0.3-0.2-0.5c0-0.2,0.1-0.3,0.2-0.5c0.2-0.2,0.7-0.2,0.9,0
				c0.1,0.1,0.2,0.3,0.2,0.5c0,0.2-0.1,0.3-0.2,0.5C34.7-11.3,34.5-11.2,34.3-11.2z"/>
			<path class="st1" d="M34.6-4.7c-0.2,0-0.3-0.1-0.5-0.2C34-5,34-5.2,34-5.4s0.1-0.3,0.2-0.5c0.3-0.3,0.7-0.2,0.9,0
				c0.1,0.1,0.2,0.3,0.2,0.5S35.2-5,35.1-4.9C34.9-4.8,34.8-4.7,34.6-4.7z"/>
			<path class="st1" d="M42.1-16.5c-0.2,0-0.3-0.1-0.5-0.2c-0.1-0.1-0.2-0.3-0.2-0.5c0-0.2,0.1-0.3,0.2-0.5c0.2-0.2,0.7-0.2,0.9,0
				c0.1,0.1,0.2,0.3,0.2,0.5c0,0.2-0.1,0.3-0.2,0.5C42.4-16.5,42.3-16.5,42.1-16.5z"/>
			<path class="st1" d="M52.6-11.7c-0.2,0-0.3-0.1-0.5-0.2C52-12,52-12.2,52-12.4c0-0.2,0.1-0.3,0.2-0.5c0.2-0.2,0.7-0.2,0.9,0
				c0.1,0.1,0.2,0.3,0.2,0.5c0,0.2-0.1,0.3-0.2,0.5C52.9-11.8,52.8-11.7,52.6-11.7z"/>
			<path class="st1" d="M55.3-6.2c-0.2,0-0.3-0.1-0.5-0.2c-0.1-0.1-0.2-0.3-0.2-0.5c0-0.2,0.1-0.3,0.2-0.5c0.2-0.2,0.7-0.2,0.9,0
				C55.9-7.2,56-7.1,56-6.9c0,0.2-0.1,0.3-0.2,0.5C55.7-6.3,55.5-6.2,55.3-6.2z"/>
			<path class="st1" d="M25.6-47c-0.2,0-0.3-0.1-0.5-0.2C25-47.3,25-47.5,25-47.6c0-0.2,0.1-0.3,0.2-0.5c0.2-0.2,0.7-0.2,0.9,0
				c0.1,0.1,0.2,0.3,0.2,0.5c0,0.2-0.1,0.3-0.2,0.5C25.9-47,25.8-47,25.6-47z"/>
			<path class="st1" d="M35.6-48.2c-0.2,0-0.3-0.1-0.5-0.2C35-48.5,35-48.7,35-48.9c0-0.2,0.1-0.3,0.2-0.5c0.2-0.2,0.7-0.2,0.9,0
				c0.1,0.1,0.2,0.3,0.2,0.5c0,0.2-0.1,0.3-0.2,0.5C35.9-48.3,35.8-48.2,35.6-48.2z"/>
			<path class="st1" d="M45.3-42c-0.2,0-0.3-0.1-0.5-0.2c-0.1-0.1-0.2-0.3-0.2-0.5c0-0.2,0.1-0.3,0.2-0.5c0.2-0.2,0.7-0.2,0.9,0
				c0.1,0.1,0.2,0.3,0.2,0.5c0,0.2-0.1,0.3-0.2,0.5C45.7-42,45.5-42,45.3-42z"/>
			<path class="st1" d="M52.3-28.5c-0.2,0-0.3-0.1-0.5-0.2c-0.1-0.1-0.2-0.3-0.2-0.5c0-0.2,0.1-0.3,0.2-0.5c0.2-0.2,0.7-0.3,0.9,0
				c0.1,0.1,0.2,0.3,0.2,0.5c0,0.2-0.1,0.3-0.2,0.5C52.7-28.5,52.5-28.5,52.3-28.5z"/>
			<path class="st1" d="M67.3-19.7c-0.2,0-0.3-0.1-0.5-0.2c-0.1-0.1-0.2-0.3-0.2-0.5c0-0.2,0.1-0.3,0.2-0.5c0.2-0.2,0.7-0.2,0.9,0
				c0.1,0.1,0.2,0.3,0.2,0.5c0,0.2-0.1,0.3-0.2,0.5C67.7-19.8,67.5-19.7,67.3-19.7z"/>
			<path class="st1" d="M47.6-23.7c-0.2,0-0.3-0.1-0.5-0.2C47-24,47-24.2,47-24.4c0-0.2,0.1-0.3,0.2-0.5c0.2-0.2,0.7-0.2,0.9,0
				c0.1,0.1,0.2,0.3,0.2,0.5c0,0.2-0.1,0.3-0.2,0.5C47.9-23.8,47.8-23.7,47.6-23.7z"/>
			<path class="st1" d="M37.3-27c-0.2,0-0.3-0.1-0.5-0.2c-0.1-0.1-0.2-0.3-0.2-0.5c0-0.2,0.1-0.3,0.2-0.5c0.2-0.2,0.7-0.2,0.9,0
				c0.1,0.1,0.2,0.3,0.2,0.5c0,0.2-0.1,0.3-0.2,0.5C37.7-27,37.5-27,37.3-27z"/>
			<path class="st1" d="M17.3-43c-0.2,0-0.3-0.1-0.5-0.2c-0.1-0.1-0.2-0.3-0.2-0.5c0-0.2,0.1-0.3,0.2-0.5c0.3-0.2,0.7-0.2,0.9,0
				c0.1,0.1,0.2,0.3,0.2,0.5c0,0.2-0.1,0.3-0.2,0.5C17.7-43,17.5-43,17.3-43z"/>
			<path class="st1" d="M11.6-34.7c-0.2,0-0.3-0.1-0.5-0.2C11-35,11-35.2,11-35.4c0-0.2,0.1-0.3,0.2-0.5c0.3-0.3,0.7-0.2,0.9,0
				c0.1,0.1,0.2,0.3,0.2,0.5c0,0.2-0.1,0.3-0.2,0.5C11.9-34.8,11.8-34.7,11.6-34.7z"/>
			<path class="st1" d="M67.8-40.7c-0.2,0-0.3-0.1-0.5-0.2c-0.1-0.1-0.2-0.3-0.2-0.5c0-0.2,0.1-0.3,0.2-0.5c0.2-0.2,0.7-0.2,0.9,0
				c0.1,0.1,0.2,0.3,0.2,0.5c0,0.2-0.1,0.3-0.2,0.5C68.2-40.8,68-40.7,67.8-40.7z"/>
			<path class="st1" d="M7.6-55.7c-0.2,0-0.3-0.1-0.5-0.2C7-56,7-56.2,7-56.4c0-0.2,0.1-0.3,0.2-0.5c0.2-0.2,0.7-0.3,0.9,0
				c0.1,0.1,0.2,0.3,0.2,0.5c0,0.2-0.1,0.3-0.2,0.5C7.9-55.8,7.8-55.7,7.6-55.7z"/>
			<path class="st1" d="M8.8-66.2c-0.2,0-0.3-0.1-0.5-0.2c-0.1-0.1-0.2-0.3-0.2-0.5c0-0.2,0.1-0.3,0.2-0.5c0.2-0.2,0.7-0.3,0.9,0
				c0.1,0.1,0.2,0.3,0.2,0.5c0,0.2-0.1,0.3-0.2,0.5C9.2-66.3,9-66.2,8.8-66.2z"/>
			<path class="st1" d="M3.8-69c-0.2,0-0.3-0.1-0.5-0.2c-0.1-0.1-0.2-0.3-0.2-0.5s0.1-0.3,0.2-0.5c0.2-0.2,0.7-0.2,0.9,0
				c0.1,0.1,0.2,0.3,0.2,0.5s-0.1,0.3-0.2,0.5C4.2-69,4-69,3.8-69z"/>
			<path class="st1" d="M66.8-34.2c-0.2,0-0.3-0.1-0.5-0.2c-0.1-0.1-0.2-0.3-0.2-0.5c0-0.2,0.1-0.3,0.2-0.5c0.2-0.2,0.7-0.2,0.9,0
				c0.1,0.1,0.2,0.3,0.2,0.5c0,0.2-0.1,0.3-0.2,0.5C67.2-34.3,67-34.2,66.8-34.2z"/>
			<path class="st1" d="M44.3-8.5c-0.2,0-0.3-0.1-0.5-0.2c-0.1-0.1-0.2-0.3-0.2-0.5s0.1-0.3,0.2-0.5c0.2-0.2,0.7-0.3,0.9,0
				C44.9-9.5,45-9.3,45-9.1s-0.1,0.3-0.2,0.5C44.7-8.5,44.5-8.5,44.3-8.5z"/>
			<path class="st1" d="M26.1-1.5c-0.2,0-0.3-0.1-0.5-0.2c-0.1-0.1-0.2-0.3-0.2-0.5s0.1-0.3,0.2-0.5c0.3-0.3,0.7-0.2,0.9,0
				c0.1,0.1,0.2,0.3,0.2,0.5s-0.1,0.3-0.2,0.5C26.4-1.5,26.3-1.5,26.1-1.5z"/>
			<path class="st1" d="M22.3-29.7c-0.2,0-0.3-0.1-0.5-0.2c-0.1-0.1-0.2-0.3-0.2-0.5c0-0.2,0.1-0.3,0.2-0.5c0.2-0.2,0.7-0.2,0.9,0
				c0.1,0.1,0.2,0.3,0.2,0.5c0,0.2-0.1,0.3-0.2,0.5C22.7-29.8,22.5-29.7,22.3-29.7z"/>
			<path class="st1" d="M24.3-42.5c-0.2,0-0.3-0.1-0.5-0.2c-0.1-0.1-0.2-0.3-0.2-0.5c0-0.2,0.1-0.3,0.2-0.5c0.2-0.2,0.7-0.3,0.9,0
				c0.1,0.1,0.2,0.3,0.2,0.5c0,0.2-0.1,0.3-0.2,0.5C24.7-42.5,24.5-42.5,24.3-42.5z"/>
			<path class="st1" d="M41.8-37c-0.2,0-0.3-0.1-0.5-0.2c-0.1-0.1-0.2-0.3-0.2-0.5c0-0.2,0.1-0.3,0.2-0.5c0.2-0.2,0.7-0.2,0.9,0
				c0.1,0.1,0.2,0.3,0.2,0.5c0,0.2-0.1,0.3-0.2,0.5C42.2-37,42-37,41.8-37z"/>
			<path class="st1" d="M67.8-27.7c-0.2,0-0.3-0.1-0.5-0.2c-0.1-0.1-0.2-0.3-0.2-0.5c0-0.2,0.1-0.3,0.2-0.5c0.2-0.2,0.7-0.2,0.9,0
				c0.1,0.1,0.2,0.3,0.2,0.5c0,0.2-0.1,0.3-0.2,0.5C68.2-27.8,68-27.7,67.8-27.7z"/>
			<path class="st1" d="M53.6-56.5c-0.2,0-0.3-0.1-0.5-0.2C53-56.8,53-57,53-57.1c0-0.2,0.1-0.3,0.2-0.5c0.2-0.2,0.7-0.2,0.9,0
				c0.1,0.1,0.2,0.3,0.2,0.5c0,0.2-0.1,0.3-0.2,0.5C53.9-56.5,53.8-56.5,53.6-56.5z"/>
			<path class="st1" d="M34.3-55.5c-0.2,0-0.3-0.1-0.5-0.2c-0.1-0.1-0.2-0.3-0.2-0.5c0-0.2,0.1-0.3,0.2-0.5c0.2-0.2,0.7-0.2,0.9,0
				c0.1,0.1,0.2,0.3,0.2,0.5c0,0.2-0.1,0.3-0.2,0.5C34.7-55.5,34.5-55.5,34.3-55.5z"/>
			<path class="st1" d="M13.1-52.2c-0.2,0-0.3-0.1-0.5-0.2c-0.1-0.1-0.2-0.3-0.2-0.5c0-0.2,0.1-0.3,0.2-0.5c0.3-0.3,0.7-0.2,0.9,0
				c0.1,0.1,0.2,0.3,0.2,0.5c0,0.2-0.1,0.3-0.2,0.5C13.4-52.3,13.3-52.2,13.1-52.2z"/>
			<path class="st1" d="M49.8-67c-0.2,0-0.3-0.1-0.5-0.2c-0.1-0.1-0.2-0.3-0.2-0.5s0.1-0.3,0.2-0.5c0.2-0.2,0.7-0.2,0.9,0
				c0.1,0.1,0.2,0.3,0.2,0.5s-0.1,0.3-0.2,0.5C50.2-67,50-67,49.8-67z"/>
			<path class="st1" d="M59.3-50.7c-0.2,0-0.3-0.1-0.5-0.2c-0.1-0.1-0.2-0.3-0.2-0.5c0-0.2,0.1-0.3,0.2-0.5c0.3-0.2,0.7-0.2,0.9,0
				c0.1,0.1,0.2,0.3,0.2,0.5c0,0.2-0.1,0.3-0.2,0.5C59.7-50.8,59.5-50.7,59.3-50.7z"/>
			<path class="st1" d="M67.8-14.2c-0.2,0-0.3-0.1-0.5-0.2c-0.1-0.1-0.2-0.3-0.2-0.5c0-0.2,0.1-0.3,0.2-0.5c0.2-0.2,0.7-0.2,0.9,0
				c0.1,0.1,0.2,0.3,0.2,0.5c0,0.2-0.1,0.3-0.2,0.5C68.2-14.3,68-14.2,67.8-14.2z"/>
			<path class="st1" d="M5.6-1.7c-0.2,0-0.3-0.1-0.5-0.2S5-2.2,5-2.4S5-2.7,5.1-2.8c0.3-0.3,0.7-0.2,0.9,0c0.1,0.1,0.2,0.3,0.2,0.5
				S6.2-2,6.1-1.9C5.9-1.8,5.8-1.7,5.6-1.7z"/>
			<path class="st1" d="M3.1-58.2c-0.2,0-0.3-0.1-0.5-0.2c-0.1-0.1-0.2-0.3-0.2-0.4c0-0.2,0.1-0.3,0.2-0.5c0.2-0.3,0.7-0.2,0.9,0
				c0.1,0.1,0.2,0.3,0.2,0.5c0,0.2-0.1,0.3-0.2,0.5C3.4-58.3,3.3-58.2,3.1-58.2z"/>
			<path class="st1" d="M16.8-68.2c-0.2,0-0.3-0.1-0.5-0.2c-0.1-0.1-0.2-0.3-0.2-0.5s0.1-0.3,0.2-0.5c0.2-0.2,0.7-0.2,0.9,0
				c0.1,0.1,0.2,0.3,0.2,0.5s-0.1,0.3-0.2,0.5C17.2-68.3,17-68.2,16.8-68.2z"/>
			<path class="st1" d="M40.8-67c-0.2,0-0.3-0.1-0.5-0.2c-0.1-0.1-0.2-0.3-0.2-0.5s0.1-0.3,0.2-0.5c0.3-0.2,0.7-0.2,0.9,0
				c0.1,0.1,0.2,0.3,0.2,0.5c0,0.2-0.1,0.3-0.2,0.5C41.2-67,41-67,40.8-67z"/>
			<path class="st1" d="M3.1-39.5c-0.2,0-0.3-0.1-0.5-0.2c-0.1-0.1-0.2-0.3-0.2-0.5c0-0.2,0.1-0.3,0.2-0.5c0.2-0.2,0.7-0.2,0.9,0
				c0.1,0.1,0.2,0.3,0.2,0.5c0,0.2-0.1,0.3-0.2,0.5C3.4-39.5,3.3-39.5,3.1-39.5z"/>
			<path class="st1" d="M7.8-46.5c-0.2,0-0.3-0.1-0.5-0.2c-0.1-0.1-0.2-0.3-0.2-0.5c0-0.2,0.1-0.3,0.2-0.5c0.2-0.2,0.7-0.2,0.9,0
				c0.1,0.1,0.2,0.3,0.2,0.5c0,0.2-0.1,0.3-0.2,0.5C8.2-46.5,8-46.5,7.8-46.5z"/>
			<path class="st1" d="M4.3-24.7c-0.2,0-0.3-0.1-0.5-0.2c-0.1-0.1-0.2-0.3-0.2-0.5c0-0.2,0.1-0.3,0.2-0.5c0.2-0.2,0.7-0.3,0.9,0
				C4.9-25.7,5-25.5,5-25.4c0,0.2-0.1,0.3-0.2,0.5C4.7-24.8,4.5-24.7,4.3-24.7z"/>
			<path class="st1" d="M11.3-21c-0.2,0-0.3-0.1-0.5-0.2c-0.1-0.1-0.2-0.3-0.2-0.5c0-0.2,0.1-0.3,0.2-0.5c0.2-0.2,0.7-0.2,0.9,0
				c0.1,0.1,0.2,0.3,0.2,0.5c0,0.2-0.1,0.3-0.2,0.5C11.7-21,11.5-21,11.3-21z"/>
			<path class="st1" d="M10.3-11.7c-0.2,0-0.3-0.1-0.5-0.2c-0.1-0.1-0.2-0.3-0.2-0.5c0-0.2,0.1-0.3,0.2-0.5c0.2-0.2,0.7-0.2,0.9,0
				c0.1,0.1,0.2,0.3,0.2,0.5c0,0.2-0.1,0.3-0.2,0.5C10.7-11.8,10.5-11.7,10.3-11.7z"/>
			<path class="st1" d="M13.8-5.7c-0.2,0-0.3-0.1-0.5-0.2c-0.1-0.1-0.2-0.3-0.2-0.5c0-0.2,0.1-0.3,0.2-0.5c0.2-0.2,0.7-0.3,0.9,0
				c0.1,0.1,0.2,0.3,0.2,0.5S14.4-6,14.3-5.9C14.2-5.8,14-5.7,13.8-5.7z"/>
			<path class="st1" d="M22.3-18.2c-0.2,0-0.3-0.1-0.5-0.2c-0.1-0.1-0.2-0.3-0.2-0.5c0-0.2,0.1-0.3,0.2-0.5c0.2-0.2,0.7-0.2,0.9,0
				c0.1,0.1,0.2,0.3,0.2,0.5c0,0.2-0.1,0.3-0.2,0.5C22.7-18.3,22.5-18.2,22.3-18.2z"/>
			<path class="st1" d="M31.6-34c-0.2,0-0.3-0.1-0.5-0.2C31-34.3,31-34.5,31-34.6c0-0.2,0.1-0.3,0.2-0.5c0.2-0.2,0.7-0.2,0.9,0
				c0.1,0.1,0.2,0.3,0.2,0.5c0,0.2-0.1,0.3-0.2,0.5C31.9-34,31.8-34,31.6-34z"/>
			<path class="st1" d="M26.3-37.5c-0.2,0-0.3-0.1-0.5-0.2c-0.1-0.1-0.2-0.3-0.2-0.5c0-0.2,0.1-0.3,0.2-0.5c0.3-0.3,0.7-0.2,0.9,0
				c0.1,0.1,0.2,0.3,0.2,0.5c0,0.2-0.1,0.3-0.2,0.5C26.7-37.5,26.5-37.5,26.3-37.5z"/>
			<path class="st1" d="M37.6-43c-0.2,0-0.3-0.1-0.5-0.2C37-43.3,37-43.5,37-43.6c0-0.2,0.1-0.3,0.2-0.5c0.2-0.2,0.7-0.2,0.9,0
				c0.1,0.1,0.2,0.3,0.2,0.5c0,0.2-0.1,0.3-0.2,0.5C37.9-43,37.8-43,37.6-43z"/>
			<path class="st1" d="M62.1-55c-0.2,0-0.3-0.1-0.5-0.2c-0.1-0.1-0.2-0.3-0.2-0.5c0-0.2,0.1-0.3,0.2-0.5c0.2-0.2,0.7-0.2,0.9,0
				c0.1,0.1,0.2,0.3,0.2,0.5c0,0.2-0.1,0.3-0.2,0.5C62.4-55,62.3-55,62.1-55z"/>
			<path class="st1" d="M61.6-44.5c-0.2,0-0.3-0.1-0.5-0.2C61-44.8,61-45,61-45.1c0-0.2,0.1-0.3,0.2-0.5c0.2-0.2,0.7-0.2,0.9,0
				c0.1,0.1,0.2,0.3,0.2,0.5c0,0.2-0.1,0.3-0.2,0.5C61.9-44.5,61.8-44.5,61.6-44.5z"/>
			<path class="st1" d="M59.1-14.5c-0.2,0-0.3-0.1-0.5-0.2c-0.1-0.1-0.2-0.3-0.2-0.5c0-0.2,0.1-0.3,0.2-0.5c0.2-0.2,0.7-0.2,0.9,0
				c0.1,0.1,0.2,0.3,0.2,0.5c0,0.2-0.1,0.3-0.2,0.5C59.4-14.5,59.3-14.5,59.1-14.5z"/>
			<path class="st1" d="M59.6-27.2c-0.2,0-0.3-0.1-0.5-0.2C59-27.5,59-27.7,59-27.9c0-0.2,0.1-0.3,0.2-0.5c0.2-0.2,0.7-0.2,0.9,0
				c0.1,0.1,0.2,0.3,0.2,0.5c0,0.2-0.1,0.3-0.2,0.5C59.9-27.3,59.8-27.2,59.6-27.2z"/>
			<path class="st1" d="M56.1-36c-0.2,0-0.3-0.1-0.5-0.2c-0.1-0.1-0.2-0.3-0.2-0.5c0-0.2,0.1-0.3,0.2-0.5c0.2-0.2,0.7-0.2,0.9,0
				c0.1,0.1,0.2,0.3,0.2,0.5c0,0.2-0.1,0.3-0.2,0.5C56.4-36,56.3-36,56.1-36z"/>
			<path class="st1" d="M69.6-1c-0.2,0-0.3-0.1-0.5-0.2C69-1.3,69-1.5,69-1.6S69-2,69.1-2.1c0.2-0.2,0.7-0.2,0.9,0
				c0.1,0.1,0.2,0.3,0.2,0.5s-0.1,0.3-0.2,0.5C69.9-1,69.8-1,69.6-1z"/>
			<path class="st1" d="M61.1-5.7c-0.2,0-0.3-0.1-0.5-0.2c-0.1-0.1-0.2-0.3-0.2-0.5s0.1-0.3,0.2-0.5c0.2-0.2,0.7-0.3,0.9,0
				c0.1,0.1,0.2,0.3,0.2,0.5c0,0.2-0.1,0.3-0.2,0.5C61.4-5.8,61.3-5.7,61.1-5.7z"/>
			<path class="st1" d="M44.8-0.2c-0.2,0-0.3-0.1-0.5-0.2c-0.1-0.1-0.2-0.3-0.2-0.5c0-0.2,0.1-0.3,0.2-0.5c0.2-0.2,0.7-0.2,0.9,0
				c0.1,0.1,0.2,0.3,0.2,0.5c0,0.2-0.1,0.3-0.2,0.5C45.2-0.3,45-0.2,44.8-0.2z"/>
			<path class="st1" d="M24.8-70.5c-0.2,0-0.3-0.1-0.5-0.2c-0.1-0.1-0.2-0.3-0.2-0.5c0-0.2,0.1-0.3,0.2-0.5c0.2-0.2,0.7-0.3,0.9,0
				c0.1,0.1,0.2,0.3,0.2,0.5s-0.1,0.3-0.2,0.5C25.2-70.5,25-70.5,24.8-70.5z"/>
		</g>
		<g>
			<path class="st1" d="M0.3-48.3c-0.1,0-0.2,0-0.3-0.1C0-48.4,0-48.5,0-48.6c0-0.1,0-0.2,0.1-0.3c0.1-0.1,0.4-0.1,0.5,0
				c0.1,0.1,0.1,0.2,0.1,0.3c0,0.1,0,0.2-0.1,0.3C0.5-48.3,0.4-48.3,0.3-48.3z"/>
		</g>
	</g>
</pattern>
<g>
	<g>
		<path class="st2" d="M131.9,148.2c-22.5,13.9-15.5,46.5-15.2,69.1c0.3,24.8,0.7,49.7,1,74.5c0,1.5-2.3,1.5-2.3,0
			c-0.4-29.7-0.8-59.4-1.2-89.1c-0.3-21-3.9-43.9,16.6-56.5C132,145.4,133.1,147.4,131.9,148.2L131.9,148.2z"/>
	</g>
	<path class="st2" d="M119.4,159.5c1-2.2,2.1-4.3,3.6-6.2c2.3-2.8,5.6-4.6,8.8-6.4l0.5,0.3c1.8,4.8,2.8,10,1.8,15.1
		c-1,5-4,9.8-8.7,12c-3.4,1.6-7.4,1.8-10.6,3.9C114,171.7,116.6,165.4,119.4,159.5z"/>
	<g>
		<path class="st2" d="M95.8,120c22.4,8.9,17.5,42.8,18.4,61.9c1.5,32.4,2.4,64.8,2.1,97.3c0,1.5-2.3,1.5-2.3,0
			c0.2-27-0.3-54-1.4-80.9c-0.5-12.2-1.1-24.4-1.7-36.5c-0.7-14.1,0-33.2-15.8-39.5C93.8,121.7,94.4,119.4,95.8,120L95.8,120z"/>
	</g>
	<g>
		<path class="st2" d="M111.1,159c0-0.1,0.1-0.2,0.1-0.3c0.3,0.5,0.7,1.1,0.9,1.7L111.1,159z"/>
		<path class="st2" d="M94.5,122c0.1-0.3,0.3-0.6,0.6-0.8c0.3-0.2,0.7-0.1,1.1,0c7.3,2.2,13,8.3,15.5,15.5c2.5,7.1,1.9,14.9-0.5,22
			c-2.8-4.4-8.4-6.6-12.4-10.2C91.8,142,90.7,130.7,94.5,122z"/>
	</g>
	<path class="st3" d="M101.3,318.1h26.9c3.2,0,5.8-2.6,5.8-5.8v-33H95.5v33C95.5,315.4,98.1,318.1,101.3,318.1z"/>
	<g>
		<path class="st2" d="M113.8,233c0.3-9,0.8-19.6-5.9-26.7c-5.2-5.5-18.6-9.3-26-9.5c-1.5,0-1.5-2.4,0-2.3c5.7,0.1,11.7,2.4,17,4.2
			c4,1.3,7.7,2.8,10.7,5.9c7.2,7.5,7,18.7,6.6,28.3C116,234.5,113.7,234.5,113.8,233L113.8,233z"/>
	</g>
	<path class="st2" d="M79.3,193.6c0.1-0.2,0.4-0.2,0.6-0.2c2.8,0,5.6,0,8.4,0.1c2.4,0,4.9,0,7.2,0.7c4.8,1.2,8.6,4.7,11.6,8.6
		l0.9,0.1c-4.4,1.4-8.7,3.2-13.3,3.7c-4.6,0.5-9.7-0.7-12.5-4.3c-1.8-2.3-2.5-5.3-3-8.2C79.2,194,79.2,193.8,79.3,193.6z"/>
</g>
<g>
	<path id="XMLID_507_" class="st4" d="M405.6,318.7H150.3c-7.7,0-13.9-6.2-13.9-13.9V70.5c0-11.6,9.4-21,21-21h241
		c11.6,0,21,9.4,21,21v234.3C419.5,312.5,413.3,318.7,405.6,318.7z"/>
	<linearGradient id="XMLID_4_" gradientUnits="userSpaceOnUse" x1="136.4304" y1="67.4531" x2="419.5287" y2="67.4531">
		<stop  offset="0" style="stop-color:#E040FB"/>
		<stop  offset="7.285416e-03" style="stop-color:#E040F9"/>
		<stop  offset="0.3718" style="stop-color:#ED4DA4"/>
		<stop  offset="0.6698" style="stop-color:#F65666"/>
		<stop  offset="0.8866" style="stop-color:#FC5C40"/>
		<stop  offset="1" style="stop-color:#FE5E31"/>
	</linearGradient>
	<path id="XMLID_506_" class="st5" d="M419.5,85.5V59.3c0-5.4-4.4-9.8-9.8-9.8H146.2c-5.4,0-9.8,4.4-9.8,9.8v26.2H419.5z"/>
	<path id="XMLID_505_" class="st1" d="M161,67.5c0,1.7-1.4,3.1-3.1,3.1c-1.7,0-3.1-1.4-3.1-3.1c0-1.7,1.4-3.1,3.1-3.1
		C159.6,64.4,161,65.7,161,67.5z"/>
	<path id="XMLID_1_" class="st1" d="M174.8,67.5c0,1.7-1.4,3.1-3.1,3.1c-1.7,0-3.1-1.4-3.1-3.1c0-1.7,1.4-3.1,3.1-3.1
		C173.4,64.4,174.8,65.7,174.8,67.5z"/>
	<path id="XMLID_2_" class="st1" d="M188.7,67.5c0,1.7-1.4,3.1-3.1,3.1c-1.7,0-3.1-1.4-3.1-3.1c0-1.7,1.4-3.1,3.1-3.1
		C187.3,64.4,188.7,65.7,188.7,67.5z"/>
	<circle class="st6" cx="151.1" cy="104" r="2.5"/>
	<circle class="st6" cx="151.1" cy="118.6" r="2.5"/>
	<circle class="st6" cx="151.1" cy="133.1" r="2.5"/>
	<circle class="st6" cx="151.1" cy="147.7" r="2.5"/>
	<circle class="st6" cx="151.1" cy="162.3" r="2.5"/>
	<circle class="st6" cx="151.1" cy="176.9" r="2.5"/>
</g>
<path class="st7" d="M224,196.7h-0.3h-0.3h-0.3h-0.3h-0.3h-0.3H222h-0.3h-0.3h-0.3h-0.3h-0.3h-0.3H220h-0.3h-0.3h-0.3h-0.3h-0.3
	h-0.3H218h-0.3h-0.3h-0.3h-0.3h-0.3h-0.3H216h-0.3h-0.3h-0.3h-0.3h-0.3h-0.3H214h-0.3h-0.3h-0.3h-0.3h-0.3h-0.3h-75.9v49.3v0.3v0.3
	v0.3v0.3v0.3v0.3v0.3v0.3v0.3v0.3v0.3v0.3v0.3v0.3v0.3v0.3v0.3v0.3v0.3v0.3v0.3v0.3v0.3v0.3v0.3v0.3v0.3v0.3v0.3v0.3v0.3v0.3v0.3
	v0.3v0.3v0.3v0.3v0.3v0.3v0.3v0.3H224c3,0,5.5-2.5,5.5-5.5v-49.4C229.5,199.1,227,196.7,224,196.7z"/>
<g>
	<path class="st1" d="M218.2,249.4H124c-1.9,0-3.5-1.6-3.5-3.5v-52.5c0-1.9,1.6-3.5,3.5-3.5h94.2c1.9,0,3.5,1.6,3.5,3.5V246
		C221.7,247.9,220.1,249.4,218.2,249.4z"/>
	<rect x="130.5" y="196.7" class="st8" width="40.7" height="3.6"/>
	<rect x="130.5" y="204.4" class="st9" width="20.3" height="3.6"/>
	<path class="st6" d="M126,241.1c3.3-4.5,6.9-10.3,10.7-14.4c1.3-1.4,2.9-3,4.8-3.2c2.8-0.4,5.2,1.7,7.2,3.6
		c2.4,2.3,5.1,4.6,8.4,5.2c4,0.8,8-1.2,11.6-3.2c3.1-1.7,6.3-3.6,8.6-6.3c2.1-2.7,3.3-6.2,6.1-8.2c0.5-0.4,1-0.7,1.6-0.7
		c1-0.1,2,0.5,2.8,1.3c1.9,2,2.6,4.8,3.6,7.3c1,2.6,2.7,5.2,5.3,5.8c3.5,0.8,6.6-2.3,8.4-5.4c1.8-3.1,3.2-6.7,6.3-8.5
		c1-0.6,2.2-0.9,3.1-0.3c1,0.6,1.3,2,1.4,3.2c0.5,5,0.9,10.1,1.4,15.1c0.2,2.1,0.3,7.1-0.9,8.8H126z"/>
</g>
<g>
	<path class="st1" d="M369.1,311.8H161.8c-1.1,0-2-0.9-2-2v-46.4c0-1.1,0.9-2,2-2h207.3c1.1,0,2,0.9,2,2v46.4
		C371.1,310.9,370.2,311.8,369.1,311.8z"/>
	<g>
		<rect x="168.7" y="271.8" class="st6" width="49.8" height="31"/>
	</g>
	<g>
		<polygon class="st3" points="176.4,283.2 168.7,294.3 168.7,302.8 188.4,302.8 		"/>
	</g>
	<g>
		<polygon class="st1" points="177.6,289 178.3,290.1 179.5,288.4 176.4,283.2 172.8,288.3 173.9,290.1 174.7,288.9 176.1,291.1 		
			"/>
	</g>
	<g>
		<polygon class="st3" points="185.7,298.6 191.5,289.9 199.5,302.8 188.3,302.8 		"/>
	</g>
	<circle class="st2" cx="203.7" cy="282.4" r="5.5"/>
	<g>
		<polygon class="st1" points="192.8,295.7 193.5,296.8 194.7,295 191.5,289.9 188.1,295 189.2,296.8 190,295.6 191.3,297.8 		"/>
	</g>
	<rect x="221.3" y="272.3" class="st8" width="138.7" height="2.9"/>
	<rect x="221.3" y="279.5" class="st8" width="138.7" height="2.9"/>
	<rect x="221.3" y="286.6" class="st8" width="138.7" height="2.9"/>
	<rect x="221.3" y="293.7" class="st10" width="52.7" height="2.9"/>
</g>
<g>
	
		<ellipse id="XMLID_18_" transform="matrix(0.1606 -0.987 0.987 0.1606 42.025 321.0687)" class="st6" cx="209.8" cy="135.8" rx="12.3" ry="12.3"/>
	<g id="XMLID_19_">
		<polygon id="XMLID_59_" class="st1" points="208.2,140.8 203.9,136.5 206.3,134.1 208.2,135.9 213.2,130.9 215.7,133.3 		"/>
	</g>
</g>
<path class="st7" d="M282.7,101.3h-0.4h-0.4h-0.4H281H281h-0.4h-0.4h-0.4h-0.4h-0.4h-0.4h-0.4h-0.4h-0.4h-0.4h-0.4h-0.4h-0.9h-0.4
	H274h-0.4h-0.4h-0.4h-0.4h-0.4h-0.4h-0.4h-0.4h-0.4h-0.4h-0.4h-0.4h-0.4h-0.4h-0.4H267h-0.4h-0.4h-0.4h-0.4h-0.4
	c-3.5,0-6.4,2.9-6.4,6.4V178c0,3.5,2.9,6.4,6.4,6.4h154.7V184v-0.4v-0.4v-0.4v-0.4v-0.4v-0.4v-0.4v-0.4v-0.4v-0.4v-0.4V179v-0.4
	v-0.4v-0.4v-0.4V177v-0.4v-0.4v-0.4v-0.4v-0.4v-0.4V174v-0.4v-0.4v-0.4v-0.4V172v-0.4v-0.4v-0.4v-0.4v-0.4v-0.4V169v-0.4v-0.4v-0.4
	v-0.4v-66.1H282.7z"/>
<g>
	<path class="st11" d="M458.1,90.4H276.8c-2.4,0-4.3,1.9-4.3,4.3v72.5c0,2.4,1.9,4.3,4.3,4.3h181.3c2.4,0,4.3-1.9,4.3-4.3V94.7
		C462.4,92.3,460.4,90.4,458.1,90.4z"/>
	<rect x="283.5" y="101.6" class="st8" width="3.5" height="58.6"/>
	<rect x="292.4" y="101.6" class="st8" width="3.5" height="58.6"/>
	<rect x="301.2" y="101.6" class="st8" width="3.5" height="58.6"/>
	<rect x="310.1" y="101.6" class="st8" width="3.5" height="58.6"/>
	<rect x="319" y="101.6" class="st8" width="3.5" height="58.6"/>
	<rect x="327.8" y="101.6" class="st8" width="3.5" height="58.6"/>
	<rect x="283.5" y="134.5" class="st12" width="3.5" height="25.8"/>
	<rect x="292.4" y="123.7" class="st12" width="3.5" height="36.5"/>
	<rect x="301.2" y="118.3" class="st12" width="3.5" height="42"/>
	<rect x="310.1" y="123.7" class="st12" width="3.5" height="36.5"/>
	<rect x="319" y="113" class="st12" width="3.5" height="47.2"/>
	<rect x="327.8" y="107.2" class="st12" width="3.5" height="53"/>
	<path class="st2" d="M370.8,111.6c0,5.3-4.3,9.6-9.6,9.6c-5.3,0-9.6-4.3-9.6-9.6c0-5.3,4.3-9.6,9.6-9.6
		C366.5,102,370.8,106.3,370.8,111.6z"/>
	<rect x="375.9" y="103.5" class="st8" width="77.5" height="2.6"/>
	<rect x="375.9" y="111" class="st8" width="77.5" height="2.6"/>
	<rect x="375.9" y="118.6" class="st13" width="32.5" height="2.6"/>
	<path class="st2" d="M370.8,148.6c0,5.3-4.3,9.6-9.6,9.6c-5.3,0-9.6-4.3-9.6-9.6s4.3-9.6,9.6-9.6
		C366.5,139.1,370.8,143.3,370.8,148.6z"/>
	<rect x="375.9" y="140.6" class="st8" width="77.5" height="2.6"/>
	<rect x="375.9" y="148.1" class="st8" width="77.5" height="2.6"/>
	<rect x="375.9" y="155.6" class="st13" width="32.5" height="2.6"/>
</g>
<g>
	<path class="st14" d="M360.8,156.9c0,0,3.2-2.9,3.2-7.4h9.7c0,0,0.2,6.1,2.5,7.4H360.8z"/>
	<path class="st14" d="M345.3,168.3l-20.1,5.8c-0.8,0.2-1.6,0.3-2.3,0.1l-21.2-4.3l-1.6-4.1l-0.3,0.1c-0.9,0.3-1.5,1.1-1.5,2.1v1.2
		l-1.3,0.6l-4.2,1l-1.1,0.7h-4l1.4,1.3c0.2,0.2,0.5,0.3,0.8,0.4l9.5,1.4l4.4,0.8l17.1,7c1.1,0.5,2.4,0.6,3.6,0.3l21.9-5.4
		L345.3,168.3z"/>
	<path class="st14" d="M390.4,168.3l20.1,5.8c0.8,0.2,1.6,0.3,2.3,0.1l21.2-4.3l1.6-4.1l0.3,0.1c0.9,0.3,1.5,1.1,1.5,2.1v1.2
		l1.3,0.6l4.2,1l1.1,0.7h4l-1.4,1.3c-0.2,0.2-0.5,0.3-0.8,0.4l-9.5,1.4l-4.4,0.8l-17.1,7c-1.1,0.5-2.4,0.6-3.6,0.3l-21.9-5.4
		L390.4,168.3z"/>
	<g>
		<path class="st14" d="M369,135.7c-0.3-1.2-1.1-2.3-2.2-2.8l1.5-1.2c-0.7,0-1.3,0.1-1.9,0.3c-0.6,0.2-1.2,0.5-1.8,0.8
			c-0.9,0.4-1.4,0.5-1.8,1.4c-0.5,1-0.9,2-1.4,2.9c-0.2,0.4-0.4,0.9-0.5,1.3c-0.2,0.7-0.3,1.4-0.3,2.1c0,0.6-0.1,1.2-0.1,1.7
			c0,0.5-0.1,1,0,1.6c0.1,0.7,0.3,1.3,0.5,1.9c0.4,1.1,0.8,2.7,1.7,3.4c1,0.8,2.2,1.4,3.5,1.4c0.3,0,0.6,0,0.8-0.2
			c0.2-0.2,0.4-0.4,0.5-0.7c1.5-3.2,1.6-6.9,1.7-10.4C369.3,138.1,369.4,136.9,369,135.7z"/>
	</g>
	
		<rect x="384.1" y="308.9" transform="matrix(-1 -1.224647e-16 1.224647e-16 -1 774.9731 623.3514)" class="st14" width="6.7" height="5.6"/>
	<path class="st15" d="M389.5,312.7H384l-1,3.1v1.5c0,0.8,0.7,1.5,1.5,1.5h5.7l6.1-2.3v-1c0-1.7-0.8-3.3-2.2-4.3l-3.2-2.3v3.7
		L389.5,312.7z"/>
	<path class="st16" d="M384.5,316.7h5.7l5.9-2.2c0.1,0.3,0.1,0.6,0.1,1v1l-6.1,2.3h-5.7c-0.8,0-1.5-0.7-1.5-1.5v-1.5l0.1-0.2
		C383.2,316.3,383.8,316.7,384.5,316.7z"/>
	<rect x="349" y="308.9" class="st14" width="6.7" height="5.6"/>
	<path class="st16" d="M351.9,219.2c0,0-1.4,9.8-2.6,19.3c-0.2,2.1-0.4,4.1-0.4,6.2v21.5v44.1h6.7c0,0,5.2-22.9,6.3-38.1
		c0.3-4,1-8,1.9-12l7.1-31.9v-7.8L351.9,219.2z"/>
	<path class="st16" d="M388,221.7c0,0,1.5,8.5,2.6,18c0.1,1.2,0.2,2.4,0.2,3.6v22.8v44.1l-6.7,0.1c0,0-5.8-21.9-6.5-38.7
		c-0.1-2.7-0.6-5.3-1.2-7.9l-7.6-25.8v-17.6L388,221.7z"/>
	<path class="st15" d="M350.4,312.7h5.5l1,3.1v1.5c0,0.8-0.7,1.5-1.5,1.5h-5.7l-6.1-2.3v-1c0-1.7,0.8-3.3,2.2-4.3l3.2-2.3v3.7
		L350.4,312.7z"/>
	<path class="st16" d="M355.4,316.7h-5.7l-5.9-2.2c-0.1,0.3-0.1,0.6-0.1,1v1l6.1,2.3h5.7c0.8,0,1.5-0.7,1.5-1.5v-1.5l-0.1-0.2
		C356.7,316.3,356.1,316.7,355.4,316.7z"/>
	<path class="st17" d="M376.2,156.3l7.6,2.3c2.8,0.9,17,11.2,17,11.2l-4.2,10.5l-9.1-3.3l1.9,50.4c-5.9-5-25.2,7.4-40.4-1.9
		c0,0,7-32.2,2.3-47.6l-10.7,2.2l-5-10.6l6.9-4.3c1.2-0.7,2.3-1.5,3.4-2.4c2.5-2.1,5.3-3.6,8.4-4.6l6.4-1.9H376.2z"/>
	<g>
		<path class="st16" d="M378,141.3c-0.2-1.1,0.1-2.1,0.2-3.2c0.1-1.5-0.1-3-0.8-4.4c-0.6-1.1-1.2-2.2-2.1-3
			c-1.8-1.6-4.4-1.9-6.7-1.9c-0.7,0-1.5,0-2.1,0.3c-0.5,0.2-1,0.6-1.5,0.7c-0.4,0.1-0.7,0.1-1.1,0.2c-0.5,0.1-1,0.4-1.4,0.6
			c-0.5,0.3-0.9,0.6-1.3,1c-0.8,1.2-0.6,3.6-0.1,4.9c0.2,0.5,0.5,0.9,0.7,1.4c0.7,1.8,0.1,3.8,0.5,5.7c0.3,1.3,1.2,2.4,1.7,3.6
			c0.3,0.8,0.5,1.6,0.9,2.3c1,1.4,2.6,1.6,4.2,1.9c1.9,0.4,3.6,1,5.5,1.1c3.4,0.1,2.7-3,3.7-5.2c0.2-0.5,0.6-1,0.8-1.5
			C379.4,144.4,378.2,142.9,378,141.3z"/>
	</g>
</g>
<g>
	<path class="st14" d="M241.8,54.6l-8.7,6.8L230.7,91v6.4c0,0.5,0.2,1,0.6,1.3l0,0c0.3,0.3,0.7,0.4,1.1,0.4h3.9v3.9c0,0.6,0.5,1,1,1
		l0,0c0.6,0,1-0.5,1-1l-0.1-6.4l0.7-0.1c0.7-0.1,1.1-0.7,1-1.3l-0.2-1.3c0-0.6-0.3-1.2-0.7-1.6l-1.2-1.1l-1.5-2.3l3.3-20.6l8.4-5.8
		L241.8,54.6z"/>
	<path class="st14" d="M321.5,51.9l31.1,27.4l8.1,3.9h5c0.6,0,1.1,0.5,1.1,1.1l0,0c0,0.6-0.5,1.1-1.1,1.1h-5.6h-8.6
		c-1.2,0-2.3-0.6-3-1.7l-0.7-1.1l-24.7-17.4l-9.5-5.5L321.5,51.9z"/>
	<path class="st16" d="M287.6,30.9l13.4,4.8c1.7,0.6,3.3,1.5,4.8,2.6l16.3,12.9l-9.3,9.5c0,0-9.5-5.5-9.9-4.7
		c-1,2.3-1.7,20.2-1.7,20.2l1.2,9.2H263l0.8-9.6L260,57.6l-11.6,5.5l-7.4-9.5L257.6,38c1.1-1.1,2.5-2,3.9-2.6l10.1-4.5H287.6z"/>
	<pattern  id="SVGID_1_" xlink:href="#USGS_22_Gravel_Beach" patternTransform="matrix(1.568 0 0 1.568 4378.1206 4156.9399)">
	</pattern>
	<path class="st18" d="M287.6,30.9l13.4,4.8c1.7,0.6,3.3,1.5,4.8,2.6l16.3,12.9l-9.3,9.5c0,0-9.5-5.5-9.9-4.7
		c-1,2.3-1.7,20.2-1.7,20.2l1.2,7.9H263l0.8-8.3L260,57.6l-11.6,5.5l-7.4-9.5L257.6,38c1.1-1.1,2.5-2,3.9-2.6l10.1-4.5H287.6z"/>
	<g class="st19">
		<polygon class="st20" points="263.2,82.6 302.2,82.6 302.5,85.5 263,85.5 		"/>
	</g>
	<path class="st14" d="M279.7,45L279.7,45c3.6,0,6.6-2.9,6.6-6.6v-6h-13.1v6C273.1,42.1,276.1,45,279.7,45z"/>
	<g>
		<path class="st15" d="M269.3,18.1c0.1-0.7,0.1-2.2,0.2-2.9c0.3-1.4,1.3-3,2.3-4.1c0.8-0.9,0.5-0.8,1.5-1.5
			c1.8-1.2,4.8-1.7,6.9-1.6c0.9,0.1,1.8,0.3,2.7,0.5c0.2,0.1,2.4,1.4,2,1.6c1-0.5,2.1,0,2.9,0.7c1.3,1.2,1.9,2.8,2.5,4.5
			c0.3,0.8,0.6,1.5,0.9,2.3c0.3,0.7,0.5,1.5,0.2,2.2c-0.1,0.3-0.3,0.6-0.5,0.9c-0.3,0.8-0.1,1.7,0,2.5c0.1,1.2-0.3,2.5-1,3.5
			c-0.7,1-1.7,1.3-2.4,2.1l0.4-0.1c-2.9,1.8-6.6,1.6-10,1.4c-1.6-0.1-3.2-0.2-4.9-0.4c-0.9-0.1-1.8-0.2-2.4-0.8
			c-0.6-0.7-0.6-1.7-0.9-2.5c-0.4-1.1-1.3-2-1.6-3.2C267.7,21.5,269.1,19.9,269.3,18.1z"/>
	</g>
	<path class="st14" d="M279.6,38.4L279.6,38.4c4.5,0,8.1-3.6,8.1-8.1V19h-16.2v11.3C271.5,34.7,275.1,38.4,279.6,38.4z"/>
	<g>
		<path class="st15" d="M269.5,19.4c0.8-1.7,2.4-2.8,4.1-3.4c1.7-0.6,3.6-0.7,5.4-0.7c0.9,0,1.9,0,2.8,0.1c1.1,0.2,2.2,0.7,3.2,1.1
			c0.7,0.3,1.5,0.7,2.2,1c0.7,0.3,1.4,0.6,1.9,1.2c0.8,1.1,0.5,2.6,0.1,3.9l-0.3,0.2c-2.2-0.3-3.8-2.1-5.3-3.7
			c-0.1-0.1-0.2-0.2-0.3-0.2c-0.2,0-0.3,0-0.4,0.1c-2.3,1.3-5,1.6-7.6,1.9c-2,0.2-4.2,0.3-5.6-1.1c-0.1-0.1-0.1-0.1-0.2-0.2
			C269.4,19.5,269.5,19.4,269.5,19.4z"/>
	</g>
	<path class="st15" d="M287.7,31.5c0.3-1.6,0.3-3.3,0-5c-0.6,0.9-0.9,1.9-1.3,2.9c-0.5,0.9-1.4,1.8-2.5,1.7c-1.3-0.1-1.9-1.5-3-2.2
		c-0.7-0.4-1.5-0.4-2.2-0.3c-0.7,0.2-1.4,0.5-2.1,0.9c-0.8,0.5-1.7,1.2-2.7,0.9c-0.6-0.2-1.1-0.7-1.4-1.2c-0.3-0.6-0.5-1.2-0.7-1.8
		c-0.1-0.1-0.1-0.2-0.3-0.3c-0.9,1.8-0.6,4.5,0.1,6.3c0.7,2,2.2,3.8,4.1,4.7c1.5,0.7,3.2,0.9,4.8,0.8c1.2-0.1,2.3-0.3,3.3-0.9
		c1.5-0.8,2.5-2.4,3.1-3.9C287.3,33.4,287.5,32.4,287.7,31.5z"/>
</g>
<g>
	
		<rect x="72.1" y="302.4" transform="matrix(-1 -1.224647e-16 1.224647e-16 -1 152.7914 614.0769)" class="st14" width="8.5" height="9.2"/>
	
		<rect x="25.3" y="300.5" transform="matrix(-0.962 -0.273 0.273 -0.962 -25.3018 606.5986)" class="st14" width="8.5" height="9.2"/>
	<polygon class="st9" points="65.5,230.1 81.1,261.1 81.7,306.7 71.2,306.7 70.2,268.4 54.2,245.5 	"/>
	<polygon class="st21" points="66.7,232.5 62.8,239.9 62,256.7 54.2,245.5 65.5,230.1 	"/>
	<path class="st9" d="M65.5,230.1l0.4,0.8l-4.8,9.1L49,268.5c-0.8,1.9-1.9,3.6-3.3,5.1l0,0L34,306.1l-9.3-1l5.9-25.2
		c1-4.6,2.7-9.1,5.3-13.1c0.6-1,1.1-2,1.1-3l4.3-26.5l-0.7-2.9c-0.6-2.5-0.4-5.2,0.6-7.7l1.1-2.7L65.5,230.1z"/>
	<path class="st22" d="M81.7,188.5l11.5,15.4c0.3,0.5,0.9,0.8,1.5,0.9l18.4,2.4c0.9,0.1,1.7-0.3,2.1-1.1l3.2-6.7v-4.4
		c0-1.2,1-2.2,2.2-2.3l0,0v12.9l-3.1,4.5c-0.3,0.5-0.8,0.8-1.4,0.8l-22.6,1.8c-1.1,0.1-2.1-0.3-2.9-1.2l-19.4-21.9L81.7,188.5z"/>
	
		<rect x="77.5" y="175.9" transform="matrix(-0.848 -0.5301 0.5301 -0.848 55.4497 376.3988)" class="st14" width="8.4" height="8.7"/>
	<path class="st14" d="M91.5,162.8v3.3c0,0-0.1,3.9,1.7,5.5l-1.3,0.3l0,1.3c0,3.1-2.5,5.7-5.7,5.7h-3.7c-1.8,0-3.5-1.2-4-2.9
		l-3.1-9.1l1.2-5.3C76.6,161.6,87.3,158,91.5,162.8z"/>
	<path class="st16" d="M84.5,193.7l-2.5-6.2l0.9-1.4l-8.9-5.9l-7.3,2.7c-1.1,0.4-2.1,1.2-2.7,2.3l-10,19.9c-0.1,0.2-0.2,0.3-0.3,0.5
		l-12.6,18.2l26.6,8l2-13.7c0.1-0.7,0.5-1.3,0.9-1.8l12.6-15L84.5,193.7z"/>
	<path class="st16" d="M97.2,317.2l-0.4-1c-0.7-1.8-2.1-3.2-3.8-4.1l-7.1-2.6l-4.8-3v2.6l-5.5-0.1l-2.2-1.3l-1.6,0v9.5H97.2z"/>
	
		<rect x="70.5" y="317.2" transform="matrix(-1 -1.224647e-16 1.224647e-16 -1 168.3348 635.9693)" class="st23" width="27.4" height="1.5"/>
	<path class="st16" d="M45.1,317.7l-0.3-1.3c-0.8-1.7-0.8-1.7-2.1-2.9l-5.8-3.8l-3.6-3.7l-0.5,2.3l-4.9-1.3l-1.7-1.6l-1.4-0.3
		l-2,8.4l19.8,4.8L45.1,317.7z"/>
	<polygon class="st23" points="21.2,314.5 38.1,318.6 40.2,317.7 21.5,313.2 	"/>
	<polygon class="st23" points="45.7,318.6 38.1,318.7 38.1,317.2 45.7,317.2 	"/>
	<g>
		<linearGradient id="SVGID_2_" gradientUnits="userSpaceOnUse" x1="61.7653" y1="173.203" x2="92.3476" y2="173.203">
			<stop  offset="0" style="stop-color:#FEC55E"/>
			<stop  offset="1" style="stop-color:#FF5722"/>
		</linearGradient>
		<path class="st24" d="M79.8,155.7c1.3-0.3,2.7-0.2,3.9,0.3c0.8,0.3,1.4,0.8,2.2,1c0.9,0.2,2,0,2.9,0c0.6,0,1.3,0,1.9,0.2
			c0.6,0.2,1.2,0.5,1.4,1.1c0.2,0.5,0.2,1.1,0.1,1.7c-0.1,1,0,2.1-0.6,2.9c-0.5,0.8-1.2,0.9-2.1,1.2c-0.4,0.1-0.7,0.2-1.1,0.5
			c-1.1,0.8-1.1,2.5-2.1,3.2c-0.7,0.5-1.8,0.5-2.4,1.2c-0.4,0.6-0.3,1.4-0.4,2.1c-0.2,0.9-0.8,1.8-1.7,2.1c-0.2,0.1-0.5,0.2-0.7,0.3
			c-0.2,0.1-0.2,0.4-0.3,0.6c-0.3,1.2,0.2,2.7-0.6,3.6c-0.5,0.7-1.4,0.7-2.1,1.2c-0.9,0.6-0.7,1.1-0.7,2.2c0,0.8,0,1.6,0.3,2.3
			c0.4,0.9,1.2,1.5,1.9,2.1c-0.7-0.3-1.5-0.6-2.2-0.8c0.1,1.8,0.2,3.5,0.6,5.3c-1-0.6-1.6-1.6-2.2-2.6c-0.4-0.7-1-1.4-1.7-1.3
			c-0.2,0.6-0.6,1.1-1,1.6c-0.3-1.1-0.9-2.2-1.7-2.9c-0.5,0.7-1,1.3-1.5,2c-0.5,0.7-1,1.5-0.9,2.3c-0.1-0.9-0.4-1.7-0.9-2.4
			c-1.9,1.8-4,3.7-6.5,4.3c-0.2-1.7,0.9-3.2,1.7-4.8c0.4-0.8,1.1-1.9,1.1-2.8c0-0.8-0.5-1.5-0.3-2.4c0.4-1.6,2.6-2.3,2.9-4
			c0.1-0.7-0.1-1.5,0.1-2.2c0.2-0.7,0.9-1.3,1.3-1.9c0.7-0.9,0.7-1.9,0.9-3c0.2-0.9,0.6-1.3,0.9-2.1c0.7-1.6-1.3-3.5,0.8-4.8
			c0.3-0.2,0.7-0.3,1-0.6c0.4-0.3,0.5-0.8,0.7-1.2c0.5-1.1,1-2.1,1.7-3.1c0.2-0.3,0.5-0.7,0.9-0.9c0.3-0.2,0.7-0.2,1.1-0.3
			c0.6-0.2,1.2-0.5,1.8-0.8C78.8,156,79.3,155.8,79.8,155.7z"/>
	</g>
	<path class="st25" d="M71.4,192.7c1.5,0.7,3.1,2,2.7,3.6c1.8,0.5,2.2,2.3,4.1,3.4c0.3,0.2,0.4,0.6,0.3,1c0.4,0.2,0.8,0.3,1.1,0.5
		c0.3,0.1,0.4,0.4,0.3,0.7c0.7,0.4,1.2,1,1.7,1.6l-0.9,1.1c-0.6-0.9-1.2-2.1-2.2-2.6c-0.2-0.1-1.1-1.1-1.2-1.4
		c-0.7-0.3-0.8,0.9-0.8,0.2c0-0.2,0-0.4,0.1-0.6c-1.1-1-1.7-2-2.9-2c-0.5,0-0.5-0.4-0.2-0.9c1-1.5-1.4-4-2.2-4.4
		C70.4,192.6,70.6,192.3,71.4,192.7z"/>
	<path class="st14" d="M84.5,193.7l8.6,12.5c0.3,0.5,0.9,0.8,1.5,0.9l18.4,2.4c0.9,0.1,1.7-0.3,2.1-1.1l3.2-6.7v-4.4
		c0-1.2,1-2.2,2.2-2.3l0,0V208l-3.1,4.5c-0.3,0.5-0.8,0.8-1.4,0.8l-22.6,1.8c-1.1,0.1-2.1-0.3-2.9-1.2l-14.7-15.9L84.5,193.7z"/>
	<path class="st25" d="M65.8,216c-0.3-0.5,0.2-0.1,0.8,0.1c0.3,0.1,0.8,0.2,1.3,0.3c0.8,0.1,1.7-0.2,2.1-1c0,0,0,0,0,0
		c-0.5-0.2-2-1.3-2.5-1.5c-0.9-0.2-0.9-0.4,0-0.3c1.6,0.3,3.1,0.7,4.6,1.1l-1.3,1.6c-0.4,0.4-0.6,0.9-0.8,1.5c-0.1,0-0.1,0-0.2-0.1
		c0,0.1,0.1,0.1,0.1,0.2c0,0.1-0.1,0.1-0.1,0.2l-0.6,4.1c-0.1-0.1-0.3-0.2-0.3-0.4c-0.2-0.7-0.4-1.5-0.7-2.2
		c-0.1-0.4,0.1-0.7,0.5-0.8C68.1,217.7,66.6,217.3,65.8,216z"/>
	<path class="st25" d="M57.8,206.7c-2.1-1.6-1.3,0.1-2.1-0.3c0.1,0.2,1.2,1.3,1.3,1.5c0.3,0.5-1.1,0.3-1.8,0.1c-0.1,0-0.1,0-0.2,0
		c0.1,0.1,0,0.6,0.1,0.7c0.6,0.5,0.1,0.8-0.5,0.7c-1.4-0.2-2.4-0.2-3.7,0.5l2.4-3.5c0.2,0,0.5-0.3,0.4-0.5l0.1-0.2
		c0.1-0.2,0.2-0.3,0.3-0.5l0.4-0.9c0.2,0.1,0.4-0.2,0.3-0.6l2.1-4.2c0.2,0.2,0.2,0.5,0.1,0.8c-0.7,1.2-1.2,2.2-0.5,3.5
		c0.6,1,1.5,2,2.2,2.8C59.4,207.2,58.5,207.2,57.8,206.7z"/>
	<path class="st1" d="M75.5,313.2c0,1,0.8,1.8,1.8,1.8c1,0,1.8-0.8,1.8-1.8c0-1-0.8-1.8-1.8-1.8C76.4,311.4,75.5,312.2,75.5,313.2z"
		/>
	<path class="st1" d="M25.5,311.4c0,1,0.8,1.8,1.8,1.8c1,0,1.8-0.8,1.8-1.8c0-1-0.8-1.8-1.8-1.8C26.3,309.5,25.5,310.3,25.5,311.4z"
		/>
</g>
<g>
	<path class="st14" d="M235.1,311.6l-5.1,2.3l-8.1,2.1c-1,0.2-1.8,1.2-1.8,2.2l0,0l23.7-0.1l-0.6-4.2l-3.4-2.3H235.1z"/>
	<path class="st16" d="M232.8,315.7l-2.7-1.8l-8,1.3c-1,0.2-2,1.9-2,3l0,0l23.7-0.1l-0.6-4.2l-1.9,1.7l-3.4,0
		C236.4,315.9,234.2,316.5,232.8,315.7z"/>
	<polygon class="st14" points="242.3,313.9 235.1,312.1 235.1,302.3 242.3,302.3 	"/>
	<path class="st16" d="M292.7,284.4c0,0-45.3-16.4-50.6-14.3c0,0-6.8,0-8.2,10.7l0.3,23.2h8.9l2.3-17.7c0.4-1.1,1.7-1.6,2.7-1.1
		l27.4,15.2L292.7,284.4z"/>
	<path class="st16" d="M268.5,288.6l-27.4,16.9c-1.6,1-2.6,2.8-2.6,4.7v1.6c0,3.6,2.9,6.4,6.4,6.4l37.2-1.8v-10.8
		c0,0,11.4-4.4,10.8-13.9L268.5,288.6z"/>
	<polygon class="st14" points="284.2,304.6 302.9,318.2 302.9,318.2 282.2,316.4 282.2,305.5 	"/>
	<path class="st16" d="M284.2,304.6l-2,1v4.6l0,0c1.3-0.6,2.7-0.5,3.9,0.2l9.2,7c0.7,0.6,1.6,0.9,2.5,0.9h5l0,0L284.2,304.6z"/>
	<path class="st14" d="M265.7,226c0,0,4.4,8.5,1,13.5l12-1.1l-4.8-15.3L265.7,226z"/>
	<g>
		<path class="st16" d="M275.2,221.8c-0.2-1-0.6-1.9-1-2.8c-1.3-2.7-2.7-5.5-5.2-7.3c-1.1-0.8-2.3-1.3-3.3-2.2
			c-0.2,0.1-0.5,0.3-0.7,0.4l-1.3,0.2c-1.3,0.2-2.5,1.1-2.9,2.3c-0.5,1.2-0.2,2.7,0.7,3.6c0.6,0.5,1.3,0.8,2,1.2
			c1.5,0.8,2.7,2.1,3.5,3.6c0.3,0.5,0.5,1.1,0.9,1.6c1.1,1.5,3.1,2,5,2.4c0.3,0.1,0.7,0.1,1.1,0c0.3-0.1,0.5-0.3,0.6-0.5
			C275.2,223.9,275.4,222.8,275.2,221.8z"/>
	</g>
	<g>
		<path class="st14" d="M274.8,218.5c-1-1.8-2-3.5-3.2-5.2c-0.4-0.5-0.8-1-1.3-1.3c-0.5-0.3-1.1-0.4-1.7-0.4
			c-1.4-0.2-2.9-0.2-4.4-0.1l-0.2,0.3c-0.4,1-0.7,2.1-0.9,3.2c-0.2,1.2-2,3.9-2.1,5.1c0,0.2,1.5,0.4,1.5,0.5
			c-0.1,0.6-0.1,1.3-0.2,1.9c-0.1,1.2-0.2,0.8,0.1,1.9s0.9,2.3,1.9,2.8c1.2,0.6,2.6,0.4,3.9,0.1c1.8-0.5,3.5-1.3,5-2.3
			c1.3-0.9,2.6-2.1,2.6-3.7C275.8,220.3,275.3,219.4,274.8,218.5z"/>
	</g>
	<path class="st1" d="M284,242.2c-2.5,7.8,11.5,49.5,11.5,49.5c-6,7.9-20.5-3.2-29.8-1.2c0,0,0.1-17.5-3.4-25.4l-4.8-7.7
		c-1.1-1.8-1-4,0.2-5.6l9-12.3l12.9-4.9c1.1-0.4,2.3-0.1,3,0.8l0,0C284.2,237.3,284.7,239.9,284,242.2z"/>
	<g>
		<path class="st16" d="M286.3,241.2c0.2-5.8-1.8-11.4-2-17.2c-0.1-4.5,0.8-9.4-1.9-13c-2.2-3-6.2-4-9.9-4.1c-1.8,0-3.6,0.1-5.3,0.8
			c-1,0.4-2,1.1-2.8,1.9c-0.4,0.4-0.9,0.8-0.7,1.4c0.2,0.5,1.1,1,1.6,1.2c0.7,0.3,1.4,0.3,2.1,0.5c1.6,0.5,1.7,1.7,2,3.2
			c0.3,1.7,0.4,3.5,0.5,5.2c0,0.7,0,1.4,0.1,2.1c0.1,0.3,0.2,0.7,0.3,1c0.5,1.2,1.6,2,2.6,2.8c0.8,0.7,1.8,1.5,2,2.6
			c0.3,1.2-0.2,2.6,0.1,3.8c0.5,2.1,2.4,3.5,3.7,5.1c2,2.5,3,5.7,3.3,8.8c0.3,3.2,2.9,7.1,3.4,9.5
			C287.7,251.8,286.1,246.6,286.3,241.2z"/>
	</g>
	<path class="st14" d="M225.3,250.3l21.1,16.3c0.9,0.7,2.1,0.9,3.1,0.4l26.1-10.3c2.7-1,3.8-4.2,2.3-6.7l0,0c-1.2-2-3.7-2.9-5.9-1.9
		l-24.4,10.5L228.1,247l-1.8-2.5l-4-2.7l-0.6-0.1v1.9l0.3,0.1l0.4,1.1l-4.4-0.8l-5.9-1.1c-0.2,0.2-0.2,1,0,1.2l4.9,1.5l0,0.5
		l-5.8-1.5c-0.2,0.2-0.2,1,0,1.3l5.8,1.8l-0.1,0.7l-5.2-1.3c-0.2,0.1-0.1,0.7,0,0.9l5,1.6c0.1,0.1,0.1,0.4,0,0.4l-4.5-0.8
		c-0.7,0.5-0.1,1,0,1.1l8.4,1.2c0.9,0.1,1.9,0,2.7-0.4L225.3,250.3z"/>
	<path class="st1" d="M279.2,249.2c-1.3-2.2-4-3.1-6.3-2.1l-13.4,4.6c-1.3,2.7,5,6.9,4.5,11.2l12.7-6.6
		C279.6,255.2,280.8,251.8,279.2,249.2z"/>
</g>
<g>
	<path class="st6" d="M455.6,231.4c-0.2-2.7-0.4-5.5-1.6-7.9c-8.5,10.3-11.8,24.9-8.3,37.9l2.5,2.3c4.2-3.9,6.4-9.5,7.3-15.2
		C456.4,242.8,456,237.1,455.6,231.4z"/>
	<path class="st6" d="M478.6,246.1c-0.2-0.2-0.5-0.3-0.7-0.3c-5.6-1.3-11.7,0.2-16.2,3.8c-4.5,3.6-7.2,9.3-7.2,15l1.7,2.1
		c3.6,1,7.3-0.8,10.3-3.1c5.4-4.1,9.7-9.7,12.1-16C478.8,247,478.9,246.4,478.6,246.1z"/>
	<path class="st6" d="M423,245.8c-3.8-3.1-8.2-6.1-13.1-5.8c-0.5,0-1.1,0.2-1.4,0.6c-0.5,1,1.2,1.8,1.5,2.9c0.2,0.6-0.1,1.3-0.3,2
		c-0.2,1.2,0.1,2.4,0.6,3.6c4.5,11.2,17.2,18.6,29.2,16.9l1.5-2.3C435.6,257,429.5,251.1,423,245.8z"/>
	<g>
		<path class="st6" d="M437,264.2c8.5,8.1,9.6,20.2,8.2,31.3c-0.3,2.4,3.5,2.4,3.8,0c1.6-12.1,0-25.2-9.3-34
			C438,259.8,435.3,262.5,437,264.2L437,264.2z"/>
	</g>
	<g>
		<path class="st6" d="M445.4,260.3c1.8,10.7-0.5,21.5,0.6,32.2c0.3,2.4,4.1,2.4,3.8,0c-1.2-11.1,1.1-22.2-0.8-33.2
			C448.6,256.9,445,257.9,445.4,260.3L445.4,260.3z"/>
	</g>
	<g>
		<path class="st6" d="M456.5,259.6c-3.1,4.7-6.3,9.8-7.8,15.4c-1.6,6-1.1,12.7-1.4,18.9c-0.1,2.4,3.7,2.4,3.8,0
			c0.3-5.8-0.2-12.2,1.3-17.9c1.3-5.1,4.5-10.1,7.4-14.5C461.2,259.5,457.9,257.6,456.5,259.6L456.5,259.6z"/>
	</g>
	<path class="st3" d="M460.8,317.8h-21.2c-0.9,0-1.6-0.6-1.9-1.4l-7.2-27.3c-0.3-1.2,0.6-2.4,1.9-2.4H468c1.3,0,2.2,1.2,1.9,2.4
		l-7.2,27.3C462.5,317.2,461.7,317.8,460.8,317.8z"/>
	<g>
		<path class="st26" d="M453.1,227.6c-2.8,10.7-2.9,21.8-5.4,32.5c-0.1,0.3,0.4,0.5,0.5,0.1c2.6-10.7,2.6-21.8,5.4-32.5
			C453.7,227.4,453.2,227.2,453.1,227.6L453.1,227.6z"/>
	</g>
	<g>
		<path class="st26" d="M456.6,263.2c4.5-7,11-12.2,18.8-14.9c0.3-0.1,0.2-0.6-0.1-0.5c-8,2.8-14.6,8-19.2,15.2
			C455.9,263.3,456.4,263.5,456.6,263.2L456.6,263.2z"/>
	</g>
	<g>
		<path class="st26" d="M411.1,243.3c1.7,4.3,4.7,7.3,8.5,9.9c5.4,3.8,12.4,5.7,17.4,9.9c0.3,0.3,0.8-0.2,0.5-0.5
			c-3.5-3-7.9-4.2-11.8-6.4c-5.6-3.2-11.4-6.9-13.9-13.2C411.6,242.8,411,243,411.1,243.3L411.1,243.3z"/>
	</g>
</g>
</svg>
